<?xml version="1.0" standalone="no"?>
<!DOCTYPE svg PUBLIC "-//W3C//DTD SVG 20010904//EN"
 "http://www.w3.org/TR/2001/REC-SVG-20010904/DTD/svg10.dtd">
<svg version="1.0" xmlns="http://www.w3.org/2000/svg"
 width="1600.000000pt" height="1600.000000pt" viewBox="0 0 1600.000000 1600.000000"
 preserveAspectRatio="xMidYMid meet">
<metadata>
Created by potrace 1.14, written by Peter Selinger 2001-2017
</metadata>
<g transform="translate(0.000000,1600.000000) scale(0.100000,-0.100000)"
fill="#000000" stroke="none">
<path d="M1284 15148 l-19 -23 23 19 c12 11 22 21 22 23 0 8 -8 2 -26 -19z"/>
<path d="M1064 14957 c-52 -55 -61 -75 -11 -23 26 27 45 51 44 53 -2 1 -17
-12 -33 -30z"/>
<path d="M959 14843 l-34 -38 38 34 c34 33 42 41 34 41 -2 0 -19 -17 -38 -37z"/>
<path d="M899 14773 c-13 -16 -12 -17 4 -4 16 13 21 21 13 21 -2 0 -10 -8 -17
-17z"/>
<path d="M15805 9825 c0 -1523 1 -2145 2 -1382 2 764 2 2010 0 2770 -1 760 -2
136 -2 -1388z"/>
<path d="M15853 12055 c0 -22 2 -30 4 -17 2 12 2 30 0 40 -3 9 -5 -1 -4 -23z"/>
<path d="M8085 10644 c-16 -2 -66 -8 -110 -14 -44 -6 -154 -12 -245 -14 -127
-3 -175 -8 -205 -21 -25 -10 -72 -17 -125 -19 -71 -2 -93 -6 -125 -26 -28 -17
-52 -23 -89 -23 -35 1 -62 -5 -86 -19 -23 -14 -52 -21 -85 -21 -34 1 -59 -5
-77 -18 -14 -11 -48 -22 -75 -25 -27 -4 -58 -16 -70 -27 -15 -13 -30 -18 -45
-14 -15 4 -33 -2 -54 -18 -18 -14 -45 -25 -60 -25 -16 0 -36 -10 -50 -25 -14
-15 -34 -25 -51 -25 -17 0 -33 -8 -41 -20 -8 -13 -23 -20 -42 -20 -19 0 -33
-7 -40 -20 -6 -11 -20 -20 -31 -20 -12 0 -34 -11 -51 -25 -16 -14 -40 -25 -53
-25 -14 0 -29 -9 -35 -20 -6 -12 -21 -20 -35 -20 -13 0 -28 -6 -32 -14 -10
-16 -90 -56 -114 -56 -10 0 -26 -11 -37 -25 -12 -15 -30 -25 -46 -25 -15 0
-30 -8 -36 -19 -15 -29 -12 -41 11 -41 11 0 29 -5 39 -10 15 -8 34 -5 77 11
32 12 83 23 114 25 32 1 73 11 96 23 23 11 72 23 109 27 38 3 80 13 94 22 16
11 50 17 95 17 44 1 85 8 110 19 53 24 186 31 520 29 404 -2 562 -9 620 -28
28 -9 99 -18 164 -21 80 -3 127 -10 160 -23 28 -12 80 -21 136 -24 61 -3 104
-11 134 -25 33 -15 57 -19 95 -15 37 4 66 -1 106 -16 32 -12 78 -21 110 -21
37 0 72 -8 107 -25 35 -15 70 -24 103 -23 33 0 62 -7 84 -20 21 -13 51 -20 84
-20 34 0 63 -7 87 -21 21 -12 53 -21 78 -21 26 0 60 -10 88 -25 30 -16 60 -23
87 -22 25 1 48 -5 59 -15 10 -8 39 -18 65 -20 26 -3 58 -15 74 -27 18 -14 41
-21 69 -21 24 0 48 -6 54 -14 6 -7 32 -16 57 -19 25 -2 58 -14 73 -24 14 -11
45 -22 69 -26 24 -3 51 -12 60 -20 9 -8 37 -17 60 -20 24 -3 54 -15 66 -26 13
-13 36 -21 55 -21 21 0 44 -9 63 -25 18 -16 42 -25 63 -25 18 0 38 -7 45 -15
7 -8 28 -15 47 -15 23 0 41 -8 57 -25 17 -18 34 -25 59 -25 26 0 39 -6 47 -20
8 -15 21 -20 49 -20 25 0 44 -7 56 -20 11 -12 31 -20 52 -20 23 0 40 -8 55
-25 15 -18 32 -25 56 -25 24 0 42 -8 58 -25 17 -19 29 -23 51 -19 21 4 33 0
47 -15 11 -12 29 -21 41 -21 12 0 34 -9 48 -20 14 -11 36 -20 50 -20 14 0 39
-11 55 -25 17 -14 42 -25 57 -25 17 0 34 -9 47 -25 14 -18 26 -23 42 -19 15 3
28 -2 40 -15 11 -12 31 -21 46 -21 18 0 33 -8 44 -25 11 -17 26 -25 46 -25 19
0 33 -7 40 -20 6 -12 21 -20 37 -20 15 0 36 -11 49 -25 13 -14 33 -25 45 -25
11 0 30 -11 41 -25 11 -14 30 -25 43 -25 13 0 27 -4 30 -10 3 -5 14 -10 24
-10 10 0 28 -11 41 -25 13 -14 34 -25 46 -25 13 0 28 -9 34 -20 6 -11 21 -20
34 -20 12 0 33 -11 46 -25 13 -14 31 -25 41 -25 9 0 22 -7 29 -15 7 -8 19 -15
27 -15 8 0 28 -11 45 -25 16 -14 36 -25 44 -25 7 0 21 -11 30 -25 10 -15 26
-25 41 -25 13 0 34 -11 46 -24 12 -13 42 -31 67 -41 24 -9 54 -27 67 -41 12
-13 31 -24 41 -24 11 0 25 -7 32 -15 7 -8 18 -15 24 -15 7 0 22 -11 34 -25 12
-14 30 -25 41 -25 10 0 21 -7 25 -15 3 -8 34 -28 68 -44 35 -17 69 -39 76 -51
7 -11 21 -20 31 -20 10 0 24 -7 31 -15 7 -8 18 -15 24 -15 7 0 22 -10 34 -23
12 -13 43 -34 67 -46 25 -13 53 -34 61 -47 9 -13 26 -24 38 -24 12 0 31 -7 42
-15 19 -13 23 -12 44 10 13 14 29 25 35 25 7 0 34 28 60 61 27 34 59 73 72 88
13 14 49 55 81 90 75 83 277 285 387 386 119 109 165 154 165 160 0 18 -44 87
-58 91 -9 3 -26 10 -37 14 -11 5 -30 12 -43 15 -12 4 -27 15 -32 26 -6 11 -21
19 -35 19 -15 0 -31 10 -41 25 -11 17 -25 25 -45 25 -18 0 -32 7 -39 20 -6 11
-21 20 -34 20 -12 0 -33 11 -46 25 -13 14 -31 25 -40 25 -22 0 -94 35 -110 54
-7 9 -22 16 -35 16 -12 0 -30 9 -40 20 -10 11 -28 20 -41 20 -13 0 -29 8 -36
19 -7 10 -27 21 -44 25 -18 4 -40 16 -50 27 -9 10 -27 19 -39 19 -12 0 -30 9
-40 20 -10 11 -28 20 -40 20 -12 0 -33 8 -46 19 -13 10 -38 22 -56 25 -17 4
-37 13 -43 21 -6 7 -26 16 -44 19 -18 4 -43 17 -56 31 -15 16 -34 25 -54 25
-20 0 -36 7 -44 20 -7 12 -23 20 -41 20 -15 0 -36 9 -46 20 -10 11 -31 20 -46
20 -18 0 -32 7 -39 20 -7 13 -21 20 -40 20 -18 0 -37 8 -47 20 -11 12 -30 20
-49 20 -20 0 -44 10 -62 25 -17 14 -41 25 -54 25 -14 0 -33 9 -43 20 -10 11
-30 20 -45 20 -15 0 -35 9 -45 20 -10 11 -31 20 -46 20 -16 0 -36 8 -46 19
-10 10 -36 21 -57 24 -21 3 -49 15 -61 27 -12 11 -35 20 -52 20 -17 0 -37 8
-48 20 -10 11 -30 20 -45 20 -14 0 -41 11 -59 24 -19 14 -40 22 -52 19 -12 -3
-29 2 -42 14 -12 11 -40 23 -61 26 -21 4 -49 15 -61 27 -12 12 -35 20 -54 20
-21 0 -44 9 -64 26 -22 18 -37 24 -55 19 -17 -4 -31 0 -46 13 -11 11 -38 22
-60 25 -21 3 -46 13 -56 22 -10 9 -39 18 -65 20 -30 2 -55 11 -69 24 -14 13
-36 21 -58 21 -20 0 -46 9 -61 20 -15 12 -40 20 -65 20 -23 0 -49 8 -63 19
-14 10 -49 20 -82 24 -35 3 -67 13 -83 26 -18 14 -42 21 -73 21 -31 1 -59 9
-85 25 -32 20 -48 23 -84 18 -34 -5 -49 -2 -70 14 -18 14 -50 22 -97 26 -41 3
-87 14 -112 26 -28 14 -61 21 -98 21 -36 0 -71 7 -97 20 -32 15 -62 20 -130
20 -49 0 -96 4 -106 9 -50 25 -110 35 -238 38 -90 2 -163 8 -200 19 -43 12
-118 17 -277 20 -120 2 -283 10 -362 19 -127 13 -452 18 -540 9z"/>
<path d="M6900 9840 c-41 -5 -111 -15 -155 -23 -44 -8 -126 -15 -183 -16 -71
-2 -122 -8 -165 -22 -39 -13 -90 -20 -137 -20 -47 -1 -97 -8 -134 -20 -32 -11
-86 -21 -121 -22 -40 -2 -72 -9 -91 -22 -18 -11 -50 -19 -89 -21 -35 -1 -80
-12 -108 -24 -29 -13 -58 -19 -72 -16 -14 4 -44 -4 -77 -19 -29 -14 -71 -25
-94 -25 -26 0 -51 -7 -67 -20 -15 -12 -40 -20 -62 -20 -21 0 -52 -9 -71 -20
-18 -12 -57 -23 -86 -27 -33 -3 -62 -13 -75 -26 -13 -11 -38 -21 -57 -21 -19
-1 -43 -10 -54 -19 -13 -12 -28 -16 -44 -12 -16 4 -36 -2 -63 -21 -22 -15 -51
-27 -66 -26 -14 1 -40 -9 -59 -23 -20 -15 -47 -25 -66 -25 -21 0 -37 -6 -43
-17 -6 -11 -20 -17 -39 -15 -20 1 -37 -6 -55 -24 -16 -16 -42 -28 -66 -31 -23
-3 -46 -12 -52 -19 -6 -8 -24 -14 -39 -14 -15 0 -35 -9 -45 -20 -10 -11 -28
-20 -40 -20 -12 0 -34 -9 -48 -20 -14 -11 -35 -20 -46 -20 -12 0 -30 -9 -41
-20 -11 -11 -31 -20 -44 -20 -14 0 -33 -11 -44 -25 -12 -15 -30 -25 -44 -25
-14 0 -33 -9 -43 -20 -10 -11 -31 -20 -46 -20 -18 0 -32 -7 -39 -20 -6 -12
-21 -20 -35 -20 -14 0 -35 -11 -47 -25 -13 -15 -32 -25 -47 -25 -15 0 -31 -8
-39 -20 -7 -11 -23 -20 -37 -20 -15 0 -31 -10 -41 -25 -9 -14 -26 -25 -39 -25
-12 0 -28 -7 -35 -14 -12 -16 -90 -56 -106 -56 -6 0 -21 -11 -34 -25 -13 -14
-32 -25 -42 -25 -10 0 -26 -9 -36 -20 -9 -12 -40 -32 -67 -45 -28 -13 -59 -33
-69 -44 -11 -12 -27 -21 -36 -21 -9 0 -25 -10 -36 -21 -10 -12 -28 -26 -39
-31 -47 -22 -82 -44 -103 -65 -12 -13 -28 -23 -36 -23 -8 0 -16 -7 -20 -15 -3
-8 -14 -15 -25 -15 -12 0 -28 -11 -37 -25 -9 -14 -22 -25 -29 -25 -6 0 -19 -8
-28 -18 -10 -10 -39 -29 -66 -42 -27 -12 -54 -33 -61 -45 -7 -13 -20 -26 -29
-29 -40 -15 -82 -43 -97 -64 -8 -12 -21 -22 -29 -22 -8 0 -19 -9 -25 -20 -6
-11 -17 -20 -25 -20 -8 0 -15 -4 -15 -9 0 -5 -14 -14 -31 -21 -17 -7 -50 -33
-74 -57 -24 -23 -46 -43 -50 -43 -3 0 -22 -16 -42 -35 -20 -19 -41 -35 -47
-35 -7 0 -45 -32 -86 -71 -41 -39 -120 -107 -175 -151 -55 -45 -139 -121 -187
-169 -47 -49 -89 -89 -92 -89 -9 0 -246 -240 -246 -249 0 -5 7 -14 16 -22 13
-10 20 -10 44 4 15 9 34 17 42 17 8 0 25 11 38 25 13 14 32 25 42 25 10 0 28
11 40 25 12 14 27 25 34 25 6 0 17 7 24 15 7 8 22 15 34 15 12 0 33 14 48 30
14 17 36 30 47 30 12 0 21 4 21 8 0 12 77 61 106 68 14 4 29 15 35 25 5 11 18
19 28 19 10 0 24 7 31 15 7 8 21 15 30 15 10 0 27 11 38 24 10 14 31 28 45 31
14 4 32 14 38 22 7 8 40 27 75 43 34 16 64 36 67 45 4 8 18 15 31 15 15 0 30
8 36 20 6 11 22 23 35 26 13 3 29 12 36 20 6 8 20 14 30 14 10 0 26 11 35 25
10 15 26 25 40 25 12 0 26 5 29 10 10 17 83 60 100 60 9 0 27 11 41 25 14 14
32 25 40 25 8 0 25 11 37 24 12 13 37 27 55 30 17 4 32 11 32 16 0 11 96 60
115 60 8 0 19 9 25 20 6 11 20 20 31 20 11 0 30 11 43 25 13 14 34 25 49 25
17 0 32 9 43 25 10 15 26 25 40 25 13 0 32 9 41 20 10 11 27 20 39 20 11 0 29
8 38 19 9 10 29 21 44 24 15 3 38 15 51 26 13 12 34 21 46 21 12 0 30 9 40 20
10 11 28 20 40 20 12 0 30 9 40 20 10 11 30 20 44 20 15 0 33 9 41 20 8 12 26
20 42 20 18 0 36 10 50 25 13 15 32 25 49 25 14 0 32 7 39 15 7 8 26 15 42 15
18 0 43 11 60 25 16 14 42 25 57 25 15 0 36 9 46 20 10 11 31 20 46 20 16 0
45 11 66 25 20 14 47 25 58 23 12 -1 34 7 49 19 19 16 36 21 55 17 20 -4 36 1
59 21 25 21 39 26 58 21 20 -5 37 0 65 20 28 19 45 25 64 20 18 -5 43 3 85 25
41 21 68 29 84 25 17 -4 41 2 72 19 31 17 63 25 95 25 30 0 64 8 89 21 28 15
52 20 78 16 24 -3 61 4 107 20 50 18 91 25 143 25 47 -1 93 6 130 19 45 16 92
21 225 24 92 2 172 7 177 10 5 3 184 10 396 16 336 9 404 8 518 -6 72 -9 192
-18 267 -20 100 -3 147 -8 175 -21 25 -10 73 -18 129 -20 66 -2 108 -9 156
-28 48 -18 77 -23 107 -19 30 4 52 0 82 -16 24 -12 60 -21 88 -21 28 0 75 -12
117 -29 48 -20 75 -26 87 -20 18 10 62 -3 73 -20 3 -6 26 -11 50 -11 28 0 62
-10 97 -29 39 -20 64 -27 87 -23 23 3 41 -2 61 -17 18 -13 44 -21 68 -21 24 0
50 -8 70 -24 21 -15 41 -22 57 -19 14 3 38 -3 57 -15 18 -11 53 -22 77 -25 24
-3 57 -15 72 -26 17 -13 43 -21 67 -21 25 0 45 -7 56 -19 10 -11 36 -21 62
-24 25 -2 53 -12 63 -21 10 -9 34 -16 54 -16 23 0 46 -8 65 -25 19 -16 42 -25
64 -25 21 0 47 -10 68 -25 23 -17 41 -23 57 -19 16 5 31 0 46 -14 12 -11 41
-23 64 -27 22 -3 49 -15 59 -26 10 -11 30 -19 49 -19 18 0 38 -7 45 -15 6 -7
31 -17 55 -21 24 -3 52 -15 61 -25 9 -10 29 -19 44 -19 14 0 41 -11 60 -25 19
-14 47 -25 65 -25 19 0 39 -8 50 -20 10 -11 30 -20 45 -20 15 0 35 -9 45 -20
10 -11 29 -20 43 -20 14 0 33 -6 41 -13 9 -7 35 -19 58 -27 24 -7 50 -21 59
-32 10 -10 29 -18 44 -18 15 0 35 -9 45 -20 10 -11 30 -20 44 -20 15 0 34 -9
44 -20 10 -12 29 -20 47 -20 19 0 33 -7 40 -20 6 -11 21 -20 35 -20 13 0 37
-11 53 -25 17 -14 39 -25 49 -25 11 0 28 -9 38 -20 10 -11 28 -20 40 -20 12 0
30 -9 40 -20 10 -11 26 -20 36 -20 10 0 32 -13 49 -30 17 -16 37 -30 44 -30
17 0 75 -28 105 -52 13 -10 27 -16 30 -13 4 2 22 -9 40 -25 18 -17 41 -30 51
-30 11 0 24 -9 29 -19 6 -10 23 -24 38 -31 78 -32 93 -53 49 -69 -13 -5 -32
-21 -42 -34 -21 -29 -119 -107 -132 -107 -5 0 -32 -22 -60 -50 -28 -27 -55
-50 -59 -50 -5 0 -16 -8 -25 -17 -25 -28 -69 -64 -108 -88 -19 -12 -60 -46
-90 -75 -30 -29 -61 -55 -70 -59 -33 -13 -139 -97 -145 -114 -4 -10 -14 -21
-23 -25 -39 -16 -143 -88 -147 -102 -3 -8 -28 -26 -55 -39 -28 -13 -59 -34
-69 -45 -19 -24 -75 -56 -97 -56 -8 0 -20 -11 -26 -25 -6 -13 -20 -27 -32 -31
-52 -15 -98 -40 -111 -61 -9 -13 -25 -23 -37 -23 -11 0 -31 -11 -43 -24 -14
-16 -30 -23 -42 -20 -11 3 -26 -3 -37 -15 -11 -12 -27 -21 -38 -21 -10 0 -28
-11 -40 -25 -12 -14 -29 -25 -37 -25 -9 0 -25 -7 -35 -15 -11 -8 -28 -15 -38
-15 -10 0 -25 -11 -34 -25 -9 -14 -26 -25 -38 -25 -12 0 -32 -11 -44 -25 -12
-14 -32 -25 -45 -25 -12 0 -28 -9 -35 -20 -7 -11 -21 -20 -33 -20 -11 0 -35
-11 -53 -25 -18 -14 -42 -25 -53 -25 -12 0 -23 -7 -27 -15 -3 -8 -17 -15 -32
-15 -14 0 -40 -11 -56 -25 -19 -16 -37 -23 -49 -20 -11 4 -26 -2 -38 -14 -12
-12 -33 -21 -48 -21 -16 0 -41 -11 -57 -25 -19 -16 -41 -25 -63 -25 -20 0 -46
-9 -60 -20 -17 -13 -41 -20 -68 -20 -27 0 -51 -7 -68 -20 -14 -11 -47 -23 -74
-26 -26 -3 -67 -15 -91 -26 -25 -12 -54 -18 -70 -15 -18 3 -41 -3 -70 -20 -28
-17 -57 -25 -84 -25 -23 1 -59 -8 -82 -20 -23 -12 -63 -22 -91 -24 -27 -1 -68
-12 -90 -23 -23 -12 -58 -21 -85 -21 -26 0 -63 -9 -85 -20 -22 -11 -59 -20
-83 -20 -26 0 -58 -8 -76 -19 -17 -10 -47 -21 -67 -25 -40 -7 -62 -25 -51 -42
4 -6 24 -19 45 -29 29 -13 40 -15 51 -6 11 9 106 12 348 10 329 -1 334 -1 431
25 69 18 104 23 121 17 17 -7 42 -3 92 15 44 15 87 23 119 22 37 -2 63 4 95
21 30 16 66 25 105 26 35 2 80 12 108 25 32 14 58 19 76 15 20 -4 42 2 76 20
29 15 65 25 89 25 25 0 51 8 66 20 14 11 41 20 62 20 20 0 60 11 90 25 29 14
66 25 81 25 15 0 40 9 56 21 15 11 48 23 72 26 24 3 51 12 60 20 9 7 33 15 53
17 20 2 45 11 54 20 10 9 32 16 48 16 17 0 46 12 65 26 24 17 42 24 60 20 18
-3 37 3 60 20 18 13 47 24 64 24 19 0 39 8 50 20 11 12 31 20 48 20 18 0 41 9
54 22 13 12 38 22 60 23 20 2 42 10 48 19 7 9 26 16 42 16 17 0 38 9 48 20 10
11 31 20 46 20 20 0 34 8 45 26 11 16 24 24 35 21 10 -3 27 5 40 19 13 14 34
24 51 24 17 0 33 8 40 20 8 12 24 20 40 20 18 0 33 8 44 25 11 17 25 25 45 25
18 0 34 8 41 20 8 12 24 20 40 20 15 0 33 8 40 19 8 11 26 23 40 26 15 4 34
15 44 26 9 10 30 19 45 19 17 0 32 7 38 19 6 10 23 22 38 26 16 3 37 15 48 24
11 10 43 26 70 36 28 10 58 29 68 42 10 12 28 23 39 23 11 0 31 11 44 25 13
14 34 25 49 25 14 0 25 5 25 11 0 5 15 16 34 24 19 8 37 19 41 25 3 5 14 10
24 10 10 0 28 11 41 25 13 14 32 25 41 25 10 0 26 8 36 18 10 10 43 30 74 45
31 14 59 33 62 41 3 7 31 27 62 42 33 17 61 38 66 52 5 12 15 22 23 22 9 0 20
9 26 20 6 11 16 20 23 20 7 0 39 25 72 55 33 30 63 55 66 55 4 0 27 20 52 45
26 25 50 45 54 45 5 0 17 13 26 30 10 16 25 30 33 30 8 0 14 4 14 10 0 5 36
35 80 66 44 30 80 62 80 70 0 8 4 14 10 14 5 0 29 18 51 40 l42 41 -24 27
c-41 47 -131 132 -140 132 -5 0 -14 11 -21 24 -12 24 -80 76 -97 76 -5 0 -11
7 -15 15 -3 8 -12 15 -20 15 -7 0 -24 13 -37 29 -13 16 -45 40 -71 52 -27 12
-48 26 -48 29 0 4 -13 13 -29 20 -16 6 -32 18 -35 26 -3 8 -16 14 -29 14 -14
0 -32 12 -45 30 -13 17 -28 30 -35 30 -23 0 -94 39 -100 55 -4 9 -19 15 -36
15 -20 0 -34 8 -45 25 -9 14 -26 25 -38 25 -11 0 -31 11 -44 25 -13 14 -32 25
-42 25 -11 0 -25 7 -32 15 -7 8 -21 15 -31 15 -10 0 -23 9 -29 20 -6 11 -21
20 -34 20 -12 0 -33 11 -46 25 -13 14 -33 25 -45 25 -12 0 -31 11 -43 25 -12
14 -33 25 -47 25 -14 0 -29 8 -35 20 -7 13 -21 20 -38 20 -15 0 -35 9 -45 20
-9 11 -23 20 -30 20 -8 0 -36 12 -63 26 -27 15 -60 33 -74 40 -14 8 -31 14
-38 14 -8 0 -27 14 -42 30 -17 18 -38 30 -53 30 -13 0 -30 7 -37 15 -7 8 -25
15 -39 15 -17 0 -36 10 -49 25 -12 14 -32 25 -45 25 -13 0 -32 9 -42 20 -10
11 -30 20 -44 20 -15 0 -31 8 -39 20 -8 13 -23 20 -45 20 -21 0 -36 7 -45 20
-8 14 -23 20 -47 20 -23 0 -38 6 -41 15 -4 8 -23 18 -44 21 -22 4 -49 17 -61
30 -15 16 -34 24 -54 24 -19 0 -39 8 -50 20 -10 11 -30 20 -45 20 -15 0 -33 6
-39 14 -6 7 -27 16 -47 19 -19 3 -49 18 -66 32 -23 19 -38 25 -56 20 -17 -4
-31 0 -46 13 -11 11 -37 22 -57 26 -20 3 -44 15 -54 26 -12 13 -31 20 -55 20
-21 0 -43 6 -49 14 -6 7 -30 16 -52 19 -23 3 -51 15 -63 26 -14 13 -36 21 -57
21 -22 0 -48 10 -69 25 -23 17 -41 23 -57 19 -16 -4 -35 2 -62 20 -27 19 -46
25 -63 21 -16 -4 -35 2 -61 19 -24 17 -52 26 -76 26 -23 0 -48 8 -64 20 -14
11 -40 20 -59 20 -18 0 -54 11 -80 25 -30 16 -63 25 -91 25 -30 0 -53 7 -71
21 -19 15 -34 19 -53 15 -18 -5 -44 2 -87 23 -40 19 -70 27 -88 24 -17 -3 -48
5 -84 21 -40 19 -67 25 -86 20 -20 -4 -42 1 -71 17 -29 15 -61 23 -103 24 -43
1 -71 8 -96 23 -24 15 -51 22 -85 22 -46 0 -89 9 -138 30 -11 5 -45 8 -75 8
-33 0 -81 9 -119 22 -38 14 -94 24 -135 25 -39 2 -102 11 -141 20 -57 14 -132
17 -400 20 -181 1 -364 -1 -405 -5z"/>
<path d="M6435 8800 c-27 -10 -67 -19 -89 -19 -25 -1 -48 -9 -67 -25 -16 -14
-36 -22 -46 -20 -11 3 -28 -5 -42 -20 -14 -14 -29 -26 -34 -26 -22 0 -104 -82
-126 -125 -12 -25 -31 -51 -42 -58 -12 -7 -19 -23 -19 -41 0 -30 -15 -86 -31
-118 -14 -28 -10 -74 12 -144 12 -36 18 -75 15 -87 -4 -16 1 -27 14 -37 12 -8
20 -26 20 -41 0 -17 9 -35 23 -46 13 -10 32 -35 42 -56 21 -45 150 -167 176
-167 10 0 20 -4 24 -9 12 -21 101 -73 131 -78 18 -3 41 -14 50 -24 10 -12 31
-19 52 -19 19 0 73 -9 120 -21 75 -18 93 -19 146 -9 34 7 89 17 122 24 34 6
71 19 81 29 11 9 29 17 41 17 22 0 76 44 141 114 20 22 48 53 64 69 17 19 27
41 27 59 0 17 9 41 19 54 17 22 19 42 19 194 1 152 -1 172 -19 194 -10 13 -19
38 -19 55 0 22 -7 35 -25 47 -14 9 -25 25 -25 36 0 28 -25 61 -101 135 -66 63
-108 93 -133 93 -7 0 -23 11 -36 25 -16 17 -34 25 -57 25 -18 0 -56 9 -85 20
-71 27 -267 27 -343 0z"/>
<path d="M4464 8282 c-34 -22 -36 -87 -5 -107 6 -3 11 -24 11 -47 0 -28 7 -49
25 -70 14 -16 25 -42 25 -57 0 -15 9 -36 20 -46 11 -10 22 -33 26 -51 3 -19
10 -34 15 -34 5 0 22 -29 39 -64 16 -36 36 -68 44 -73 14 -8 66 -78 66 -90 0
-3 18 -25 40 -49 22 -24 40 -48 40 -54 0 -5 6 -10 13 -10 6 0 49 -38 95 -85
77 -78 161 -145 182 -145 5 0 16 -10 24 -23 9 -12 40 -35 69 -50 30 -15 62
-36 72 -47 10 -11 26 -20 35 -20 9 0 25 -9 35 -20 10 -11 28 -20 40 -20 12 0
32 -11 45 -25 13 -14 33 -25 45 -25 12 0 30 -9 40 -20 10 -11 30 -20 45 -20
15 0 35 -9 45 -20 11 -12 31 -20 50 -20 18 0 38 -6 44 -14 6 -7 30 -16 52 -19
23 -3 51 -15 63 -26 14 -13 36 -21 58 -21 20 0 46 -9 61 -20 15 -12 40 -20 64
-20 21 0 56 -9 77 -21 23 -12 62 -22 95 -24 33 -1 70 -11 91 -23 25 -14 53
-20 96 -20 33 0 74 -6 90 -14 51 -26 120 -39 149 -28 15 6 33 6 43 1 9 -4 23
-6 30 -4 7 3 34 -3 60 -12 39 -13 179 -36 217 -35 6 0 231 2 500 4 430 3 497
6 545 21 30 10 74 19 97 21 24 1 47 5 53 9 5 3 19 1 30 -5 22 -12 62 -4 130
28 19 9 55 15 79 14 30 -1 52 5 72 19 18 12 52 23 87 26 31 3 65 13 75 21 10
9 38 16 67 17 31 1 56 7 68 18 11 10 35 17 57 17 26 0 49 8 72 26 26 19 42 25
63 21 20 -5 39 1 65 18 20 14 50 25 69 25 18 0 41 8 54 20 12 11 34 20 50 20
16 0 41 9 55 20 14 11 38 20 55 20 17 0 40 10 56 25 18 16 39 25 60 25 24 0
38 7 49 24 11 17 23 22 39 19 15 -3 30 3 42 16 11 12 31 21 47 21 17 0 35 9
47 25 12 15 30 25 44 25 14 0 33 9 43 20 10 11 23 20 29 19 30 -4 45 3 51 21
4 14 15 20 35 20 20 0 35 8 46 25 11 17 25 25 44 25 18 0 31 6 35 18 7 20 61
56 98 66 14 3 28 14 31 24 5 15 45 44 86 63 8 4 47 38 86 76 103 98 110 155
23 169 -21 4 -46 15 -55 25 -11 12 -31 19 -54 19 -22 0 -48 8 -63 20 -14 11
-38 20 -55 20 -16 0 -39 9 -52 20 -13 11 -31 20 -40 20 -10 0 -28 9 -42 19
-13 11 -40 22 -60 26 -20 4 -46 18 -59 31 -13 14 -34 24 -49 24 -15 0 -35 9
-45 20 -10 11 -29 20 -42 20 -13 0 -34 6 -46 14 -12 8 -41 17 -64 21 -22 3
-49 15 -59 26 -10 11 -30 19 -50 19 -18 0 -48 7 -67 16 -33 16 -35 15 -74 -12
-35 -25 -83 -93 -83 -117 0 -12 -263 -274 -282 -280 -10 -4 -18 -11 -18 -17 0
-5 -9 -10 -21 -10 -12 0 -33 -12 -48 -27 -43 -44 -70 -63 -89 -63 -10 0 -28
-11 -40 -25 -12 -14 -32 -25 -45 -25 -12 0 -28 -9 -35 -20 -7 -11 -23 -20 -36
-20 -12 0 -31 -9 -41 -20 -10 -11 -28 -20 -40 -20 -12 0 -32 -11 -45 -25 -15
-16 -34 -25 -55 -25 -20 0 -39 -8 -51 -21 -10 -11 -26 -18 -35 -16 -10 3 -27
-6 -40 -19 -13 -14 -34 -24 -50 -24 -16 0 -45 -11 -65 -25 -20 -14 -48 -25
-61 -25 -13 0 -31 -7 -39 -15 -9 -8 -31 -15 -49 -15 -21 0 -44 -9 -63 -25 -23
-19 -37 -24 -60 -19 -21 4 -43 -1 -78 -20 -28 -15 -65 -26 -87 -26 -21 0 -64
-12 -95 -26 -44 -20 -61 -23 -78 -15 -23 10 -50 5 -148 -26 -32 -10 -95 -17
-180 -19 -72 -1 -158 -7 -191 -13 -91 -16 -305 -12 -445 8 -84 13 -131 16
-143 9 -22 -11 -81 -3 -161 24 -40 13 -71 17 -94 13 -34 -6 -122 13 -122 26 0
10 -49 22 -102 24 -28 0 -55 8 -66 18 -10 10 -35 17 -56 17 -26 0 -48 8 -68
25 -19 16 -42 25 -65 25 -23 0 -45 9 -64 25 -22 18 -37 23 -58 19 -23 -5 -29
-2 -34 15 -4 16 -13 21 -39 21 -24 0 -42 8 -58 25 -14 15 -30 23 -40 20 -10
-3 -25 5 -38 20 -12 14 -32 25 -45 25 -13 0 -32 9 -41 19 -10 11 -42 31 -72
45 -30 14 -57 32 -60 40 -3 8 -18 19 -32 25 -43 17 -80 44 -102 74 -12 15 -28
27 -36 27 -8 0 -14 4 -14 8 0 4 -23 26 -52 47 -78 60 -166 150 -247 253 -40
50 -79 92 -87 92 -8 0 -14 8 -14 18 0 9 -7 26 -15 36 -8 11 -15 28 -15 38 0 9
-13 24 -30 33 -17 9 -30 24 -30 34 0 23 -22 42 -36 33z"/>
<path d="M15804 6255 c0 -49 1 -71 3 -48 2 23 2 64 0 90 -2 26 -3 8 -3 -42z"/>
<path d="M15803 5830 c0 -41 2 -58 4 -37 2 20 2 54 0 75 -2 20 -4 3 -4 -38z"/>
</g>
</svg>
