<?xml version="1.0" standalone="no"?>
<!DOCTYPE svg PUBLIC "-//W3C//DTD SVG 20010904//EN"
 "http://www.w3.org/TR/2001/REC-SVG-20010904/DTD/svg10.dtd">
<svg version="1.0" xmlns="http://www.w3.org/2000/svg"
 width="1600.000000pt" height="1600.000000pt" viewBox="0 0 1600.000000 1600.000000"
 preserveAspectRatio="xMidYMid meet">
<metadata>
Created by potrace 1.14, written by Peter Selinger 2001-2017
</metadata>
<g transform="translate(0.000000,1600.000000) scale(0.100000,-0.100000)"
fill="#000000" stroke="none">
<path d="M7915 10611 c-82 -4 -144 -8 -137 -9 6 -1 12 -6 12 -12 0 -13 -27
-13 -32 0 -5 15 -107 13 -168 -3 -30 -8 -62 -15 -70 -15 -75 -3 -171 -16 -195
-27 -31 -14 -58 -20 -130 -31 -22 -3 -58 -13 -80 -21 -22 -9 -61 -17 -87 -18
-26 -2 -60 -10 -75 -19 -15 -8 -54 -20 -85 -26 -31 -6 -62 -18 -68 -26 -7 -7
-25 -14 -41 -14 -15 0 -45 -12 -66 -26 -47 -31 -52 -37 -29 -28 14 5 17 4 12
-4 -9 -15 -36 -16 -36 -2 0 15 -26 12 -40 -5 -7 -8 -27 -17 -45 -21 -19 -3
-41 -15 -51 -25 -9 -10 -27 -19 -39 -19 -12 0 -30 -9 -39 -19 -10 -11 -31 -23
-46 -26 -16 -3 -34 -12 -40 -20 -6 -8 -24 -17 -40 -20 -15 -3 -36 -15 -46 -26
-9 -10 -24 -19 -31 -19 -8 0 -42 -16 -74 -35 -33 -19 -67 -35 -74 -35 -8 0
-27 -13 -43 -29 -15 -16 -38 -31 -52 -32 -33 -5 -29 -22 8 -33 21 -6 39 -4 60
7 16 8 61 20 98 26 38 7 89 19 114 26 25 8 70 17 100 21 89 11 183 41 174 55
-3 5 0 9 5 9 6 0 11 -4 11 -10 0 -15 67 -12 98 4 25 12 89 22 207 31 28 2 66
9 85 15 44 13 345 13 425 0 33 -5 110 -12 170 -15 174 -7 350 -24 379 -35 15
-5 41 -10 59 -10 42 0 144 -19 187 -36 19 -7 76 -15 125 -17 50 -3 107 -12
127 -21 22 -9 75 -17 131 -20 61 -2 102 -9 118 -19 14 -8 57 -17 102 -20 43
-3 88 -12 100 -20 12 -8 47 -17 77 -20 71 -7 99 -14 116 -28 8 -7 40 -14 72
-16 31 -3 71 -10 87 -17 31 -14 125 -36 151 -36 9 0 12 5 9 10 -3 6 -1 10 5
10 7 0 10 -6 7 -14 -3 -7 0 -19 6 -25 14 -14 81 -15 72 -1 -3 6 -1 10 4 10 6
0 11 -6 11 -13 0 -17 62 -43 121 -51 26 -4 55 -13 65 -21 11 -8 30 -15 43 -15
14 0 43 -9 65 -19 23 -10 52 -21 66 -24 59 -12 74 -17 79 -26 3 -5 31 -15 61
-24 30 -8 70 -21 88 -28 28 -12 34 -12 43 1 9 13 10 12 5 -2 -4 -13 0 -18 13
-18 10 0 24 -7 31 -15 7 -8 23 -15 35 -15 27 0 91 -26 100 -40 3 -5 21 -10 40
-10 19 0 37 -5 40 -11 7 -11 33 -22 78 -33 19 -4 26 -3 22 4 -3 5 -1 10 4 10
6 0 11 -7 11 -15 0 -17 30 -35 58 -35 11 0 30 -8 43 -18 13 -10 45 -24 71 -32
26 -7 53 -19 59 -26 6 -8 24 -14 39 -14 15 0 37 -9 49 -19 12 -11 40 -22 61
-26 21 -4 46 -15 56 -26 9 -10 29 -19 44 -19 15 0 39 -9 53 -20 14 -11 33 -20
43 -20 15 0 87 -30 154 -65 14 -7 39 -16 56 -19 18 -4 40 -16 50 -27 9 -10 27
-19 39 -19 12 0 30 -9 40 -20 10 -11 30 -20 45 -20 16 0 35 -10 48 -25 12 -14
30 -25 40 -25 11 0 27 -9 37 -20 10 -11 29 -20 42 -20 12 0 32 -9 43 -20 11
-11 29 -20 40 -20 10 0 30 -11 44 -25 14 -14 34 -25 44 -25 11 0 25 -7 32 -15
7 -8 20 -15 30 -15 9 0 25 -9 35 -20 10 -11 24 -20 31 -20 7 0 26 -11 42 -25
17 -14 39 -25 49 -25 11 0 30 -11 43 -25 13 -14 34 -25 47 -25 13 0 23 -5 23
-10 0 -6 8 -14 18 -17 9 -4 34 -18 55 -32 32 -21 42 -23 58 -13 11 7 19 8 19
2 0 -5 -5 -10 -12 -10 -6 0 -3 -9 7 -20 10 -11 26 -20 35 -20 9 0 27 -11 40
-25 13 -14 31 -25 41 -25 9 0 22 -7 29 -15 7 -8 18 -15 25 -15 7 0 23 -11 36
-23 29 -29 68 -40 86 -25 9 7 13 7 13 -1 0 -6 -4 -11 -10 -11 -20 0 -9 -17 23
-34 17 -9 46 -24 62 -33 17 -9 36 -25 43 -35 7 -10 19 -18 27 -18 13 0 74 -36
104 -62 15 -13 60 -39 96 -56 11 -5 29 -19 39 -31 11 -11 23 -21 27 -21 4 0
29 -15 54 -32 26 -18 65 -43 88 -54 l42 -22 38 30 c20 17 51 49 67 73 16 24
35 45 42 48 11 3 11 9 0 26 -7 11 -8 21 -3 21 5 0 11 -6 14 -12 2 -8 38 23 83
71 160 169 499 500 547 534 15 11 17 19 10 47 -9 35 -13 39 -83 69 -25 10 -56
29 -69 40 -13 12 -32 21 -41 21 -9 0 -25 9 -35 20 -10 11 -23 20 -30 20 -6 0
-26 11 -45 25 -19 14 -42 25 -52 25 -10 0 -26 9 -35 20 -10 11 -23 20 -30 20
-16 0 -90 38 -122 62 -13 10 -31 18 -41 18 -9 0 -25 9 -35 20 -19 21 -55 27
-55 10 0 -5 -5 -10 -11 -10 -6 0 -9 6 -6 14 7 17 -18 41 -53 51 -14 4 -36 16
-49 26 -13 11 -30 19 -38 19 -8 0 -26 9 -40 20 -14 11 -32 20 -39 20 -7 0 -34
11 -60 25 -26 14 -53 25 -59 25 -7 0 -18 7 -25 15 -7 8 -20 15 -30 15 -9 0
-34 11 -54 25 -38 26 -76 33 -76 15 0 -6 -8 -10 -17 -8 -20 3 -43 22 -43 34 0
5 5 3 12 -4 7 -7 19 -12 27 -12 11 0 10 4 -4 20 -10 11 -28 20 -41 20 -12 0
-35 11 -51 24 -15 12 -34 21 -41 18 -8 -2 -27 5 -43 17 -15 11 -34 21 -41 21
-7 0 -31 11 -53 25 -22 13 -49 25 -59 25 -11 0 -34 11 -52 25 -18 14 -44 25
-57 25 -14 0 -30 7 -37 15 -7 8 -22 15 -34 15 -11 0 -39 11 -61 25 -22 13 -47
25 -56 25 -9 0 -27 8 -40 19 -13 10 -40 22 -59 26 -19 4 -42 14 -51 22 -9 8
-31 16 -49 18 -18 3 -40 11 -50 20 -9 8 -23 15 -32 15 -8 0 -36 11 -62 25 -26
14 -56 25 -66 25 -10 0 -40 11 -66 25 -26 14 -57 25 -69 25 -13 0 -25 6 -28
14 -3 7 -24 16 -48 19 -23 3 -55 15 -70 26 -16 12 -40 21 -55 21 -14 0 -38 8
-52 19 -32 22 -102 37 -102 21 0 -5 -5 -10 -11 -10 -6 0 -9 6 -6 14 8 21 -11
33 -62 40 -24 3 -51 12 -60 20 -19 16 -91 29 -91 15 0 -5 -5 -9 -11 -9 -6 0
-9 5 -7 12 5 15 -53 48 -84 48 -12 0 -42 8 -67 17 -33 13 -46 14 -49 5 -2 -7
-8 -12 -14 -12 -6 0 -8 7 -5 15 5 10 -4 16 -31 21 -20 3 -47 12 -59 20 -12 8
-33 14 -45 14 -30 1 -107 22 -135 38 -12 6 -41 12 -65 12 -24 0 -60 8 -80 19
-20 10 -69 21 -108 25 -39 4 -87 14 -108 23 -20 9 -51 15 -67 14 -17 -1 -56
10 -88 24 -44 19 -80 27 -145 30 -101 4 -133 8 -150 19 -7 4 -17 4 -22 1 -6
-4 -18 -1 -26 6 -10 9 -62 14 -162 15 -161 4 -181 5 -292 24 -89 14 -120 15
-665 22 -231 3 -487 2 -570 -1z m722 -17 c-3 -3 -12 -4 -19 -1 -8 3 -5 6 6 6
11 1 17 -2 13 -5z m-907 -8 c0 -3 -4 -8 -10 -11 -5 -3 -10 -1 -10 4 0 6 5 11
10 11 6 0 10 -2 10 -4z m1320 -16 c0 -5 -4 -10 -10 -10 -5 0 -10 5 -10 10 0 6
5 10 10 10 6 0 10 -4 10 -10z m-1440 -10 c0 -5 -4 -10 -10 -10 -5 0 -10 5 -10
10 0 6 5 10 10 10 6 0 10 -4 10 -10z m-120 -10 c0 -5 -4 -10 -10 -10 -5 0 -10
5 -10 10 0 6 5 10 10 10 6 0 10 -4 10 -10z m1860 0 c0 -5 -4 -10 -10 -10 -5 0
-10 5 -10 10 0 6 5 10 10 10 6 0 10 -4 10 -10z m-1970 -20 c0 -5 -4 -10 -10
-10 -5 0 -10 5 -10 10 0 6 5 10 10 10 6 0 10 -4 10 -10z m-120 -20 c0 -5 -5
-10 -11 -10 -5 0 -7 5 -4 10 3 6 8 10 11 10 2 0 4 -4 4 -10z m2327 4 c-3 -3
-12 -4 -19 -1 -8 3 -5 6 6 6 11 1 17 -2 13 -5z m123 -4 c0 -5 -4 -10 -10 -10
-5 0 -10 5 -10 10 0 6 5 10 10 10 6 0 10 -4 10 -10z m-2524 -25 c-21 -16 -32
-13 -21 4 3 6 14 11 23 11 15 -1 15 -2 -2 -15z m-56 -15 c0 -5 -4 -10 -10 -10
-5 0 -10 5 -10 10 0 6 5 10 10 10 6 0 10 -4 10 -10z m2925 -20 c3 -5 1 -10 -4
-10 -6 0 -11 5 -11 10 0 6 2 10 4 10 3 0 8 -4 11 -10z m80 -20 c3 -5 1 -10 -4
-10 -6 0 -11 5 -11 10 0 6 2 10 4 10 3 0 8 -4 11 -10z m65 -10 c0 -5 -4 -10
-10 -10 -5 0 -10 5 -10 10 0 6 5 10 10 10 6 0 10 -4 10 -10z m-3330 -10 c0 -5
-4 -10 -10 -10 -5 0 -10 5 -10 10 0 6 5 10 10 10 6 0 10 -4 10 -10z m3460 -30
c0 -5 -4 -10 -10 -10 -5 0 -10 5 -10 10 0 6 5 10 10 10 6 0 10 -4 10 -10z m80
-10 c0 -5 -4 -10 -10 -10 -5 0 -10 5 -10 10 0 6 5 10 10 10 6 0 10 -4 10 -10z
m-3670 -20 c0 -5 -4 -10 -10 -10 -5 0 -10 5 -10 10 0 6 5 10 10 10 6 0 10 -4
10 -10z m3780 -10 c0 -5 -4 -10 -10 -10 -5 0 -10 5 -10 10 0 6 5 10 10 10 6 0
10 -4 10 -10z m40 -4 c0 -3 -4 -8 -10 -11 -5 -3 -10 -1 -10 4 0 6 5 11 10 11
6 0 10 -2 10 -4z m30 -16 c0 -5 -4 -10 -10 -10 -5 0 -10 5 -10 10 0 6 5 10 10
10 6 0 10 -4 10 -10z m50 -20 c0 -5 -4 -10 -10 -10 -5 0 -10 5 -10 10 0 6 5
10 10 10 6 0 10 -4 10 -10z m-4060 -10 c0 -5 -4 -10 -10 -10 -5 0 -10 5 -10
10 0 6 5 10 10 10 6 0 10 -4 10 -10z m4135 0 c3 -5 1 -10 -4 -10 -6 0 -11 5
-11 10 0 6 2 10 4 10 3 0 8 -4 11 -10z m115 -40 c0 -5 -4 -10 -10 -10 -5 0
-10 5 -10 10 0 6 5 10 10 10 6 0 10 -4 10 -10z m-3770 -70 c0 -5 -11 -10 -25
-10 -14 0 -25 5 -25 10 0 6 11 10 25 10 14 0 25 -4 25 -10z m220 0 c0 -5 -16
-10 -35 -10 -19 0 -35 5 -35 10 0 6 16 10 35 10 19 0 35 -4 35 -10z m230 -10
c0 -5 -4 -10 -10 -10 -5 0 -10 5 -10 10 0 6 5 10 10 10 6 0 10 -4 10 -10z
m3640 -20 c0 -5 -4 -10 -10 -10 -5 0 -10 5 -10 10 0 6 5 10 10 10 6 0 10 -4
10 -10z m-4390 -10 c0 -5 -4 -10 -10 -10 -5 0 -10 5 -10 10 0 6 5 10 10 10 6
0 10 -4 10 -10z m970 0 c0 -5 -4 -10 -10 -10 -5 0 -10 5 -10 10 0 6 5 10 10
10 6 0 10 -4 10 -10z m160 -10 c0 -5 -4 -10 -10 -10 -5 0 -10 5 -10 10 0 6 5
10 10 10 6 0 10 -4 10 -10z m100 -10 c0 -5 -4 -10 -10 -10 -5 0 -10 5 -10 10
0 6 5 10 10 10 6 0 10 -4 10 -10z m3270 -11 c0 -5 5 -7 10 -4 6 3 10 1 10 -4
0 -13 -3 -13 -24 -5 -18 7 -22 24 -6 24 6 0 10 -5 10 -11z m-3155 -9 c3 -5 1
-10 -4 -10 -6 0 -11 5 -11 10 0 6 2 10 4 10 3 0 8 -4 11 -10z m-1675 -18 c0
-4 -9 -8 -20 -9 -11 -1 -18 2 -15 8 7 11 35 12 35 1z m1830 -2 c0 -5 -4 -10
-10 -10 -5 0 -10 5 -10 10 0 6 5 10 10 10 6 0 10 -4 10 -10z m130 -30 c0 -5
-4 -10 -10 -10 -5 0 -10 5 -10 10 0 6 5 10 10 10 6 0 10 -4 10 -10z m-2160
-10 c0 -5 -4 -10 -10 -10 -5 0 -10 5 -10 10 0 6 5 10 10 10 6 0 10 -4 10 -10z
m2280 -11 c0 -4 -7 -6 -15 -3 -8 4 -15 10 -15 15 0 4 7 6 15 3 8 -4 15 -10 15
-15z m250 -49 c0 -5 -4 -10 -10 -10 -5 0 -10 5 -10 10 0 6 5 10 10 10 6 0 10
-4 10 -10z m2900 -30 c0 -5 -4 -10 -10 -10 -5 0 -10 5 -10 10 0 6 5 10 10 10
6 0 10 -4 10 -10z m50 -10 c8 -5 12 -12 9 -15 -8 -8 -39 5 -39 16 0 11 11 11
30 -1z m-2660 -20 c0 -5 -4 -10 -10 -10 -5 0 -10 5 -10 10 0 6 5 10 10 10 6 0
10 -4 10 -10z m60 -20 c0 -5 -4 -10 -10 -10 -5 0 -10 5 -10 10 0 6 5 10 10 10
6 0 10 -4 10 -10z m230 -60 c0 -5 -2 -10 -4 -10 -3 0 -8 5 -11 10 -3 6 -1 10
4 10 6 0 11 -4 11 -10z m100 -20 c0 -5 -4 -10 -10 -10 -5 0 -10 5 -10 10 0 6
5 10 10 10 6 0 10 -4 10 -10z m65 -20 c3 -5 1 -10 -4 -10 -6 0 -11 5 -11 10 0
6 2 10 4 10 3 0 8 -4 11 -10z m2535 0 c0 -5 -5 -10 -11 -10 -5 0 -7 5 -4 10 3
6 8 10 11 10 2 0 4 -4 4 -10z m-2360 -50 c0 -5 -4 -10 -10 -10 -5 0 -10 5 -10
10 0 6 5 10 10 10 6 0 10 -4 10 -10z m150 -50 c8 -5 12 -12 9 -15 -8 -8 -39 5
-39 16 0 11 11 11 30 -1z m2420 0 c0 -5 -4 -10 -10 -10 -5 0 -10 5 -10 10 0 6
5 10 10 10 6 0 10 -4 10 -10z m-2290 -50 c0 -5 -4 -10 -10 -10 -5 0 -10 5 -10
10 0 6 5 10 10 10 6 0 10 -4 10 -10z m60 -20 c0 -5 -4 -10 -10 -10 -5 0 -10 5
-10 10 0 6 5 10 10 10 6 0 10 -4 10 -10z m2510 -50 c0 -5 -4 -10 -9 -10 -6 0
-13 5 -16 10 -3 6 1 10 9 10 9 0 16 -4 16 -10z m-2310 -20 c0 -5 -4 -10 -10
-10 -5 0 -10 5 -10 10 0 6 5 10 10 10 6 0 10 -4 10 -10z m2390 -20 c0 -5 -4
-10 -10 -10 -5 0 -10 5 -10 10 0 6 5 10 10 10 6 0 10 -4 10 -10z m-2290 -10
c0 -5 -4 -10 -10 -10 -5 0 -10 5 -10 10 0 6 5 10 10 10 6 0 10 -4 10 -10z
m2320 0 c0 -5 -4 -10 -10 -10 -5 0 -10 5 -10 10 0 6 5 10 10 10 6 0 10 -4 10
-10z m-2230 -40 c0 -5 -4 -10 -10 -10 -5 0 -10 5 -10 10 0 6 5 10 10 10 6 0
10 -4 10 -10z m2380 -30 c0 -5 -4 -10 -10 -10 -5 0 -10 5 -10 10 0 6 5 10 10
10 6 0 10 -4 10 -10z m-2250 -20 c0 -5 -4 -10 -10 -10 -5 0 -10 5 -10 10 0 6
5 10 10 10 6 0 10 -4 10 -10z m2300 0 c0 -5 -4 -10 -10 -10 -5 0 -10 5 -10 10
0 6 5 10 10 10 6 0 10 -4 10 -10z m250 -120 c0 -5 -4 -10 -10 -10 -5 0 -10 5
-10 10 0 6 5 10 10 10 6 0 10 -4 10 -10z m70 -40 c0 -5 -2 -10 -4 -10 -3 0 -8
5 -11 10 -3 6 -1 10 4 10 6 0 11 -4 11 -10z m-2140 -41 c0 -4 -7 -6 -15 -3 -8
4 -15 10 -15 15 0 4 7 6 15 3 8 -4 15 -10 15 -15z m40 -19 c0 -5 -4 -10 -10
-10 -5 0 -10 5 -10 10 0 6 5 10 10 10 6 0 10 -4 10 -10z m2260 -10 c0 -5 -4
-10 -10 -10 -5 0 -10 5 -10 10 0 6 5 10 10 10 6 0 10 -4 10 -10z m110 -60 c0
-5 -4 -10 -10 -10 -5 0 -10 5 -10 10 0 6 5 10 10 10 6 0 10 -4 10 -10z m-2159
-10 c28 -16 23 -32 -6 -18 -14 6 -25 15 -25 20 0 11 7 10 31 -2z m69 -40 c0
-5 -2 -10 -4 -10 -3 0 -8 5 -11 10 -3 6 -1 10 4 10 6 0 11 -4 11 -10z m2175 0
c3 -5 1 -10 -4 -10 -6 0 -11 5 -11 10 0 6 2 10 4 10 3 0 8 -4 11 -10z m40 -20
c3 -5 1 -10 -4 -10 -6 0 -11 5 -11 10 0 6 2 10 4 10 3 0 8 -4 11 -10z m-2105
-30 c0 -5 -4 -10 -10 -10 -5 0 -10 5 -10 10 0 6 5 10 10 10 6 0 10 -4 10 -10z
m2210 -24 c0 -3 -4 -8 -10 -11 -5 -3 -10 -1 -10 4 0 6 5 11 10 11 6 0 10 -2
10 -4z m-2020 -76 c0 -5 -5 -10 -11 -10 -5 0 -7 5 -4 10 3 6 8 10 11 10 2 0 4
-4 4 -10z m2280 -70 c0 -5 -4 -10 -10 -10 -5 0 -10 5 -10 10 0 6 5 10 10 10 6
0 10 -4 10 -10z m-2080 -41 c0 -6 -4 -7 -10 -4 -5 3 -10 11 -10 16 0 6 5 7 10
4 6 -3 10 -11 10 -16z m2095 -31 c-14 -11 -29 -18 -32 -15 -8 9 7 27 23 27 8
0 14 5 14 11 0 5 5 7 10 4 6 -4 0 -15 -15 -27z m-45 -38 c0 -5 -4 -10 -10 -10
-5 0 -10 5 -10 10 0 6 5 10 10 10 6 0 10 -4 10 -10z m-1880 -20 c0 -5 -4 -10
-10 -10 -5 0 -10 5 -10 10 0 6 5 10 10 10 6 0 10 -4 10 -10z m1820 -40 c0 -5
-4 -10 -10 -10 -5 0 -10 5 -10 10 0 6 5 10 10 10 6 0 10 -4 10 -10z m-1670
-50 c0 -5 -4 -10 -10 -10 -5 0 -10 5 -10 10 0 6 5 10 10 10 6 0 10 -4 10 -10z
m1610 -10 c0 -5 -2 -10 -4 -10 -3 0 -8 5 -11 10 -3 6 -1 10 4 10 6 0 11 -4 11
-10z m-1580 -10 c0 -5 -4 -10 -10 -10 -5 0 -10 5 -10 10 0 6 5 10 10 10 6 0
10 -4 10 -10z m130 -70 c0 -5 -5 -10 -11 -10 -5 0 -7 5 -4 10 3 6 8 10 11 10
2 0 4 -4 4 -10z m150 -91 c0 -5 5 -7 10 -4 6 3 10 1 10 -4 0 -13 -3 -13 -24
-5 -18 7 -22 24 -6 24 6 0 10 -5 10 -11z m1010 -115 c0 -10 -52 -56 -57 -50
-3 2 6 16 18 30 24 24 39 32 39 20z m-600 -144 c0 -5 -4 -10 -10 -10 -5 0 -10
5 -10 10 0 6 5 10 10 10 6 0 10 -4 10 -10z m470 0 c0 -5 -4 -10 -10 -10 -5 0
-10 5 -10 10 0 6 5 10 10 10 6 0 10 -4 10 -10z m-110 -120 c0 -5 -4 -10 -10
-10 -5 0 -10 5 -10 10 0 6 5 10 10 10 6 0 10 -4 10 -10z m-125 -30 c3 -5 -1
-10 -9 -10 -9 0 -16 5 -16 10 0 6 4 10 9 10 6 0 13 -4 16 -10z m95 0 c0 -5 -4
-10 -10 -10 -5 0 -10 5 -10 10 0 6 5 10 10 10 6 0 10 -4 10 -10z"/>
<path d="M7010 9837 c-3 -2 -43 -7 -90 -11 -47 -3 -112 -11 -145 -16 -33 -6
-123 -14 -200 -18 -77 -4 -149 -13 -160 -19 -27 -15 -144 -32 -177 -26 -14 3
-61 -5 -104 -17 -43 -12 -101 -23 -129 -24 -27 -1 -60 -7 -73 -14 -32 -18 -59
-25 -113 -27 -25 -1 -67 -12 -93 -24 -30 -15 -58 -21 -78 -19 -20 3 -47 -3
-77 -18 -27 -14 -64 -24 -89 -24 -29 0 -53 -7 -69 -20 -16 -12 -41 -20 -67
-20 -26 -1 -56 -10 -81 -25 -24 -15 -55 -25 -77 -25 -23 0 -51 -10 -75 -26
-23 -15 -47 -24 -60 -21 -14 2 -32 -4 -45 -15 -15 -12 -30 -17 -45 -13 -17 4
-37 -4 -69 -25 -31 -22 -51 -29 -65 -25 -14 5 -28 0 -43 -14 -13 -12 -41 -24
-62 -28 -21 -3 -49 -14 -61 -25 -13 -13 -28 -18 -41 -14 -13 5 -30 -2 -50 -19
-16 -14 -45 -28 -64 -32 -18 -3 -44 -14 -57 -25 -13 -10 -34 -18 -46 -18 -12
0 -28 -7 -35 -15 -7 -8 -25 -15 -40 -15 -15 0 -35 -9 -45 -20 -10 -11 -31 -20
-46 -20 -18 0 -34 -8 -41 -20 -8 -12 -24 -20 -41 -20 -19 0 -36 -9 -49 -25
-13 -16 -29 -25 -48 -25 -19 0 -33 -7 -40 -20 -7 -13 -21 -20 -39 -20 -17 0
-36 -9 -48 -24 -14 -16 -29 -23 -41 -20 -13 4 -24 -3 -36 -20 -11 -18 -25 -26
-46 -26 -19 0 -33 -7 -40 -20 -7 -13 -21 -20 -39 -20 -20 0 -34 -8 -45 -25
-10 -15 -26 -25 -41 -25 -14 0 -29 -8 -35 -20 -6 -11 -15 -20 -21 -20 -22 0
-117 -49 -122 -64 -4 -9 -16 -16 -27 -16 -11 0 -28 -8 -39 -19 -10 -10 -43
-30 -74 -45 -31 -14 -61 -35 -67 -46 -6 -11 -20 -20 -31 -20 -11 0 -41 -17
-67 -39 -26 -21 -59 -41 -74 -45 -16 -3 -28 -10 -28 -15 0 -11 -86 -71 -101
-71 -5 0 -19 -11 -31 -25 -12 -14 -27 -25 -34 -25 -7 0 -19 -8 -26 -17 -7 -10
-34 -28 -61 -40 -27 -13 -52 -34 -59 -48 -6 -14 -20 -25 -30 -25 -10 0 -21 -7
-24 -15 -4 -8 -15 -15 -25 -15 -10 0 -28 -13 -41 -30 -12 -16 -26 -30 -31 -30
-5 0 -28 -16 -51 -35 -24 -19 -48 -35 -53 -35 -6 0 -17 -7 -24 -16 -7 -9 -23
-20 -36 -25 -13 -5 -23 -15 -23 -23 0 -9 -9 -20 -21 -27 -33 -17 -188 -139
-196 -154 -5 -7 -48 -45 -98 -85 -49 -39 -91 -76 -93 -81 -2 -5 -9 -9 -14 -9
-12 0 -77 -59 -137 -124 -20 -21 -42 -44 -49 -50 -7 -6 -79 -75 -160 -154
-116 -113 -144 -145 -132 -152 20 -13 26 -12 40 5 7 8 23 15 36 15 14 0 30 10
40 25 9 15 26 25 39 25 13 0 30 10 39 25 9 14 25 25 35 25 10 0 24 7 31 15 7
8 18 15 26 15 7 0 28 14 46 30 18 17 39 30 48 30 9 0 23 9 33 20 9 11 23 20
31 20 7 0 19 6 25 14 7 8 26 18 42 21 16 4 29 12 29 18 0 11 87 57 108 57 5 0
17 11 26 25 9 14 29 28 44 31 15 4 35 15 45 25 10 11 24 19 31 19 8 0 19 6 25
14 6 7 24 16 40 19 17 4 30 14 34 26 3 14 13 21 29 21 14 0 34 11 46 25 12 14
31 25 42 25 11 0 23 7 26 15 4 8 16 15 29 15 13 0 30 10 39 25 10 15 26 25 40
25 13 0 26 7 29 15 6 15 81 55 103 55 7 0 21 10 31 23 10 13 31 27 48 31 16 4
35 16 43 27 7 10 21 19 31 19 10 0 31 11 47 25 16 14 36 25 45 25 9 0 22 7 29
15 7 8 21 15 31 15 10 0 24 8 31 18 7 10 26 22 43 26 16 4 35 16 43 27 7 10
23 19 36 19 12 0 33 11 46 25 13 14 33 25 45 25 11 0 28 9 38 20 9 11 26 20
37 20 10 0 27 8 37 19 10 10 31 21 47 25 16 4 41 16 54 27 14 10 31 19 39 19
8 0 26 9 40 20 14 11 32 20 40 20 8 0 26 9 40 20 14 11 35 20 47 20 12 0 28 9
36 20 9 13 26 20 45 20 21 0 40 9 55 25 14 15 35 25 51 25 14 0 32 7 39 15 7
8 24 15 37 15 14 0 38 11 55 25 18 16 42 25 62 25 20 0 40 8 51 20 10 11 31
20 46 20 16 0 45 11 65 25 20 14 49 25 64 25 15 0 35 9 46 21 13 14 25 18 42
14 17 -4 36 2 63 21 28 19 45 25 64 20 18 -5 36 1 63 19 23 15 50 24 72 24 21
-1 54 9 82 26 28 16 59 25 76 24 15 -2 46 5 67 16 22 10 67 21 100 23 33 2 68
11 77 19 10 9 43 16 85 19 37 2 95 13 128 25 38 13 83 21 125 21 38 0 90 8
125 20 47 15 95 21 222 23 89 3 190 9 225 14 89 14 755 22 863 11 50 -6 126
-15 170 -21 44 -6 87 -10 95 -8 55 7 171 -3 224 -20 34 -11 87 -19 121 -18 38
0 86 -8 129 -23 37 -12 94 -23 126 -25 34 -1 69 -9 84 -18 15 -10 46 -17 76
-17 31 0 73 -9 108 -24 36 -15 76 -24 106 -24 37 1 52 -3 62 -17 11 -14 25
-18 58 -16 30 1 56 -5 82 -20 22 -13 66 -26 98 -30 38 -5 62 -13 68 -23 6 -11
23 -16 54 -16 31 0 56 -7 77 -22 17 -13 42 -21 54 -20 13 2 38 -4 56 -14 17
-9 54 -20 81 -25 27 -4 59 -17 71 -29 15 -14 35 -20 66 -20 33 0 47 -5 57 -20
8 -14 23 -20 47 -20 37 0 85 -18 85 -32 0 -4 17 -8 39 -8 24 0 51 -9 75 -25
20 -14 49 -25 65 -25 15 0 42 -11 61 -25 23 -17 41 -23 57 -19 16 5 31 0 46
-14 12 -11 41 -23 63 -27 23 -3 51 -15 62 -26 12 -10 34 -19 50 -19 16 0 35
-7 42 -15 6 -7 32 -17 56 -21 24 -3 55 -15 68 -25 13 -11 35 -19 49 -19 14 0
39 -11 55 -25 20 -16 42 -25 66 -25 25 0 38 -6 46 -20 8 -14 21 -20 45 -20 24
0 39 -6 47 -20 7 -11 24 -20 38 -20 14 0 34 -6 45 -14 11 -7 32 -16 47 -20 14
-3 40 -17 56 -31 17 -14 42 -25 56 -25 14 0 34 -9 43 -20 10 -12 30 -20 48
-20 19 0 35 -7 43 -20 8 -13 23 -20 42 -20 18 0 37 -8 47 -20 10 -11 28 -20
41 -20 12 0 33 -11 46 -25 13 -14 32 -25 43 -25 11 0 30 -9 43 -20 13 -11 31
-20 42 -20 10 0 28 -11 40 -25 12 -14 32 -25 44 -25 13 0 29 -9 36 -19 8 -11
26 -23 41 -26 15 -4 30 -11 33 -16 3 -5 13 -9 23 -9 10 0 26 -9 36 -20 10 -11
25 -20 33 -20 8 0 30 -11 48 -25 18 -14 38 -25 44 -25 6 0 22 -11 35 -24 13
-14 34 -28 47 -32 12 -3 28 -13 36 -20 7 -8 20 -14 28 -14 15 0 19 -27 6 -46
-4 -6 -17 -14 -29 -18 -12 -4 -25 -15 -28 -24 -5 -15 -133 -117 -183 -147 -9
-6 -36 -29 -59 -53 -23 -23 -47 -42 -52 -42 -5 0 -16 -8 -23 -17 -7 -10 -20
-22 -29 -28 -73 -46 -129 -91 -134 -106 -4 -11 -18 -25 -33 -33 -15 -8 -43
-27 -63 -43 -20 -15 -47 -35 -60 -43 -13 -8 -37 -30 -54 -47 -17 -18 -35 -33
-39 -33 -5 0 -25 -13 -46 -30 -21 -16 -42 -30 -47 -30 -5 0 -23 -16 -40 -35
-17 -19 -38 -35 -47 -35 -9 0 -16 -4 -16 -10 0 -5 -11 -12 -25 -16 -14 -3 -30
-15 -35 -25 -10 -18 -41 -38 -92 -59 -15 -6 -34 -22 -43 -36 -8 -13 -21 -24
-28 -24 -22 0 -91 -37 -109 -59 -10 -12 -27 -21 -39 -21 -12 0 -30 -12 -41
-26 -15 -19 -27 -24 -44 -20 -17 5 -26 1 -34 -14 -6 -11 -21 -20 -34 -20 -12
0 -32 -11 -44 -25 -12 -14 -27 -25 -34 -25 -20 0 -94 -39 -113 -60 -10 -11
-26 -20 -35 -20 -9 0 -27 -11 -40 -25 -13 -14 -33 -25 -45 -25 -11 0 -28 -9
-38 -20 -9 -11 -26 -20 -38 -20 -11 0 -35 -11 -53 -25 -18 -14 -40 -25 -50
-25 -9 0 -19 -7 -22 -15 -4 -9 -19 -15 -36 -15 -18 0 -43 -11 -60 -25 -18 -15
-37 -23 -47 -20 -11 3 -26 -5 -39 -20 -17 -19 -28 -24 -47 -19 -18 4 -33 -1
-56 -20 -19 -16 -43 -26 -63 -26 -19 0 -43 -9 -56 -20 -14 -12 -37 -20 -61
-20 -21 0 -59 -11 -85 -25 -26 -14 -61 -25 -78 -25 -18 0 -50 -9 -71 -20 -23
-12 -56 -20 -76 -18 -22 1 -50 -7 -73 -20 -24 -14 -54 -22 -84 -22 -29 0 -57
-7 -72 -17 -30 -21 -39 -23 -109 -28 -33 -3 -61 -11 -73 -22 -14 -12 -38 -18
-77 -20 -37 -1 -73 -10 -99 -23 -23 -12 -64 -23 -91 -24 -27 -1 -57 -8 -65
-15 -13 -11 -48 -23 -104 -35 -18 -3 -19 -18 -2 -26 8 -4 25 -12 38 -19 17 -9
27 -9 37 -1 9 8 116 10 348 9 184 -1 340 1 346 5 23 15 185 44 203 37 13 -5
47 2 92 16 44 15 86 22 111 20 24 -2 54 3 75 13 51 25 126 43 150 37 12 -3 45
6 75 19 35 16 66 24 87 21 22 -3 50 5 82 22 33 17 64 25 93 24 24 -1 43 2 43
6 0 14 50 31 88 31 20 0 51 9 67 20 17 11 52 23 78 26 27 4 54 13 62 20 7 8
35 19 62 25 26 7 66 21 89 31 22 10 50 18 63 18 12 0 29 7 37 15 9 8 30 15 48
15 18 0 43 9 55 19 23 20 78 37 88 27 3 -3 19 6 35 19 18 16 42 25 62 25 20 0
40 8 51 20 10 11 31 20 46 20 16 0 45 11 65 25 21 14 51 25 70 25 24 0 34 5
34 15 0 11 11 15 38 15 26 0 45 7 57 20 10 11 28 20 40 20 12 0 32 12 46 26
14 15 31 23 42 20 11 -3 23 4 33 20 11 16 26 24 44 24 15 0 35 9 45 20 10 11
29 20 41 20 14 0 30 10 40 25 11 17 26 25 44 25 15 0 35 9 45 20 10 11 28 20
41 20 13 0 29 8 36 19 7 10 27 21 44 25 18 4 40 16 50 27 9 10 27 19 39 19 12
0 30 9 39 19 10 11 31 23 47 26 16 4 29 10 29 15 0 10 98 60 117 60 7 0 20 11
29 25 10 16 26 25 41 25 15 0 33 10 45 25 11 14 30 25 43 25 12 0 28 7 35 15
7 8 37 27 69 41 31 15 62 35 69 45 7 11 24 19 37 19 14 0 29 9 35 20 6 11 19
20 29 20 10 0 28 9 41 20 13 11 29 20 35 20 7 0 20 11 29 25 9 14 25 25 35 25
10 0 24 7 31 15 7 8 18 15 26 15 7 0 22 13 34 30 12 17 28 30 35 30 8 0 17 9
20 20 3 11 13 20 21 20 9 0 33 18 55 40 22 22 43 40 47 40 4 0 36 27 72 60 36
33 68 60 72 60 4 0 14 14 23 30 9 17 20 30 25 30 9 0 18 7 71 55 9 8 20 15 25
15 5 0 16 9 24 20 8 11 20 20 27 20 6 0 21 13 33 29 11 17 28 33 38 36 9 3 27
19 39 35 l23 28 -68 65 c-153 148 -176 168 -198 173 -12 3 -25 12 -28 20 -3 8
-11 14 -19 14 -7 0 -22 12 -34 28 -11 15 -42 38 -69 51 -27 13 -53 30 -57 38
-4 7 -14 13 -21 13 -7 0 -21 9 -31 20 -10 11 -27 20 -38 20 -10 0 -28 11 -38
24 -20 25 -72 56 -94 56 -7 0 -23 11 -36 25 -13 13 -33 25 -45 25 -11 0 -30
11 -42 25 -12 14 -30 25 -40 25 -10 0 -29 11 -42 25 -13 14 -28 25 -34 25 -19
0 -98 43 -103 56 -3 8 -18 14 -34 14 -19 0 -34 8 -45 25 -10 15 -26 25 -40 25
-13 0 -34 11 -48 25 -14 14 -34 25 -44 25 -10 0 -27 9 -37 20 -10 11 -30 20
-44 20 -15 0 -31 8 -39 20 -7 11 -23 20 -36 20 -13 0 -29 7 -36 15 -7 8 -20
15 -29 15 -10 0 -27 9 -39 20 -12 11 -35 23 -51 26 -16 4 -40 17 -52 30 -13
14 -34 24 -51 24 -17 0 -33 8 -40 20 -8 12 -24 20 -39 20 -14 0 -36 11 -49 25
-14 15 -35 25 -52 25 -17 0 -33 8 -40 20 -8 13 -24 20 -43 20 -19 0 -35 7 -43
20 -8 13 -23 20 -42 20 -19 0 -34 7 -42 20 -8 12 -24 20 -41 20 -16 0 -40 9
-54 20 -14 11 -37 20 -50 20 -13 0 -34 11 -47 25 -17 18 -34 25 -59 25 -26 0
-39 6 -47 20 -7 14 -21 20 -44 20 -19 0 -39 7 -46 15 -7 8 -21 15 -32 15 -24
0 -59 18 -74 38 -6 9 -25 15 -45 14 -20 0 -42 7 -54 17 -11 10 -38 21 -59 24
-21 4 -49 15 -61 27 -12 11 -35 20 -52 20 -17 0 -36 6 -42 14 -6 7 -30 16 -53
19 -22 3 -54 15 -69 26 -16 12 -41 21 -57 21 -16 0 -40 8 -53 18 -13 11 -46
22 -73 26 -27 3 -58 14 -68 23 -11 10 -32 16 -47 15 -16 -1 -44 8 -65 23 -23
16 -51 25 -74 25 -20 0 -52 9 -70 20 -18 11 -45 20 -61 20 -16 0 -54 12 -85
26 -34 15 -64 23 -76 19 -13 -4 -36 2 -63 18 -28 16 -52 23 -72 20 -20 -3 -47
4 -79 22 -30 16 -69 27 -100 29 -29 2 -68 13 -90 25 -27 15 -47 20 -67 16 -20
-5 -46 1 -84 19 -38 17 -65 23 -88 19 -22 -3 -50 3 -91 21 -37 16 -77 26 -107
26 -27 0 -72 9 -101 20 -32 12 -65 18 -83 14 -18 -3 -66 5 -120 21 -49 15
-119 28 -155 30 -57 3 -154 16 -230 31 -34 7 -594 17 -600 11z"/>
<path d="M6416 8781 c-4 -6 -30 -11 -58 -11 -39 0 -57 -6 -80 -26 -17 -14 -36
-23 -43 -20 -7 2 -23 -6 -36 -20 -12 -13 -28 -24 -35 -24 -6 0 -15 -7 -18 -16
-3 -8 -10 -12 -16 -9 -5 3 -10 0 -10 -8 0 -7 -18 -29 -41 -48 -39 -32 -70 -83
-78 -126 -1 -5 -6 -1 -11 7 -7 11 -10 3 -11 -30 -1 -25 -1 -51 0 -59 2 -7 -1
-11 -6 -8 -4 3 -7 -34 -6 -81 2 -48 3 -87 4 -87 1 0 2 -26 4 -58 2 -42 8 -64
21 -75 16 -15 15 -13 -1 8 l-20 25 21 -17 c15 -13 19 -26 16 -53 -4 -30 -2
-34 14 -28 13 5 16 3 11 -10 -4 -11 -1 -17 8 -17 8 0 15 -7 15 -15 0 -8 13
-27 30 -41 16 -15 27 -31 23 -37 -3 -6 -1 -7 5 -3 10 6 27 -10 27 -26 0 -5 3
-7 6 -5 12 4 49 -35 42 -46 -3 -6 -1 -7 5 -3 7 4 28 -9 49 -29 21 -20 53 -43
70 -50 18 -8 33 -19 33 -24 0 -6 17 -13 38 -17 20 -4 43 -12 51 -18 11 -8 13
-8 8 1 -5 9 0 9 23 0 25 -9 27 -13 13 -18 -25 -9 93 -18 232 -18 132 0 233 8
217 18 -6 3 0 11 14 18 18 8 22 8 18 0 -5 -8 -2 -7 7 1 7 6 22 12 32 12 11 0
30 10 42 23 12 12 39 33 59 47 19 14 34 31 31 37 -2 7 1 12 8 10 7 -1 11 4 9
11 -1 8 2 11 8 7 6 -4 17 9 26 30 9 22 19 33 26 29 7 -4 8 -3 4 4 -4 6 2 30
13 52 10 22 15 37 9 34 -5 -4 -4 4 2 17 16 31 25 39 17 16 -4 -10 -3 -16 2
-12 5 3 9 80 9 171 -1 93 -5 160 -9 152 -7 -10 -9 -9 -9 5 0 9 -4 17 -9 17 -5
0 -9 13 -9 28 1 15 -4 37 -10 49 -6 11 -9 22 -7 25 3 3 -4 13 -15 23 -11 10
-20 27 -20 37 0 11 -4 17 -9 14 -10 -6 -25 10 -35 38 -6 17 -4 17 11 5 16 -12
17 -11 3 3 -8 9 -39 36 -68 62 -29 25 -50 46 -46 46 3 0 1 7 -7 16 -7 8 -21
13 -30 11 -10 -3 -17 0 -16 6 1 6 -8 13 -19 15 -12 2 -32 14 -45 28 -15 16
-33 24 -55 24 -18 0 -44 4 -59 10 -19 7 -24 7 -19 -1 4 -8 -1 -9 -17 -3 -29 9
-304 8 -320 -2 -6 -3 -15 -1 -19 6 -5 9 -9 9 -14 1z m-96 -26 c0 -2 -10 -10
-22 -16 -21 -11 -22 -11 -9 4 13 16 31 23 31 12z m591 -12 c12 -16 12 -17 -1
-7 -8 6 -22 14 -30 17 -13 5 -12 6 1 6 9 1 23 -7 30 -16z m109 -63 c0 -5 -2
-10 -4 -10 -3 0 -8 5 -11 10 -3 6 -1 10 4 10 6 0 11 -4 11 -10z"/>
<path d="M4455 8257 c-16 -25 -9 -67 15 -82 6 -4 10 -24 9 -45 -2 -28 3 -45
24 -69 16 -19 27 -45 27 -61 0 -19 7 -33 19 -40 11 -5 22 -24 26 -42 4 -18 13
-40 20 -48 7 -8 23 -39 36 -67 12 -29 26 -53 29 -53 4 0 42 -47 85 -105 43
-58 82 -105 87 -105 11 0 98 -87 98 -98 0 -10 156 -132 168 -132 6 0 19 -10
29 -23 21 -26 87 -67 108 -67 8 0 22 -11 31 -25 9 -15 26 -25 39 -25 13 0 30
-10 39 -25 11 -17 26 -25 44 -25 16 0 32 -8 40 -20 7 -11 23 -20 36 -20 12 0
31 -9 41 -20 10 -11 30 -20 45 -20 15 0 35 -9 45 -20 11 -12 31 -20 50 -20 18
0 38 -7 45 -15 7 -8 27 -15 45 -15 21 0 45 -9 63 -25 19 -16 42 -25 63 -25 19
0 48 -9 64 -20 17 -11 46 -20 65 -20 19 0 57 -11 84 -24 33 -17 59 -23 81 -19
23 4 47 -2 81 -19 36 -18 66 -25 110 -25 34 -1 71 -6 83 -13 47 -25 130 -40
155 -29 17 8 29 8 44 0 11 -6 36 -11 56 -11 19 0 47 -5 63 -11 24 -10 156 -30
188 -29 6 0 231 2 500 4 410 3 499 7 545 20 30 9 67 16 82 16 15 0 38 5 51 11
18 8 30 8 46 0 23 -13 87 1 129 28 13 8 44 14 69 13 28 0 64 9 96 24 29 13 70
24 91 24 23 0 47 7 58 17 11 10 37 17 67 17 32 1 56 7 68 19 12 10 36 17 61
17 29 0 49 7 72 26 21 19 38 25 56 21 26 -5 84 20 84 36 0 4 17 7 39 7 23 0
48 8 64 20 14 11 38 20 54 20 16 0 39 9 51 20 13 12 35 20 57 20 19 0 35 5 35
10 0 6 7 10 15 10 8 0 15 7 15 15 0 11 11 15 38 15 28 0 45 7 61 24 14 15 30
22 44 19 14 -3 30 3 41 16 11 12 31 21 45 21 16 0 33 10 45 25 12 16 29 25 47
25 15 0 34 8 41 18 14 19 54 40 43 22 -3 -6 1 -7 10 -4 8 4 20 15 26 25 6 12
21 19 39 19 26 0 58 29 45 42 -2 2 10 5 28 6 18 1 37 9 43 17 18 24 83 65 103
65 21 0 35 25 24 42 -3 6 -1 8 4 5 6 -4 27 4 47 18 20 14 39 25 42 25 6 0 66
54 120 108 32 31 51 82 39 101 -3 6 -22 13 -43 17 -20 3 -46 14 -57 24 -11 10
-42 20 -68 23 -30 3 -57 13 -71 26 -13 12 -35 21 -53 21 -17 0 -36 7 -43 15
-7 8 -22 15 -35 15 -12 0 -30 9 -39 19 -10 11 -36 23 -58 26 -23 4 -49 17 -61
31 -12 14 -32 24 -47 24 -15 0 -35 9 -45 20 -11 12 -31 20 -51 20 -18 0 -34 5
-36 11 -2 6 -26 15 -53 20 -27 5 -58 18 -70 29 -14 13 -35 20 -59 20 -21 0
-51 8 -67 17 -20 12 -32 14 -37 7 -4 -5 -22 -20 -39 -33 -18 -12 -36 -33 -39
-47 -3 -13 -10 -24 -15 -24 -5 0 -9 -8 -9 -18 0 -10 -9 -25 -20 -35 -12 -10
-18 -23 -14 -29 4 -6 3 -8 -3 -5 -6 4 -13 0 -17 -8 -3 -8 -11 -15 -19 -15 -14
0 -63 -60 -59 -72 1 -5 -1 -7 -6 -6 -12 4 -62 -33 -62 -46 0 -14 -73 -76 -88
-76 -6 0 -12 -7 -16 -15 -3 -8 -14 -15 -25 -15 -12 0 -28 -11 -37 -25 -9 -14
-22 -25 -29 -25 -6 0 -20 -9 -30 -20 -10 -11 -28 -20 -41 -20 -13 0 -28 -9
-34 -20 -7 -13 -21 -20 -39 -20 -20 0 -31 -7 -39 -25 -8 -18 -19 -25 -40 -25
-16 0 -37 -9 -47 -20 -10 -11 -26 -20 -36 -20 -10 0 -31 -11 -47 -25 -17 -14
-43 -25 -59 -25 -17 0 -38 -9 -49 -21 -10 -11 -26 -18 -36 -16 -16 5 -53 -25
-43 -34 2 -3 -14 -6 -37 -8 -27 -1 -52 -11 -70 -27 -16 -13 -42 -24 -56 -24
-15 0 -36 -7 -46 -15 -11 -8 -33 -15 -48 -15 -16 0 -43 -10 -59 -22 -22 -17
-45 -23 -80 -23 -28 0 -53 -5 -57 -11 -13 -20 -50 -34 -89 -34 -21 0 -67 -12
-101 -27 -50 -21 -68 -24 -81 -16 -14 9 -35 7 -87 -8 -117 -34 -157 -40 -215
-34 -33 4 -102 0 -172 -10 -128 -19 -358 -17 -497 4 -41 7 -88 11 -105 10 -81
-3 -138 2 -172 17 -22 9 -63 16 -98 16 -61 -1 -97 8 -150 36 -16 8 -53 16 -82
17 -33 2 -60 8 -71 19 -11 9 -36 16 -59 16 -31 0 -47 6 -64 25 -19 19 -34 25
-70 25 -35 0 -51 5 -69 24 -17 19 -29 24 -50 19 -22 -4 -31 0 -39 16 -8 14
-21 21 -40 21 -16 0 -37 10 -51 25 -16 17 -30 23 -46 19 -17 -4 -27 1 -39 20
-11 16 -26 26 -42 26 -14 0 -32 9 -41 19 -19 22 -86 61 -106 61 -7 0 -19 11
-26 25 -7 14 -21 25 -30 25 -10 0 -23 6 -30 14 -6 8 -21 16 -33 18 -12 2 -27
14 -33 26 -7 13 -25 32 -40 42 -16 9 -40 29 -53 44 -14 14 -29 26 -35 26 -15
0 -206 192 -206 207 0 7 -6 16 -13 20 -8 4 -27 28 -42 52 -16 23 -39 47 -52
52 -13 5 -23 16 -23 26 0 10 -7 27 -15 37 -8 11 -15 27 -15 35 0 9 -14 24 -30
33 -18 10 -30 25 -30 37 0 30 -17 34 -35 8z"/>
</g>
</svg>
