<?xml version="1.0" standalone="no"?>
<!DOCTYPE svg PUBLIC "-//W3C//DTD SVG 20010904//EN"
 "http://www.w3.org/TR/2001/REC-SVG-20010904/DTD/svg10.dtd">
<svg version="1.0" xmlns="http://www.w3.org/2000/svg"
 width="1600.000000pt" height="1600.000000pt" viewBox="0 0 1600.000000 1600.000000"
 preserveAspectRatio="xMidYMid meet">
<metadata>
Created by potrace 1.14, written by Peter Selinger 2001-2017
</metadata>
<g transform="translate(0.000000,1600.000000) scale(0.100000,-0.100000)"
fill="#000000" stroke="none">
<path d="M7980 10620 c-47 -4 -141 -8 -210 -9 -72 -1 -149 -7 -180 -15 -60
-15 -143 -28 -205 -31 -22 -1 -59 -10 -82 -19 -24 -8 -69 -19 -100 -22 -32 -3
-73 -13 -92 -21 -19 -9 -60 -19 -90 -23 -31 -4 -69 -14 -86 -23 -16 -9 -51
-20 -77 -23 -26 -4 -53 -13 -59 -20 -6 -8 -24 -14 -40 -14 -15 0 -45 -11 -65
-25 -20 -14 -46 -25 -56 -25 -11 0 -31 -9 -45 -20 -14 -11 -36 -20 -48 -20
-12 0 -30 -9 -40 -20 -10 -11 -26 -20 -35 -20 -9 0 -31 -11 -50 -25 -19 -14
-40 -25 -48 -25 -8 0 -25 -9 -39 -20 -14 -11 -34 -20 -44 -20 -10 0 -21 -5
-24 -11 -6 -9 -56 -37 -132 -73 -17 -9 -34 -20 -38 -26 -3 -5 -17 -10 -30 -10
-15 0 -31 -10 -41 -25 -9 -14 -26 -25 -39 -25 -30 0 -50 -23 -33 -38 27 -22
64 -23 110 -3 26 11 75 23 110 27 35 4 68 10 73 14 6 5 39 13 75 20 64 11 105
20 185 42 22 5 57 10 78 9 21 0 51 6 67 14 29 15 163 35 191 28 8 -3 43 3 76
11 71 19 350 22 448 6 33 -6 134 -13 225 -16 91 -3 206 -13 255 -22 50 -9 109
-16 132 -16 23 -1 45 -4 49 -8 4 -5 22 -8 41 -8 18 0 50 -7 71 -16 20 -8 57
-15 82 -15 58 0 144 -16 195 -36 26 -10 69 -15 120 -14 58 1 88 -3 110 -15 17
-10 57 -18 91 -20 33 -2 81 -10 105 -20 24 -9 75 -20 112 -24 38 -5 79 -15 90
-23 12 -8 48 -16 79 -20 31 -3 72 -12 90 -20 18 -9 56 -18 83 -22 28 -3 67
-15 88 -26 21 -10 50 -19 65 -19 15 0 45 -9 67 -20 22 -11 53 -20 70 -20 17 0
48 -9 70 -20 22 -11 48 -20 60 -20 11 0 38 -9 60 -19 22 -10 58 -21 80 -25 22
-4 47 -13 55 -20 8 -8 32 -16 54 -19 21 -3 55 -15 75 -25 20 -10 51 -22 70
-25 19 -4 42 -13 50 -21 9 -7 34 -16 56 -19 21 -4 52 -16 67 -27 15 -11 39
-20 54 -20 15 0 35 -7 45 -16 10 -9 36 -18 58 -21 22 -3 48 -14 57 -24 9 -11
29 -19 44 -19 15 0 38 -9 52 -19 13 -11 41 -22 61 -26 20 -4 48 -16 61 -26 13
-11 34 -19 45 -19 12 0 34 -9 49 -19 15 -11 43 -22 63 -25 20 -4 44 -15 54
-26 11 -12 31 -20 50 -20 19 0 39 -8 50 -20 10 -11 28 -20 39 -20 12 0 40 -9
64 -20 23 -11 61 -29 85 -40 23 -11 50 -20 59 -20 9 0 29 -11 44 -25 15 -14
36 -25 46 -25 11 0 31 -9 45 -20 14 -11 36 -20 49 -20 13 0 28 -9 34 -20 6
-11 21 -20 34 -20 12 0 33 -11 46 -25 14 -15 35 -25 51 -25 18 0 32 -7 39 -20
6 -11 20 -20 32 -20 12 0 31 -9 43 -20 12 -11 32 -23 45 -25 12 -2 30 -11 40
-20 9 -8 23 -15 32 -15 8 0 23 -9 33 -20 10 -11 26 -20 36 -20 10 0 26 -8 36
-19 10 -10 29 -22 43 -26 14 -4 32 -13 40 -21 9 -7 43 -27 75 -45 33 -17 67
-37 75 -44 8 -7 25 -16 36 -19 12 -4 29 -15 39 -26 10 -11 26 -20 35 -20 9 0
27 -11 40 -25 13 -14 29 -25 36 -25 15 0 88 -41 92 -52 2 -4 29 -20 60 -36 59
-30 126 -72 151 -94 16 -14 58 -38 109 -62 17 -8 32 -19 32 -25 0 -5 21 -19
46 -31 25 -12 57 -32 72 -44 24 -19 123 -88 156 -108 6 -4 25 -13 43 -21 29
-14 33 -13 49 4 9 10 24 21 33 24 9 3 30 26 46 51 17 25 38 50 48 55 9 5 17
16 17 24 0 7 9 17 20 20 11 3 20 10 20 14 0 19 270 294 465 476 60 55 117 108
127 118 13 12 17 25 12 40 -9 33 -33 67 -46 67 -19 0 -102 43 -111 57 -4 7
-16 13 -27 13 -10 0 -32 11 -48 25 -17 14 -36 25 -44 25 -9 0 -27 11 -42 25
-15 14 -37 25 -49 25 -12 0 -28 9 -35 20 -7 11 -18 20 -26 20 -19 0 -192 88
-206 106 -7 8 -22 14 -35 14 -12 0 -30 9 -40 20 -10 11 -26 20 -35 20 -9 0
-31 11 -50 25 -19 14 -41 25 -51 25 -9 0 -22 7 -29 15 -7 8 -19 15 -27 15 -8
0 -36 11 -62 24 -72 38 -155 76 -165 76 -4 0 -19 9 -33 20 -14 11 -36 20 -48
20 -12 0 -30 9 -40 20 -10 11 -30 20 -45 20 -15 0 -35 9 -45 20 -10 11 -28 20
-40 20 -12 0 -33 8 -46 18 -13 11 -37 22 -54 26 -16 4 -37 13 -45 20 -8 7 -34
18 -56 24 -23 7 -47 19 -54 27 -7 8 -23 15 -35 15 -12 0 -34 9 -48 20 -14 11
-33 20 -42 20 -10 0 -34 8 -54 18 -86 44 -149 72 -163 72 -8 0 -27 9 -41 20
-14 11 -36 20 -50 20 -13 0 -35 8 -48 19 -13 10 -40 21 -60 25 -21 4 -42 13
-48 20 -7 8 -28 17 -49 21 -20 4 -51 15 -68 26 -17 10 -40 19 -51 19 -11 0
-31 8 -44 18 -13 11 -42 22 -64 25 -21 4 -52 16 -67 27 -15 11 -39 20 -53 20
-14 0 -42 9 -62 20 -21 11 -47 20 -59 20 -12 0 -33 9 -47 20 -14 11 -38 20
-54 20 -15 0 -44 8 -63 19 -19 10 -54 22 -77 25 -22 4 -49 14 -60 21 -10 8
-27 15 -39 15 -11 0 -53 11 -92 25 -39 14 -80 25 -90 25 -10 0 -34 8 -54 19
-20 10 -60 21 -89 24 -28 4 -68 15 -88 25 -20 11 -55 19 -77 19 -22 0 -62 10
-88 22 -27 11 -69 21 -95 21 -25 1 -71 9 -101 20 -30 11 -73 19 -95 20 -22 0
-49 6 -60 14 -31 21 -74 29 -161 31 -54 2 -100 10 -137 23 -46 18 -79 22 -179
21 -123 0 -279 14 -300 27 -27 17 -1065 38 -1208 24z"/>
<path d="M6860 9830 c-109 -19 -212 -30 -310 -34 -62 -3 -124 -11 -150 -21
-25 -9 -78 -16 -120 -17 -49 0 -102 -9 -153 -24 -43 -13 -100 -24 -128 -24
-29 0 -60 -7 -75 -17 -15 -9 -52 -17 -91 -19 -38 -2 -76 -11 -90 -19 -13 -9
-47 -18 -76 -21 -29 -3 -78 -17 -110 -31 -39 -16 -67 -23 -84 -18 -19 4 -36
-1 -64 -21 -28 -19 -45 -25 -64 -20 -17 4 -41 -2 -76 -20 -28 -15 -69 -28 -91
-30 -22 -1 -48 -10 -59 -20 -10 -9 -34 -18 -53 -19 -18 -1 -44 -10 -57 -19
-13 -9 -37 -16 -54 -16 -18 0 -46 -11 -66 -25 -21 -16 -42 -24 -55 -21 -13 4
-33 -4 -54 -19 -19 -14 -48 -25 -65 -25 -19 0 -39 -8 -50 -20 -10 -11 -31 -20
-48 -20 -16 0 -42 -11 -59 -25 -16 -14 -41 -25 -55 -25 -14 0 -36 -9 -50 -20
-14 -11 -36 -20 -48 -20 -12 0 -30 -9 -40 -20 -10 -11 -30 -20 -45 -20 -15 0
-35 -9 -45 -20 -10 -11 -31 -20 -46 -20 -18 0 -34 -8 -41 -20 -8 -12 -24 -20
-39 -20 -14 0 -34 -9 -44 -20 -10 -11 -31 -20 -46 -20 -18 0 -34 -8 -41 -20
-8 -12 -24 -20 -40 -20 -16 0 -33 -8 -41 -21 -8 -11 -28 -22 -43 -24 -16 -1
-35 -12 -42 -24 -9 -13 -25 -21 -43 -21 -19 0 -34 -8 -45 -25 -9 -14 -26 -25
-39 -25 -12 0 -30 -9 -39 -19 -10 -11 -31 -23 -47 -26 -16 -4 -34 -15 -39 -26
-6 -10 -18 -19 -26 -19 -8 0 -25 -5 -37 -12 -12 -7 -29 -13 -37 -14 -8 -2 -24
-14 -35 -28 -12 -15 -30 -26 -42 -26 -12 0 -28 -8 -35 -19 -7 -10 -39 -30 -71
-45 -31 -15 -62 -36 -67 -47 -6 -11 -21 -19 -35 -19 -14 0 -25 -4 -25 -9 0
-13 -81 -67 -113 -75 -15 -3 -27 -10 -27 -15 0 -10 -85 -71 -99 -71 -5 0 -24
-15 -44 -34 -20 -19 -58 -44 -84 -57 -26 -13 -62 -37 -80 -54 -47 -45 -61 -55
-73 -55 -6 0 -27 -15 -47 -34 -43 -40 -64 -57 -89 -73 -96 -60 -123 -80 -127
-94 -3 -9 -16 -23 -30 -30 -37 -20 -175 -127 -184 -143 -4 -8 -46 -45 -93 -83
-47 -37 -97 -79 -111 -93 -15 -14 -50 -43 -77 -65 -28 -22 -54 -47 -57 -56 -3
-9 -22 -29 -42 -45 -19 -16 -98 -90 -174 -165 -134 -132 -166 -178 -117 -166
54 13 100 35 114 55 9 13 26 22 40 22 13 0 27 7 30 15 6 14 102 65 123 65 5 0
13 9 16 20 3 11 18 23 33 26 15 4 35 15 45 25 10 11 24 19 31 19 7 0 21 9 31
20 10 11 26 20 35 20 10 0 23 7 30 15 7 8 40 28 74 44 33 16 67 39 74 50 7 12
22 21 37 21 14 0 28 6 31 14 3 8 34 28 69 45 34 17 65 37 69 46 3 8 14 15 25
15 11 0 32 11 47 25 15 14 38 28 51 31 13 4 23 10 23 15 0 5 8 9 18 9 10 0 29
11 42 25 13 14 32 25 41 25 10 0 27 9 37 20 21 23 89 60 109 60 7 0 20 11 29
25 9 14 25 25 36 25 11 0 33 11 50 25 16 14 38 25 48 25 11 0 23 6 27 14 9 15
89 56 109 56 7 0 21 11 32 25 12 15 30 25 45 25 15 0 31 9 41 25 10 15 26 25
40 25 12 0 31 9 41 20 10 11 28 20 40 20 12 0 30 9 40 20 10 11 26 20 36 20
10 0 30 11 45 25 15 14 37 25 50 25 12 0 26 5 30 11 3 6 25 19 49 29 24 10 46
23 49 29 4 6 18 11 30 11 13 0 29 7 36 15 7 8 30 20 51 26 21 7 46 20 55 31
10 10 29 18 44 18 15 0 35 9 45 20 10 11 30 20 45 20 15 0 35 9 45 20 10 11
28 20 41 20 13 0 40 11 60 25 20 14 49 25 64 25 15 0 33 7 40 15 7 8 27 15 44
15 22 0 40 8 56 25 17 18 34 25 60 25 25 0 43 7 56 21 13 14 26 19 44 15 17
-3 38 4 63 22 26 17 50 25 71 24 20 -2 43 5 58 18 16 12 42 20 65 20 22 0 54
11 78 25 26 16 55 25 82 25 24 0 61 10 85 22 25 13 62 23 93 23 27 1 64 9 80
18 18 10 53 17 88 17 39 0 72 7 100 21 31 15 67 22 135 25 51 2 100 8 110 12
33 18 148 33 227 30 44 -2 139 4 210 12 178 21 858 21 995 1 52 -8 137 -13
189 -12 69 1 114 -4 170 -19 41 -12 111 -23 156 -25 53 -2 96 -10 128 -24 30
-13 70 -21 103 -21 36 0 69 -7 95 -21 28 -14 50 -18 70 -14 30 7 69 -3 122
-32 16 -8 55 -16 88 -17 38 -2 65 -9 77 -19 11 -10 36 -17 61 -17 25 0 62 -10
92 -25 32 -17 58 -24 71 -19 20 6 61 -9 86 -33 7 -7 32 -13 55 -13 26 0 51 -8
67 -20 14 -11 41 -20 60 -20 20 0 46 -8 59 -17 14 -9 47 -20 74 -24 27 -5 57
-15 67 -24 9 -8 32 -15 52 -15 21 0 50 -10 72 -25 21 -14 51 -25 70 -25 18 0
44 -8 57 -19 13 -10 44 -21 67 -24 24 -3 54 -14 65 -25 15 -14 31 -19 48 -15
18 3 35 -3 56 -21 20 -17 43 -26 65 -26 22 0 42 -7 53 -20 11 -12 31 -20 50
-20 18 0 46 -11 65 -25 19 -14 46 -25 61 -25 14 0 32 -7 39 -15 7 -8 27 -15
44 -15 17 0 48 -11 68 -25 20 -14 49 -25 64 -25 14 0 39 -11 56 -25 18 -16 42
-25 63 -25 20 0 35 -6 39 -15 3 -9 18 -15 40 -15 23 0 39 -7 48 -19 7 -10 29
-22 48 -26 19 -4 42 -13 50 -20 8 -7 31 -16 50 -20 19 -4 45 -18 57 -31 13
-15 33 -24 51 -24 16 0 37 -9 47 -20 10 -11 28 -20 40 -20 12 0 30 -9 40 -20
10 -11 30 -20 45 -20 15 0 35 -9 45 -20 10 -11 29 -20 42 -20 13 0 31 -9 40
-20 10 -11 28 -20 40 -20 13 0 33 -11 45 -25 13 -15 32 -25 49 -25 18 0 32 -7
39 -20 6 -11 21 -20 34 -20 12 0 32 -11 44 -25 12 -14 28 -25 35 -25 15 0 71
-28 107 -53 13 -9 32 -17 40 -17 9 0 27 -11 40 -25 13 -14 31 -25 41 -25 9 0
23 -7 30 -16 19 -23 86 -64 104 -64 9 0 15 -9 15 -24 0 -18 -8 -27 -29 -34
-16 -6 -32 -19 -35 -30 -4 -10 -29 -33 -56 -51 -28 -18 -50 -37 -50 -42 0 -5
-5 -9 -11 -9 -6 0 -51 -34 -101 -76 -50 -41 -95 -80 -102 -85 -6 -5 -41 -32
-78 -59 -37 -28 -72 -59 -78 -70 -6 -11 -17 -20 -24 -20 -8 0 -16 -7 -20 -15
-3 -8 -16 -20 -28 -25 -34 -15 -107 -70 -156 -117 -24 -24 -64 -53 -89 -65
-25 -13 -53 -33 -61 -46 -8 -12 -38 -34 -66 -47 -28 -13 -57 -33 -63 -44 -7
-11 -36 -32 -65 -45 -29 -14 -59 -34 -66 -46 -7 -11 -18 -20 -25 -20 -22 0
-91 -37 -111 -59 -11 -12 -27 -21 -36 -21 -9 0 -27 -11 -40 -26 -17 -17 -31
-23 -46 -20 -16 4 -26 -1 -38 -19 -10 -15 -26 -25 -40 -25 -13 0 -30 -9 -37
-20 -8 -11 -39 -29 -69 -39 -30 -11 -62 -29 -71 -40 -10 -12 -26 -21 -36 -21
-11 0 -30 -11 -43 -25 -13 -14 -33 -25 -44 -25 -12 0 -32 -12 -45 -25 -13 -14
-33 -25 -45 -25 -13 0 -31 -9 -41 -20 -10 -11 -29 -20 -42 -20 -13 0 -26 -7
-29 -15 -4 -8 -23 -18 -45 -21 -21 -4 -46 -15 -55 -25 -9 -11 -29 -19 -44 -19
-15 0 -35 -9 -45 -20 -12 -13 -25 -18 -40 -14 -15 4 -32 -3 -52 -20 -20 -17
-43 -26 -66 -26 -20 0 -46 -9 -62 -22 -17 -14 -44 -22 -71 -23 -25 -1 -52 -9
-62 -17 -9 -9 -42 -21 -72 -28 -30 -6 -68 -18 -83 -26 -16 -8 -49 -14 -74 -14
-29 0 -58 -8 -81 -22 -21 -13 -53 -22 -82 -23 -27 -1 -60 -10 -76 -20 -16 -10
-58 -21 -94 -25 -36 -4 -80 -15 -99 -25 -21 -11 -54 -18 -82 -17 -34 1 -55 -5
-73 -19 -16 -13 -45 -21 -83 -23 -33 -2 -75 -13 -97 -25 -22 -11 -55 -24 -73
-27 -42 -8 -42 -30 0 -46 24 -10 101 -12 317 -8 157 3 294 1 306 -3 19 -8 79
1 245 37 37 7 78 11 92 9 15 -3 61 7 104 22 51 17 88 24 109 21 21 -4 53 2
100 20 47 17 81 24 106 21 25 -3 46 1 69 15 18 11 58 22 88 25 31 3 74 15 95
25 22 11 60 21 85 22 26 2 62 13 83 25 22 13 45 20 56 17 11 -4 47 7 85 24 37
16 75 30 85 30 10 0 35 9 57 20 22 11 53 20 69 20 16 0 37 7 47 16 10 9 37 18
60 21 24 4 52 14 62 24 13 12 29 16 47 12 20 -4 34 1 50 17 13 13 40 24 64 27
22 3 50 14 62 25 12 10 39 22 60 25 21 3 49 14 62 24 12 9 31 15 43 12 12 -3
29 2 42 14 29 25 73 44 90 37 7 -2 22 4 32 16 11 12 31 20 49 20 19 0 38 8 49
20 9 11 28 20 42 20 14 0 29 8 35 20 7 13 21 20 40 20 19 0 34 7 42 20 8 12
24 20 39 20 14 0 36 11 49 25 14 15 35 25 51 25 19 0 30 6 34 20 4 14 15 20
34 20 15 0 36 9 46 20 10 11 26 20 36 20 10 0 31 11 47 25 17 14 39 25 49 25
11 0 28 9 37 19 10 11 31 23 46 26 15 3 36 15 46 26 9 10 25 19 35 19 10 0 25
8 35 17 19 19 102 62 121 63 7 0 17 9 23 20 6 11 21 20 34 20 12 0 33 11 46
25 13 14 34 25 46 25 13 0 28 9 34 20 6 11 17 20 25 20 23 0 112 49 119 65 3
8 15 15 26 15 12 0 31 11 44 25 13 14 28 25 34 25 19 0 93 47 108 69 8 11 22
21 30 21 19 0 61 26 96 59 37 36 52 49 143 121 44 35 89 73 100 85 11 11 37
33 57 49 21 15 40 36 43 47 4 10 13 19 20 19 8 0 19 9 25 20 6 11 17 20 25 20
8 0 18 6 22 13 4 7 24 24 43 36 33 22 47 36 129 116 17 17 31 35 31 42 0 6
-32 42 -72 80 -39 37 -85 82 -102 99 -17 17 -59 49 -94 71 -34 22 -71 52 -83
67 -11 14 -25 26 -31 26 -5 0 -30 14 -55 30 -24 17 -47 30 -52 30 -4 0 -18 11
-31 25 -13 14 -33 25 -44 25 -12 0 -27 9 -33 20 -7 10 -39 31 -70 46 -32 15
-64 36 -71 46 -7 10 -24 18 -37 18 -14 0 -30 9 -37 20 -7 11 -23 20 -35 20
-13 0 -33 11 -45 25 -12 14 -27 25 -34 25 -20 0 -89 38 -109 60 -10 11 -29 20
-41 20 -13 0 -29 9 -36 20 -8 12 -24 20 -39 20 -17 0 -32 9 -43 25 -10 15 -26
25 -39 25 -13 0 -34 11 -47 25 -13 14 -33 25 -45 25 -12 0 -30 9 -40 20 -10
11 -25 20 -34 20 -18 0 -72 26 -111 53 -13 9 -32 17 -42 17 -9 0 -33 14 -51
30 -19 17 -46 30 -59 30 -14 0 -33 9 -43 20 -10 11 -28 20 -40 20 -12 0 -30 9
-40 20 -10 11 -30 20 -45 20 -16 0 -35 10 -48 25 -12 14 -33 25 -46 25 -13 0
-29 7 -36 15 -7 8 -25 15 -41 15 -19 0 -34 8 -45 25 -12 18 -25 25 -49 25 -18
0 -38 6 -44 14 -6 7 -27 16 -47 19 -19 3 -48 17 -65 31 -21 18 -38 24 -53 20
-17 -4 -27 1 -40 20 -13 20 -22 25 -40 20 -17 -4 -31 1 -45 15 -12 12 -34 21
-50 21 -18 0 -41 10 -57 25 -28 26 -35 28 -70 26 -11 -1 -28 7 -39 19 -12 13
-31 20 -55 20 -26 0 -43 7 -60 25 -17 18 -34 25 -61 25 -20 0 -42 7 -49 15 -7
8 -24 15 -39 15 -14 0 -41 9 -59 20 -18 11 -45 20 -60 20 -15 0 -44 11 -64 25
-22 15 -51 25 -71 25 -20 0 -46 9 -62 22 -18 14 -40 21 -60 20 -19 -2 -42 5
-56 16 -13 11 -45 21 -71 24 -25 3 -60 15 -76 27 -18 12 -45 21 -67 21 -21 0
-53 10 -72 21 -21 13 -55 23 -84 24 -29 1 -57 9 -68 19 -10 9 -35 16 -60 16
-25 0 -62 10 -91 25 -29 14 -66 25 -90 25 -22 0 -58 9 -80 20 -22 11 -59 20
-82 20 -25 0 -60 9 -83 21 -26 14 -60 22 -101 23 -38 1 -72 9 -88 19 -14 10
-46 17 -73 17 -26 1 -73 10 -103 21 -30 11 -85 22 -121 23 -36 2 -94 13 -130
26 -38 13 -84 22 -115 21 -27 -1 -86 6 -130 16 -65 13 -146 17 -449 19 -203 1
-390 -1 -415 -6z"/>
<path d="M6436 8794 c-39 -13 -86 -24 -106 -24 -25 0 -43 -7 -56 -21 -10 -11
-26 -18 -35 -16 -10 3 -27 -6 -40 -19 -12 -13 -29 -24 -37 -24 -29 0 -103 -74
-129 -127 -14 -30 -31 -57 -39 -60 -8 -3 -14 -17 -14 -32 0 -14 -9 -50 -20
-79 -25 -66 -25 -127 0 -201 10 -31 17 -66 14 -77 -3 -12 3 -27 15 -38 12 -11
21 -29 21 -42 0 -13 4 -26 10 -29 5 -3 26 -31 46 -61 54 -82 152 -166 240
-208 17 -9 34 -22 37 -31 4 -8 18 -15 35 -15 15 0 43 -11 62 -25 26 -19 46
-25 86 -25 28 0 65 -7 80 -15 38 -20 163 -20 211 0 19 8 55 15 78 15 27 0 51
7 68 20 14 11 34 20 46 20 11 0 28 11 37 25 9 14 22 25 28 25 16 0 116 101
116 117 0 7 9 17 20 23 13 7 20 21 20 41 0 18 10 43 24 60 23 28 24 33 24 194
-1 157 -2 167 -24 197 -13 18 -24 44 -24 58 0 15 -9 35 -20 45 -11 10 -20 24
-20 32 0 37 -154 200 -210 222 -19 8 -44 23 -56 33 -11 10 -33 18 -50 18 -16
0 -60 11 -99 25 -98 34 -239 34 -339 -1z"/>
<path d="M4450 8261 c-16 -31 -12 -65 11 -85 16 -13 20 -25 15 -49 -4 -25 1
-42 24 -76 17 -24 30 -54 30 -66 0 -13 6 -25 14 -28 8 -3 17 -21 21 -39 4 -18
16 -41 26 -51 11 -10 19 -26 19 -36 0 -10 7 -24 15 -31 8 -7 15 -19 15 -27 0
-17 24 -43 39 -43 6 0 11 -6 11 -13 0 -8 9 -22 20 -32 11 -10 20 -22 20 -28 0
-13 93 -127 103 -127 10 0 91 -80 98 -95 2 -6 27 -28 54 -50 49 -39 60 -47
118 -83 15 -9 29 -24 32 -32 3 -8 31 -27 62 -42 32 -15 64 -37 71 -48 7 -11
22 -20 35 -20 12 0 28 -9 35 -20 8 -13 23 -20 42 -20 19 0 33 -7 40 -20 6 -11
20 -20 31 -20 12 0 35 -12 52 -26 20 -17 37 -24 52 -20 15 4 29 -2 45 -19 14
-15 35 -25 51 -25 14 0 32 -7 39 -15 7 -8 27 -15 45 -15 18 0 43 -8 56 -19 13
-10 43 -20 66 -24 23 -3 54 -14 68 -25 15 -12 33 -18 41 -15 17 6 104 -16 104
-27 0 -12 49 -22 108 -24 29 0 56 -6 60 -12 10 -16 41 -24 116 -29 36 -2 75
-9 87 -15 43 -24 111 -39 134 -30 24 9 145 -4 180 -19 42 -19 181 -32 208 -20
20 9 47 9 115 0 115 -14 484 -14 590 1 61 8 89 8 107 0 27 -13 174 1 208 19
31 17 157 28 182 17 19 -8 35 -5 82 17 33 15 84 29 118 32 33 3 75 14 92 25
18 11 54 20 80 22 28 1 62 11 82 23 27 17 38 19 57 11 19 -9 29 -7 58 16 21
16 47 26 68 26 18 0 47 9 63 20 17 11 46 20 66 20 21 0 47 8 62 20 14 11 40
20 58 20 19 0 45 10 65 25 18 14 46 25 62 25 16 0 37 9 47 20 11 13 31 20 52
20 23 0 41 8 57 25 16 17 34 25 58 25 22 0 42 7 53 20 11 13 25 18 39 14 15
-3 29 3 46 20 13 15 33 26 45 26 12 0 30 9 40 20 10 11 30 20 44 20 15 0 33 9
41 20 8 11 26 20 41 20 17 0 32 9 43 25 10 15 26 25 40 25 12 0 31 9 41 20 10
11 28 20 40 20 13 0 29 10 38 23 8 12 40 35 71 50 31 15 56 31 56 36 0 4 36
33 79 64 44 31 100 77 125 103 39 39 46 52 46 85 0 38 -1 39 -41 45 -22 4 -53
17 -69 30 -19 16 -40 24 -67 24 -27 0 -46 6 -58 20 -10 11 -31 20 -47 20 -17
0 -41 9 -55 20 -14 11 -33 20 -43 20 -9 0 -25 9 -35 20 -10 11 -29 20 -43 20
-25 0 -82 29 -82 42 0 4 -15 8 -33 8 -23 0 -41 8 -57 25 -14 15 -35 25 -51 25
-14 0 -32 7 -39 15 -7 8 -27 15 -44 15 -19 0 -47 11 -66 25 -22 16 -47 25 -72
25 -21 0 -49 7 -62 15 -20 13 -26 14 -37 2 -8 -7 -26 -21 -41 -31 -14 -9 -38
-42 -53 -72 -14 -30 -30 -54 -34 -54 -4 0 -13 -11 -19 -25 -6 -14 -16 -25 -22
-25 -5 0 -38 -30 -72 -67 -92 -98 -130 -133 -145 -133 -7 0 -17 -9 -23 -20 -6
-11 -19 -20 -30 -20 -10 0 -23 -6 -27 -14 -11 -20 -74 -62 -106 -70 -14 -3
-31 -15 -37 -26 -6 -12 -21 -20 -35 -20 -14 0 -30 -9 -37 -20 -7 -11 -24 -20
-38 -20 -14 0 -36 -12 -49 -25 -13 -14 -33 -25 -45 -25 -13 0 -31 -9 -41 -20
-10 -11 -30 -20 -45 -20 -15 0 -35 -9 -45 -20 -10 -11 -30 -20 -45 -20 -15 0
-35 -9 -45 -20 -10 -11 -31 -20 -48 -20 -16 0 -42 -11 -59 -25 -16 -14 -42
-25 -57 -25 -16 0 -36 -9 -47 -21 -13 -15 -26 -19 -45 -15 -18 3 -37 -3 -60
-20 -27 -20 -41 -24 -69 -19 -26 4 -43 1 -60 -12 -45 -33 -78 -46 -107 -40
-18 3 -49 -4 -86 -19 -40 -17 -68 -23 -90 -19 -21 4 -63 -3 -118 -19 -69 -20
-109 -24 -205 -25 -65 0 -146 -5 -179 -11 -78 -13 -317 -13 -386 0 -30 6 -108
11 -174 12 -90 0 -136 5 -185 21 -36 11 -94 21 -130 22 -48 1 -78 9 -117 29
-41 21 -56 24 -76 17 -21 -8 -33 -5 -62 14 -23 16 -50 25 -74 25 -23 0 -48 8
-64 20 -15 12 -40 20 -64 20 -30 0 -46 7 -67 29 -23 24 -35 29 -56 24 -22 -4
-31 0 -39 16 -8 14 -21 21 -40 21 -15 0 -36 9 -46 20 -10 11 -30 20 -45 20
-18 0 -33 8 -44 25 -10 15 -26 25 -40 25 -13 0 -30 7 -37 16 -7 9 -41 29 -76
46 -35 16 -63 36 -63 44 0 8 -6 14 -14 14 -7 0 -24 8 -37 19 -13 10 -33 20
-44 22 -11 2 -24 13 -29 24 -5 11 -32 36 -60 55 -79 54 -246 221 -306 304 -30
42 -60 76 -66 76 -11 0 -41 54 -58 103 -3 9 -17 22 -31 27 -17 6 -27 20 -31
40 -7 34 -28 39 -44 11z"/>
</g>
</svg>
