<?xml version="1.0" standalone="no"?>
<!DOCTYPE svg PUBLIC "-//W3C//DTD SVG 20010904//EN"
 "http://www.w3.org/TR/2001/REC-SVG-20010904/DTD/svg10.dtd">
<svg version="1.0" xmlns="http://www.w3.org/2000/svg"
 width="1600.000000pt" height="1600.000000pt" viewBox="0 0 1600.000000 1600.000000"
 preserveAspectRatio="xMidYMid meet">
<metadata>
Created by potrace 1.14, written by Peter Selinger 2001-2017
</metadata>
<g transform="translate(0.000000,1600.000000) scale(0.100000,-0.100000)"
fill="#000000" stroke="none">
<path d="M10838 15793 c7 -3 16 -2 19 1 4 3 -2 6 -13 5 -11 0 -14 -3 -6 -6z"/>
<path d="M10908 15793 c6 -2 18 -2 25 0 6 3 1 5 -13 5 -14 0 -19 -2 -12 -5z"/>
<path d="M11358 15793 c7 -3 16 -2 19 1 4 3 -2 6 -13 5 -11 0 -14 -3 -6 -6z"/>
<path d="M11880 15796 c0 -2 7 -7 16 -10 8 -3 12 -2 9 4 -6 10 -25 14 -25 6z"/>
<path d="M4340 15780 l-55 -7 52 -1 c28 -1 55 3 58 8 3 6 5 9 3 8 -2 -1 -28
-4 -58 -8z"/>
<path d="M4003 15773 c26 -2 67 -2 90 0 23 2 2 3 -48 3 -49 0 -68 -1 -42 -3z"/>
<path d="M12437 15773 c18 -2 50 -2 70 0 21 2 7 4 -32 4 -38 0 -55 -2 -38 -4z"/>
<path d="M3878 15763 c12 -2 30 -2 40 0 9 3 -1 5 -23 4 -22 0 -30 -2 -17 -4z"/>
<path d="M12598 15763 c6 -2 18 -2 25 0 6 3 1 5 -13 5 -14 0 -19 -2 -12 -5z"/>
<path d="M12782 15759 c7 -5 51 -8 98 -8 100 1 88 6 -28 12 -46 2 -77 0 -70
-4z"/>
<path d="M3223 15753 c54 -2 139 -2 190 0 51 1 7 3 -98 3 -104 0 -146 -2 -92
-3z"/>
<path d="M13203 15743 c37 -2 97 -2 135 0 37 2 6 3 -68 3 -74 0 -105 -1 -67
-3z"/>
<path d="M2477 15714 c-3 -3 -23 -12 -44 -19 -21 -8 -30 -14 -20 -15 18 0 77
27 77 35 0 7 -5 6 -13 -1z"/>
<path d="M2308 15673 c7 -3 16 -2 19 1 4 3 -2 6 -13 5 -11 0 -14 -3 -6 -6z"/>
<path d="M2220 15639 c-22 -18 -22 -19 -3 -10 12 6 25 16 28 21 9 15 3 12 -25
-11z"/>
<path d="M2079 15593 c-13 -16 -12 -17 4 -4 16 13 21 21 13 21 -2 0 -10 -8
-17 -17z"/>
<path d="M1910 15525 c-13 -14 -19 -25 -13 -25 6 0 18 11 27 25 9 14 15 25 13
25 -2 0 -14 -11 -27 -25z"/>
<path d="M1771 15454 c-37 -26 -36 -30 3 -13 14 7 27 18 30 25 6 17 9 18 -33
-12z"/>
<path d="M1664 15398 l-19 -23 23 19 c12 11 22 21 22 23 0 8 -8 2 -26 -19z"/>
<path d="M1555 15335 c-16 -14 -25 -25 -19 -25 6 0 21 11 34 25 30 32 24 31
-15 0z"/>
<path d="M1460 15270 c-14 -11 -20 -20 -14 -20 6 0 19 9 29 20 23 25 17 25
-15 0z"/>
<path d="M1360 15200 c-9 -6 -10 -10 -3 -10 6 0 15 5 18 10 8 12 4 12 -15 0z"/>
<path d="M1280 15145 c-13 -14 -19 -25 -13 -25 12 0 48 38 41 45 -2 3 -15 -6
-28 -20z"/>
<path d="M1215 15084 c-18 -16 -22 -22 -9 -15 18 9 53 42 43 41 -2 -1 -17 -12
-34 -26z"/>
<path d="M1125 15011 c-44 -34 -131 -126 -213 -223 -24 -28 -24 -30 -4 -19 12
6 22 16 22 21 0 5 56 66 124 135 69 69 124 125 123 125 -1 0 -24 -18 -52 -39z"/>
<path d="M844 14709 c-19 -22 -19 -22 4 -10 12 6 22 16 22 21 0 15 -5 12 -26
-11z"/>
<path d="M789 14633 c-13 -16 -12 -17 4 -4 16 13 21 21 13 21 -2 0 -10 -8 -17
-17z"/>
<path d="M709 14523 l-24 -28 28 24 c25 23 32 31 24 31 -2 0 -14 -12 -28 -27z"/>
<path d="M669 14463 c-13 -16 -12 -17 4 -4 16 13 21 21 13 21 -2 0 -10 -8 -17
-17z"/>
<path d="M599 14343 c-13 -16 -12 -17 4 -4 16 13 21 21 13 21 -2 0 -10 -8 -17
-17z"/>
<path d="M545 14254 c-9 -15 -12 -23 -6 -20 11 7 35 46 28 46 -3 0 -12 -12
-22 -26z"/>
<path d="M480 14138 c-15 -21 -17 -28 -6 -19 16 13 41 51 33 51 -2 0 -14 -15
-27 -32z"/>
<path d="M415 13994 c-9 -15 -12 -23 -6 -20 11 7 35 46 28 46 -3 0 -12 -12
-22 -26z"/>
<path d="M355 13834 c-9 -15 -12 -23 -6 -20 11 7 35 46 28 46 -3 0 -12 -12
-22 -26z"/>
<path d="M312 13680 c0 -14 2 -19 5 -12 2 6 2 18 0 25 -3 6 -5 1 -5 -13z"/>
<path d="M280 13615 c-7 -9 -11 -17 -9 -20 3 -2 10 5 17 15 14 24 10 26 -8 5z"/>
<path d="M214 13316 c-3 -8 -4 -25 -2 -38 3 -17 5 -13 9 15 5 38 2 47 -7 23z"/>
<path d="M15805 9825 c0 -1523 1 -2145 2 -1382 2 764 2 2010 0 2770 -1 760 -2
136 -2 -1388z"/>
<path d="M15853 12055 c0 -22 2 -30 4 -17 2 12 2 30 0 40 -3 9 -5 -1 -4 -23z"/>
<path d="M8075 10644 c-153 -21 -207 -25 -348 -26 -140 0 -170 -3 -217 -21
-37 -14 -75 -21 -118 -20 -48 1 -75 -4 -118 -24 -43 -19 -65 -24 -95 -19 -32
5 -46 1 -79 -20 -31 -21 -51 -26 -91 -25 -37 0 -59 -5 -79 -19 -16 -11 -50
-23 -77 -26 -26 -4 -56 -15 -66 -25 -12 -13 -26 -17 -45 -13 -22 4 -34 0 -53
-20 -17 -18 -34 -26 -61 -26 -27 0 -40 -6 -48 -20 -7 -13 -21 -20 -39 -20 -16
0 -37 -10 -51 -25 -14 -15 -35 -25 -51 -25 -19 0 -30 -6 -34 -20 -4 -13 -15
-20 -32 -20 -14 0 -39 -11 -55 -26 -17 -14 -36 -23 -43 -20 -7 2 -23 -6 -36
-20 -12 -13 -33 -24 -46 -24 -13 0 -26 -6 -29 -14 -3 -8 -33 -24 -67 -36 -34
-13 -69 -31 -79 -41 -9 -11 -25 -19 -36 -19 -35 0 -69 -58 -43 -74 5 -4 29 -9
54 -12 36 -5 56 -1 103 21 44 21 67 26 97 22 29 -4 52 0 81 15 23 12 68 23
106 26 38 2 78 12 96 23 22 14 56 20 115 22 55 2 96 10 118 21 53 28 313 36
811 24 162 -4 229 -10 274 -23 32 -9 97 -19 145 -20 105 -4 179 -14 206 -28
11 -6 66 -14 121 -18 63 -4 114 -14 134 -24 21 -11 61 -18 114 -19 60 -1 88
-7 109 -20 20 -13 50 -20 101 -21 50 -2 85 -9 114 -24 26 -13 60 -21 94 -21
35 0 64 -7 86 -20 21 -13 50 -20 85 -20 38 0 63 -7 92 -25 30 -18 49 -23 75
-19 26 4 48 -1 83 -20 29 -16 64 -26 88 -26 26 0 50 -7 66 -20 17 -13 41 -20
70 -20 30 0 53 -7 70 -20 17 -13 41 -20 68 -20 29 0 47 -6 60 -20 12 -13 31
-20 55 -20 21 0 48 -8 61 -19 13 -10 43 -21 67 -24 24 -3 51 -12 60 -20 9 -8
37 -17 61 -20 28 -3 53 -15 71 -32 21 -20 33 -25 53 -20 20 5 34 1 58 -19 19
-16 43 -26 63 -26 20 0 40 -8 51 -20 12 -13 31 -20 55 -20 27 0 42 -7 59 -26
18 -20 29 -25 51 -21 20 4 33 1 45 -13 11 -12 31 -20 51 -20 20 0 44 -9 62
-25 17 -14 43 -25 59 -25 17 0 38 -9 48 -20 11 -12 31 -20 50 -20 21 0 40 -9
56 -26 18 -19 31 -24 50 -20 20 4 33 -1 49 -20 14 -14 35 -24 51 -24 14 0 32
-7 39 -15 7 -8 23 -15 37 -15 28 0 57 -14 84 -41 10 -10 32 -19 47 -19 16 0
37 -9 48 -21 12 -13 26 -18 40 -15 16 4 26 -1 38 -19 11 -17 26 -25 46 -25 19
0 33 -7 40 -20 7 -13 21 -20 40 -20 19 0 33 -7 40 -20 7 -13 21 -20 40 -20 20
0 35 -8 46 -25 11 -17 25 -25 45 -25 17 0 32 -7 38 -19 6 -10 39 -29 73 -42
35 -12 69 -31 76 -41 7 -10 24 -18 37 -18 14 0 29 -9 35 -20 7 -13 21 -20 38
-20 20 0 35 -9 50 -30 13 -16 31 -30 41 -30 25 0 74 -26 96 -50 10 -11 28 -20
40 -20 13 0 30 -11 39 -25 10 -15 26 -25 40 -25 14 0 30 -10 39 -22 8 -13 38
-32 66 -43 29 -11 62 -30 73 -42 12 -13 29 -23 39 -23 9 0 22 -6 28 -14 7 -8
23 -17 36 -20 14 -4 25 -11 25 -17 0 -5 16 -17 35 -25 19 -8 35 -19 35 -24 0
-6 29 -24 63 -40 35 -16 72 -39 82 -50 10 -11 26 -20 37 -20 10 0 18 -4 18
-10 0 -5 16 -16 35 -24 19 -8 35 -20 35 -26 0 -6 15 -18 33 -26 56 -26 78 -41
93 -63 8 -11 26 -21 38 -21 13 0 29 -7 36 -15 17 -21 37 -19 50 5 6 11 21 22
34 26 13 3 43 32 67 65 24 33 55 73 69 88 14 16 50 56 80 90 113 127 399 405
498 483 20 17 40 38 44 48 8 22 -15 92 -34 102 -40 21 -83 38 -94 38 -8 0 -19
9 -26 20 -8 12 -24 20 -39 20 -17 0 -32 9 -43 25 -10 15 -26 25 -40 25 -14 0
-30 10 -40 25 -11 17 -26 25 -45 25 -16 0 -34 7 -41 14 -12 15 -78 49 -117 60
-11 4 -27 13 -33 21 -7 8 -20 15 -30 15 -9 0 -25 9 -35 20 -10 11 -31 20 -46
20 -19 0 -34 8 -45 25 -9 14 -26 25 -39 25 -12 0 -30 9 -40 20 -10 11 -30 20
-45 20 -15 0 -36 10 -50 25 -13 14 -32 25 -43 25 -10 0 -30 9 -44 20 -14 11
-36 20 -48 20 -12 0 -30 9 -40 20 -10 11 -31 20 -46 20 -18 0 -40 11 -60 31
-23 22 -37 29 -54 25 -15 -4 -28 1 -40 14 -10 11 -28 20 -40 20 -12 0 -32 11
-45 25 -14 15 -35 25 -51 25 -14 0 -32 7 -39 15 -7 8 -25 15 -40 15 -15 0 -35
9 -45 20 -10 11 -31 20 -46 20 -17 0 -42 12 -62 30 -19 17 -46 30 -60 30 -13
0 -30 7 -37 15 -7 8 -27 15 -44 15 -22 0 -40 8 -56 25 -14 15 -30 23 -40 20
-9 -3 -28 3 -41 13 -13 11 -40 22 -60 26 -20 3 -44 15 -54 26 -11 12 -31 20
-50 20 -19 0 -39 8 -50 20 -10 11 -31 20 -48 20 -17 0 -42 11 -60 26 -20 17
-37 24 -52 20 -15 -4 -29 2 -45 19 -17 18 -34 25 -60 25 -24 0 -43 7 -55 20
-12 14 -31 20 -58 20 -30 0 -46 6 -63 25 -17 19 -33 25 -63 25 -23 0 -43 6
-48 14 -4 7 -28 16 -51 19 -24 3 -54 14 -65 25 -13 11 -37 19 -59 19 -25 1
-48 10 -69 27 -22 19 -37 24 -56 20 -17 -5 -33 0 -51 13 -16 11 -50 22 -80 25
-35 3 -60 12 -75 27 -17 15 -36 21 -70 21 -33 0 -57 7 -82 25 -27 17 -45 23
-65 18 -20 -3 -45 2 -77 18 -32 16 -66 24 -99 24 -37 0 -58 5 -74 20 -15 14
-39 20 -88 23 -37 2 -83 11 -102 20 -19 8 -69 18 -110 22 -43 3 -90 13 -110
24 -25 13 -61 19 -125 21 -49 2 -112 11 -140 20 -34 11 -95 18 -188 20 -97 3
-151 9 -185 22 -39 14 -91 17 -292 20 -135 2 -276 8 -315 14 -70 10 -553 21
-610 13z"/>
<path d="M6920 9844 c-123 -21 -255 -35 -355 -38 -83 -3 -134 -9 -165 -21 -25
-10 -90 -21 -145 -26 -55 -4 -132 -16 -172 -27 -39 -11 -82 -17 -96 -15 -16 3
-48 -6 -83 -22 -43 -20 -65 -25 -91 -20 -25 4 -48 0 -89 -20 -38 -18 -64 -24
-83 -20 -18 4 -46 -3 -85 -21 -39 -18 -67 -24 -86 -20 -22 4 -37 -1 -59 -19
-20 -18 -41 -25 -69 -25 -24 0 -56 -9 -78 -22 -20 -12 -56 -23 -80 -24 -26 -2
-55 -11 -70 -23 -15 -12 -41 -21 -59 -21 -17 0 -42 -8 -53 -19 -14 -11 -31
-16 -47 -13 -17 3 -36 -4 -59 -22 -21 -16 -48 -26 -67 -26 -19 0 -42 -9 -55
-21 -12 -11 -41 -23 -64 -26 -23 -3 -44 -12 -47 -19 -3 -8 -20 -14 -38 -14
-21 0 -45 -9 -64 -26 -17 -14 -46 -28 -65 -31 -20 -3 -41 -12 -47 -19 -6 -8
-24 -14 -39 -14 -15 0 -35 -9 -45 -20 -10 -11 -30 -20 -45 -20 -15 0 -35 -9
-45 -20 -10 -11 -31 -20 -46 -20 -18 0 -34 -8 -41 -20 -8 -12 -24 -20 -39 -20
-14 0 -36 -11 -49 -25 -13 -14 -33 -25 -46 -25 -12 0 -27 -7 -34 -15 -7 -8
-25 -15 -40 -15 -19 0 -36 -9 -48 -25 -12 -15 -30 -25 -46 -25 -16 0 -31 -9
-42 -26 -13 -19 -23 -24 -40 -20 -18 5 -27 0 -40 -19 -10 -15 -26 -25 -40 -25
-14 0 -30 -10 -40 -25 -11 -17 -25 -25 -45 -25 -17 0 -32 -6 -35 -15 -6 -14
-66 -46 -112 -60 -12 -3 -27 -15 -32 -26 -6 -11 -21 -19 -35 -19 -13 0 -30 -8
-37 -19 -7 -10 -39 -30 -71 -45 -31 -15 -62 -36 -67 -47 -6 -10 -20 -19 -30
-19 -11 0 -30 -11 -42 -25 -12 -14 -27 -25 -34 -25 -6 0 -17 -7 -24 -15 -7 -8
-21 -15 -31 -15 -10 0 -26 -9 -36 -19 -22 -24 -91 -71 -103 -71 -5 0 -17 -11
-28 -25 -11 -14 -24 -25 -29 -25 -6 0 -18 -9 -28 -20 -10 -11 -24 -20 -32 -20
-20 0 -62 -29 -111 -77 -24 -24 -52 -43 -62 -43 -11 0 -29 -13 -42 -30 -12
-16 -28 -30 -35 -30 -8 0 -16 -7 -20 -16 -3 -8 -15 -20 -27 -25 -54 -25 -84
-47 -187 -141 -10 -10 -21 -18 -24 -18 -9 0 -135 -101 -143 -115 -6 -10 -38
-39 -155 -135 -11 -8 -33 -27 -50 -43 -18 -15 -53 -44 -80 -64 -26 -21 -47
-42 -47 -48 0 -5 -26 -33 -57 -60 -114 -100 -303 -292 -303 -309 0 -25 30 -31
62 -13 17 9 38 17 49 17 10 0 26 11 35 25 9 15 26 25 39 25 13 0 30 10 39 25
9 14 25 25 35 25 10 0 24 7 31 15 7 8 20 15 29 15 10 0 27 11 39 25 12 14 30
25 40 25 10 0 29 11 42 25 13 14 29 25 36 25 6 0 17 7 24 15 7 8 21 15 31 15
10 0 24 8 31 19 7 10 38 29 68 42 30 13 64 34 75 47 11 12 31 24 44 27 13 2
30 14 38 25 8 11 19 20 25 20 23 0 99 43 109 61 5 10 20 19 33 19 12 0 32 11
44 25 12 14 28 25 36 25 7 0 19 7 26 15 7 8 20 15 29 15 10 0 28 11 41 25 13
14 33 25 46 25 12 0 24 7 27 15 7 16 78 55 101 55 8 0 23 11 34 25 11 14 29
25 39 25 11 0 30 11 43 25 13 14 31 25 40 25 10 0 29 11 44 25 15 14 35 25 45
25 10 0 24 7 31 15 7 8 21 15 31 15 10 0 24 9 31 20 8 12 24 20 39 20 17 0 32
9 43 25 10 15 26 25 41 25 14 0 30 9 37 20 7 11 23 20 35 20 12 0 35 11 51 25
17 14 39 25 51 25 11 0 25 9 31 20 6 12 21 20 35 20 14 0 34 9 45 20 11 11 32
23 47 26 16 4 39 15 52 26 13 10 30 18 38 18 8 0 26 9 40 20 14 11 36 20 48
20 12 0 30 9 40 20 10 11 31 20 46 20 18 0 34 8 41 20 8 12 24 20 39 20 14 0
34 9 44 20 11 12 31 20 51 20 22 0 42 8 58 25 17 17 36 25 59 25 21 0 41 7 52
20 11 12 31 20 48 20 18 0 41 9 54 22 14 13 35 21 55 21 20 0 42 8 56 21 14
12 34 20 50 18 16 -2 40 7 60 22 25 18 42 23 66 19 25 -4 39 1 62 20 21 18 40
24 69 24 28 -1 51 6 75 23 24 17 48 25 80 25 27 0 64 9 93 24 36 17 56 21 83
16 27 -5 44 -1 72 16 25 14 57 22 97 24 60 3 75 6 130 31 29 12 68 16 157 14
20 0 53 6 73 14 38 16 155 33 190 27 36 -5 158 0 245 10 47 5 226 14 399 19
304 9 358 7 566 -19 98 -13 197 -17 210 -9 15 8 131 -10 200 -31 42 -13 67
-16 84 -10 28 11 79 3 146 -23 28 -11 79 -21 115 -23 45 -2 76 -9 100 -23 25
-16 44 -20 74 -16 31 4 59 -2 119 -25 57 -24 82 -29 95 -22 14 7 28 4 58 -14
24 -15 55 -24 79 -25 23 0 60 -10 85 -24 32 -17 54 -22 78 -19 24 4 41 0 62
-16 18 -13 44 -21 68 -21 26 0 46 -7 62 -22 16 -15 37 -22 67 -23 24 -1 51 -9
61 -17 9 -9 38 -18 64 -20 25 -3 59 -14 75 -25 15 -11 47 -23 71 -26 24 -3 51
-12 60 -20 9 -8 37 -17 60 -20 24 -3 54 -15 66 -26 14 -13 36 -21 58 -21 24 0
46 -8 66 -24 19 -17 36 -23 51 -19 14 4 35 -4 61 -22 28 -19 47 -26 63 -21 17
4 30 0 42 -14 10 -11 29 -20 43 -20 28 0 92 -28 92 -41 0 -5 17 -9 38 -9 25 0
45 -7 56 -19 9 -10 35 -21 57 -24 22 -3 50 -14 61 -24 11 -10 30 -17 43 -15
13 2 35 -8 53 -22 20 -17 42 -26 66 -26 25 0 38 -6 46 -20 8 -14 21 -20 45
-20 24 0 39 -6 47 -20 8 -12 24 -20 39 -20 14 0 37 -8 50 -19 13 -10 40 -21
60 -25 20 -3 44 -15 54 -26 10 -11 30 -20 45 -20 15 0 35 -9 45 -20 10 -11 28
-20 40 -20 12 0 32 -11 45 -25 16 -17 30 -23 45 -19 16 4 29 -1 43 -16 11 -12
33 -23 48 -25 16 -1 35 -12 42 -24 8 -12 25 -21 38 -21 13 0 32 -9 41 -20 10
-11 30 -20 45 -20 17 0 31 -7 38 -20 6 -11 23 -23 38 -26 15 -4 36 -15 47 -25
11 -9 45 -27 75 -39 30 -12 63 -30 73 -41 10 -10 25 -19 33 -19 9 0 29 -11 46
-25 16 -14 36 -25 45 -25 8 0 24 -11 35 -25 11 -14 28 -25 38 -25 10 0 20 -7
24 -15 3 -8 15 -15 26 -15 29 0 25 -16 -10 -37 -17 -9 -33 -25 -36 -35 -3 -10
-15 -23 -27 -30 -27 -14 -151 -111 -189 -147 -47 -45 -68 -61 -78 -61 -5 0
-14 -9 -20 -20 -6 -11 -16 -20 -21 -20 -16 0 -86 -56 -141 -111 -26 -26 -58
-54 -72 -61 -58 -32 -146 -100 -146 -113 0 -8 -6 -15 -13 -15 -8 0 -22 -9 -32
-20 -10 -11 -22 -20 -26 -20 -13 0 -99 -61 -99 -70 0 -10 -67 -50 -85 -50 -7
0 -23 -13 -35 -30 -12 -16 -27 -30 -34 -30 -8 0 -19 -7 -26 -15 -7 -8 -20 -15
-30 -15 -10 0 -24 -10 -33 -22 -8 -13 -38 -32 -67 -43 -29 -11 -60 -30 -70
-42 -10 -13 -27 -23 -37 -23 -11 0 -30 -11 -43 -25 -14 -15 -35 -25 -51 -25
-18 0 -32 -7 -39 -20 -6 -11 -21 -20 -35 -20 -13 0 -30 -8 -37 -19 -12 -18
-96 -61 -117 -61 -6 0 -16 -9 -23 -20 -7 -11 -23 -20 -35 -20 -13 0 -35 -13
-50 -30 -14 -16 -36 -30 -47 -30 -12 0 -29 -9 -39 -20 -9 -11 -27 -20 -40 -20
-13 0 -32 -9 -42 -20 -10 -11 -28 -20 -41 -20 -13 0 -28 -9 -34 -20 -7 -13
-21 -20 -39 -20 -15 0 -36 -9 -46 -20 -11 -12 -31 -20 -50 -20 -19 0 -39 -8
-50 -20 -10 -11 -31 -20 -48 -20 -17 0 -42 -11 -60 -26 -23 -19 -38 -24 -58
-20 -21 4 -36 -1 -58 -19 -19 -16 -41 -25 -64 -25 -20 0 -57 -11 -83 -25 -26
-14 -62 -25 -80 -25 -18 0 -52 -9 -74 -21 -27 -14 -49 -19 -66 -15 -18 5 -39
-1 -69 -19 -29 -17 -58 -25 -89 -25 -27 0 -62 -9 -88 -22 -27 -14 -61 -22 -94
-23 -36 0 -58 -6 -72 -18 -14 -13 -39 -19 -79 -21 -36 -2 -73 -11 -98 -24 -25
-14 -57 -22 -89 -22 -28 0 -56 -6 -65 -14 -9 -7 -42 -21 -74 -30 -45 -13 -58
-21 -55 -34 8 -39 48 -44 327 -42 495 4 493 4 531 24 24 13 60 20 113 22 46 2
105 12 143 24 45 15 76 20 100 15 27 -5 48 0 92 21 38 18 76 28 117 29 37 2
75 11 100 24 27 15 49 19 71 15 23 -4 48 2 89 21 39 19 66 25 85 21 22 -4 37
1 59 19 20 18 41 25 70 25 25 0 60 10 89 25 26 14 60 25 76 25 16 0 37 7 47
16 10 9 40 19 66 21 27 3 57 14 69 25 12 10 37 20 57 21 19 1 44 10 55 20 11
10 32 17 50 15 21 -1 39 5 56 21 16 15 39 24 65 26 22 1 51 11 66 24 15 11 41
21 57 21 17 0 41 9 55 20 14 11 36 20 49 20 13 0 40 11 61 25 20 14 46 25 58
24 36 -2 45 1 45 16 0 11 11 15 38 15 26 0 45 7 57 20 10 11 29 20 41 20 13 0
29 9 36 20 8 12 24 20 40 20 16 0 34 9 46 25 12 15 30 25 44 25 14 0 33 9 43
20 10 11 29 20 41 20 13 0 29 9 36 20 7 11 23 20 35 20 12 0 35 11 51 25 17
14 39 25 51 25 11 0 26 9 33 20 8 12 24 20 39 20 14 0 36 11 49 25 13 14 34
25 47 25 12 0 28 9 35 20 7 11 23 20 35 20 12 0 30 8 40 19 18 19 103 61 122
61 6 0 16 9 23 20 7 11 23 20 35 20 22 0 53 24 53 41 0 5 11 9 24 9 14 0 37
11 52 25 15 14 35 25 44 25 10 0 20 7 24 15 3 8 15 15 26 15 11 0 30 11 42 25
12 14 32 25 45 25 13 0 26 7 29 15 3 8 35 28 69 44 35 17 69 40 75 51 6 11 17
20 26 20 16 0 94 49 94 60 0 3 46 43 103 87 136 108 229 191 245 220 7 12 19
23 26 23 8 0 16 7 20 15 3 8 12 15 20 15 8 0 21 8 28 18 7 10 32 31 55 46 23
16 49 38 57 51 9 13 25 26 36 30 11 3 20 13 20 20 0 8 9 19 20 25 11 6 20 15
20 20 0 18 -217 227 -275 265 -33 22 -67 49 -76 60 -9 11 -39 31 -65 45 -52
25 -62 32 -100 68 -14 12 -35 22 -48 22 -14 0 -30 10 -39 24 -17 25 -69 56
-94 56 -8 0 -24 11 -36 24 -12 13 -37 27 -54 30 -18 4 -33 14 -33 21 0 14 -21
25 -50 25 -10 0 -25 11 -34 25 -10 15 -26 25 -40 25 -13 0 -29 7 -36 15 -7 8
-19 15 -26 15 -8 0 -19 9 -26 20 -8 12 -24 20 -39 20 -14 0 -36 11 -49 25 -13
14 -33 25 -46 25 -12 0 -29 11 -38 25 -11 17 -26 25 -44 25 -16 0 -32 8 -40
20 -7 11 -23 20 -35 20 -13 0 -34 11 -47 25 -13 14 -32 25 -42 25 -22 0 -72
24 -107 51 -13 11 -34 19 -46 19 -12 0 -36 14 -53 30 -18 17 -43 30 -56 30
-13 0 -29 7 -36 15 -7 8 -22 15 -34 15 -13 0 -33 11 -46 25 -14 15 -35 25 -50
25 -15 0 -35 9 -45 20 -10 11 -28 20 -40 20 -12 0 -30 9 -40 20 -10 11 -30 20
-45 20 -15 0 -35 9 -45 20 -10 11 -30 20 -45 20 -15 0 -35 9 -45 20 -10 11
-30 20 -45 20 -15 0 -44 13 -65 30 -26 21 -44 28 -60 24 -17 -4 -26 0 -35 15
-8 15 -20 21 -45 21 -24 0 -39 6 -47 20 -9 14 -24 20 -46 20 -22 0 -45 9 -65
26 -22 18 -37 24 -55 19 -17 -4 -31 0 -46 13 -11 11 -37 22 -57 26 -20 3 -44
15 -54 26 -12 13 -31 20 -55 20 -21 0 -43 7 -50 15 -7 8 -25 15 -40 15 -15 0
-43 11 -62 23 -19 13 -53 26 -77 30 -23 3 -51 13 -62 23 -10 9 -37 18 -59 19
-26 2 -50 10 -64 24 -15 14 -35 21 -64 21 -29 0 -48 6 -62 20 -13 13 -33 20
-58 20 -21 0 -48 8 -62 17 -13 9 -47 20 -76 24 -29 4 -66 17 -83 30 -21 16
-43 22 -72 21 -27 -1 -53 5 -75 19 -23 14 -43 19 -62 14 -20 -4 -43 2 -83 24
-38 20 -69 29 -100 29 -29 -1 -57 7 -82 22 -27 16 -46 21 -67 16 -32 -6 -80 8
-91 26 -4 7 -36 12 -71 13 -45 0 -76 7 -106 23 -28 14 -61 22 -95 22 -29 1
-77 9 -107 20 -30 11 -82 20 -115 20 -39 0 -76 8 -105 21 -31 14 -80 24 -155
30 -60 5 -128 14 -150 20 -39 11 -711 22 -765 13z"/>
<path d="M6425 8800 c-27 -11 -66 -19 -86 -20 -23 0 -42 -7 -54 -20 -10 -11
-30 -20 -45 -20 -15 0 -36 -10 -50 -25 -13 -14 -29 -25 -36 -25 -22 0 -112
-90 -134 -134 -11 -24 -27 -47 -35 -50 -9 -3 -15 -19 -15 -40 0 -19 -9 -55
-20 -81 -26 -60 -25 -121 1 -187 12 -30 18 -64 15 -79 -3 -19 1 -32 14 -44 11
-10 20 -29 20 -42 0 -25 21 -53 38 -53 5 0 13 -12 17 -27 7 -31 167 -193 189
-193 17 0 96 -51 96 -61 0 -5 17 -11 38 -15 20 -4 48 -15 62 -24 14 -9 54 -20
90 -24 36 -4 71 -13 78 -19 18 -14 196 -14 214 1 7 6 38 14 68 18 30 4 66 15
79 25 13 11 34 19 46 19 13 0 30 11 39 25 9 14 23 25 30 25 17 0 106 89 106
105 0 7 11 20 25 29 18 12 25 25 25 47 0 17 9 42 20 56 17 22 19 41 19 199 -1
155 -3 176 -20 198 -10 13 -19 38 -19 55 0 22 -7 35 -25 47 -14 9 -25 24 -25
34 0 31 -23 63 -95 134 -69 68 -122 106 -148 106 -8 0 -22 9 -32 20 -11 12
-31 20 -51 20 -18 0 -53 9 -79 20 -65 28 -285 28 -360 0z"/>
<path d="M4445 8260 c-17 -33 -12 -67 13 -86 10 -7 13 -21 10 -45 -4 -27 0
-40 23 -67 17 -19 29 -44 29 -61 0 -15 9 -36 20 -46 11 -10 20 -31 20 -47 0
-16 6 -31 15 -35 16 -6 55 -77 55 -99 0 -7 10 -21 23 -31 12 -10 43 -49 69
-88 49 -72 68 -93 151 -167 26 -23 47 -47 47 -52 1 -19 120 -109 177 -135 12
-6 26 -18 31 -28 6 -10 35 -31 66 -46 31 -16 61 -37 66 -48 6 -10 21 -19 34
-19 12 0 33 -11 46 -25 13 -14 34 -25 46 -25 13 0 28 -9 34 -20 7 -13 21 -20
39 -20 15 0 36 -9 46 -20 10 -11 30 -20 45 -20 15 0 35 -9 45 -20 10 -11 30
-20 45 -20 15 0 33 -7 40 -15 7 -8 27 -15 45 -15 21 0 45 -9 63 -25 18 -15 42
-25 62 -25 18 0 47 -8 64 -19 17 -10 54 -21 81 -24 28 -3 70 -17 94 -30 35
-20 48 -23 62 -14 13 8 31 5 81 -15 42 -17 82 -26 121 -26 35 0 68 -7 82 -16
13 -8 34 -17 47 -20 12 -3 37 -8 55 -11 17 -4 39 -3 48 2 9 6 32 6 53 2 21 -5
78 -17 127 -28 106 -24 58 -22 645 -21 382 1 478 4 535 17 137 30 189 37 226
28 18 -5 51 3 100 23 47 18 85 28 104 25 21 -3 47 4 79 21 31 16 65 26 92 26
26 0 49 6 59 17 11 10 34 17 65 17 31 1 55 8 67 19 13 11 36 17 65 17 35 0 50
5 69 26 19 20 31 25 56 21 24 -4 42 1 68 19 20 13 50 24 69 24 18 0 45 9 59
20 14 11 38 20 55 20 16 0 37 9 47 20 11 12 31 20 50 20 20 0 42 9 59 25 18
17 39 25 61 25 24 0 38 6 45 20 7 14 21 20 43 20 21 0 38 7 47 20 8 11 26 20
40 20 15 0 37 11 50 25 13 14 35 25 49 25 16 0 31 8 39 21 9 14 19 18 32 14
14 -4 27 2 44 19 13 14 33 26 44 26 12 0 29 11 38 25 10 16 26 25 41 25 15 0
33 10 45 25 11 14 25 25 33 25 7 0 15 6 18 14 3 8 18 16 34 18 17 2 32 11 37
24 8 19 47 48 86 65 8 4 47 36 86 73 55 50 73 74 78 102 9 45 -5 62 -55 70
-21 4 -46 15 -55 25 -11 12 -31 19 -55 19 -25 0 -47 8 -67 25 -17 14 -42 25
-60 25 -16 0 -35 7 -42 15 -7 8 -23 15 -35 15 -12 0 -33 8 -46 18 -13 10 -42
24 -65 30 -22 7 -49 21 -59 32 -10 11 -30 20 -45 20 -15 0 -35 9 -45 20 -10
11 -30 20 -45 20 -15 0 -33 6 -39 14 -6 7 -30 16 -52 19 -23 3 -51 15 -63 26
-15 14 -36 21 -62 21 -22 0 -49 7 -60 15 -27 20 -38 19 -80 -10 -34 -23 -84
-92 -84 -116 0 -7 -237 -245 -292 -294 -10 -8 -26 -15 -37 -15 -10 0 -26 -11
-35 -25 -9 -14 -22 -25 -30 -25 -7 0 -21 -9 -31 -20 -10 -11 -26 -20 -35 -20
-9 0 -25 -9 -35 -20 -10 -11 -29 -20 -41 -20 -14 0 -30 -10 -40 -25 -9 -14
-26 -25 -39 -25 -12 0 -30 -9 -40 -20 -10 -11 -28 -20 -40 -20 -12 0 -34 -9
-48 -20 -14 -11 -36 -20 -49 -20 -14 0 -35 -11 -48 -25 -13 -14 -30 -23 -38
-20 -8 3 -27 -6 -44 -20 -17 -15 -42 -25 -60 -25 -18 0 -42 -10 -60 -25 -16
-14 -42 -25 -58 -25 -15 0 -33 -7 -40 -15 -7 -8 -28 -15 -47 -15 -23 0 -46 -9
-64 -24 -23 -20 -36 -24 -65 -19 -27 5 -42 1 -67 -18 -22 -16 -47 -24 -82 -25
-27 -1 -70 -11 -95 -22 -29 -13 -66 -20 -105 -20 -40 0 -80 -7 -120 -23 -50
-19 -76 -23 -155 -22 -52 1 -139 -5 -192 -13 -132 -19 -326 -17 -478 5 -83 12
-131 16 -143 9 -23 -12 -100 0 -152 23 -26 12 -64 19 -108 19 -52 0 -82 6
-125 26 -39 18 -65 24 -87 20 -23 -5 -39 -1 -58 14 -16 12 -40 20 -65 20 -29
0 -49 7 -70 25 -20 17 -42 25 -67 25 -25 0 -47 8 -68 26 -21 18 -37 24 -53 20
-17 -5 -26 -1 -34 14 -7 14 -21 20 -44 20 -22 0 -40 8 -57 26 -14 15 -31 23
-42 20 -11 -3 -23 4 -33 20 -10 15 -26 24 -41 24 -14 0 -33 9 -43 20 -9 11
-43 31 -74 46 -31 14 -61 34 -66 45 -6 10 -19 19 -30 19 -10 0 -22 5 -25 11
-4 5 -18 15 -32 20 -14 5 -27 17 -30 27 -3 9 -39 42 -80 72 -117 85 -303 281
-326 343 -4 9 -18 22 -32 27 -14 5 -25 17 -25 25 0 9 -7 23 -15 31 -8 9 -15
24 -15 34 0 11 -12 26 -29 35 -20 10 -31 24 -33 42 -4 40 -33 41 -53 3z"/>
<path d="M15805 6030 c0 -201 1 -283 2 -182 2 100 2 264 0 365 -1 100 -2 18
-2 -183z"/>
<path d="M15804 5425 c0 -71 1 -99 3 -62 2 37 2 96 0 130 -2 34 -3 4 -3 -68z"/>
<path d="M15803 4920 c0 -25 2 -35 4 -22 2 12 2 32 0 45 -2 12 -4 2 -4 -23z"/>
<path d="M5548 193 c23 -2 61 -2 85 0 23 2 4 4 -43 4 -47 0 -66 -2 -42 -4z"/>
<path d="M5848 193 c6 -2 18 -2 25 0 6 3 1 5 -13 5 -14 0 -19 -2 -12 -5z"/>
</g>
</svg>
