<svg fill="none" xmlns="http://www.w3.org/2000/svg">

  <!-- stroke icons: -->

  <symbol id="icon-cogwheel" viewBox="0 0 40 40" width="100%" height="100%" fill="none">
    <path  d="M19.892 30.4056L15.3411 31.8788L13.1649 27.6191L8.90522 25.4429L10.3784 20.892L8.90522 16.3411L13.1649 14.1649L15.3411 9.90522L19.892 11.3784L24.4429 9.90522L26.6191 14.1649L30.8788 16.3411L29.4056 20.892L30.8788 25.4429L26.6191 27.6191L24.4429 31.8788L19.892 30.4056Z"/>
    <circle cx="19.7318" cy="21.0003" r="2.83556"/>
  </symbol>

  <symbol id="icon-thumbup" viewBox="0 0 40 40" width="100%" height="100%" fill="none">
    <path d="M12.8894 15.0249L21.7054 6.3191C21.8851 6.14166 22.1736 6.14009 22.3552 6.31555V6.31555C23.7841 7.69613 24.2842 9.77939 23.6375 11.6582L22.7183 14.3287H29.6487C31.9126 14.3287 33.5211 16.5328 32.8306 18.6888L29.4622 29.2069H12.8894M12.8894 15.0249V29.2069M12.8894 15.0249H7V29.2069H12.8894"/>
  </symbol>

  <symbol id="icon-thumbdown" viewBox="0 0 40 40" width="100%" height="100%" fill="none">
    <path d="M26.1106 23.9751L17.2946 32.6809C17.1149 32.8583 16.8264 32.8599 16.6448 32.6845V32.6845C15.2159 31.3039 14.7158 29.2206 15.3625 27.3418L16.2817 24.6713L9.35133 24.6713C7.08743 24.6713 5.47894 22.4672 6.16941 20.3112L9.53781 9.79308L26.1106 9.79308M26.1106 23.9751L26.1106 9.79308M26.1106 23.9751L32 23.9751L32 9.79308L26.1106 9.79308"/>
  </symbol>

   <symbol id="icon-share" viewBox="0 0 40 40" width="100%" height="100%" fill="none">
    <path d="M13.5 19L23 14"/>
    <path d="M13.5 21L23 26"/>
    <ellipse cx="26" cy="12.5" rx="2.99999" ry="3"/>
    <ellipse cx="26" cy="27.5" rx="2.99999" ry="3"/>
    <ellipse cx="11" cy="20" rx="2.99999" ry="3"/>
  </symbol>

   <symbol id="icon-wiki" viewBox="0 0 40 40" width="100%" height="100%" fill="none">
    <path d="M31.8212 11L24.3826 28.3142L16.646 11"/>
    <path d="M22.7764 11L15.3378 28.3142L7.6012 11"/>
  </symbol>

   <symbol id="icon-refresh" viewBox="0 0 40 40" width="100%" height="100%" fill="none">
    <path d="M31.9998 19.9993C31.9998 13.3719 26.6272 7.99933 19.9998 7.99933C13.3723 7.99933 7.99976 13.3719 7.99976 19.9993C7.99976 26.6267 13.3723 31.9993 19.9998 31.9993C23.3056 31.9993 26.2993 30.6625 28.4696 28.5"/>
    <path d="M27.5 16.5L32 21L36.5 16.5"/>
  </symbol>

  <symbol id="icon-wikipedia" viewBox="0 0 40 40" width="100%" height="100%" fill="none">
    <path d="M31.6425 13L24.465 29L17 13"/>
    <path d="M22.9153 13L15.7378 29L8.27283 13"/>
    <path d="M11 13H5"/>
    <path d="M35.0001 13H29.0001"/>
    <path d="M18.6364 13H13.7273"/>
    <path d="M26.2726 13H21.3635"/>
  </symbol>

  <symbol id="icon-menu" viewBox="0 0 40 40" width="100%" height="100%" fill="none">
    <path d="M10 12.5H30"/>
    <path d="M10 20H30"/>
    <path d="M10 27.5H30"/>
  </symbol>

  <symbol id="icon-lang" viewBox="0 0 40 40" width="100%" height="100%" fill="none">
    <path d="M30.5195 30.8225L24.3751 19.7819L18.2307 30.8225"/>
    <path d="M27.603 25.941H20.9406"/>
    <path d="M23.8446 11.5403H9.44995"/>
    <path d="M16.8824 9.2V11.5403"/>
    <path d="M20.0278 12.3455C20.0278 18.5138 11.4435 24.2868 11.4435 24.2868"/>
    <path d="M14.021 15.2423C14.9773 19.1734 22.1248 24.2868 22.1248 24.2868"/>
  </symbol>

  <symbol id="icon-search" viewBox="0 0 40 40" width="100%" height="100%" fill="none">
    <path d="M15.497 25.3531C18.9033 28.7594 24.426 28.7594 27.8324 25.3531C31.2387 21.9467 31.2387 16.424 27.8324 13.0177C24.426 9.61137 18.9033 9.61137 15.497 13.0177C12.0907 16.424 12.0907 21.9467 15.497 25.3531ZM15.497 25.3531L10.4177 30.4323"/>
  </symbol>

  <symbol id="icon-bookmark" viewBox="0 0 40 40" width="100%" height="100%" fill="none">
    <path d="M13 10.5V30.0406L19.655 25.4375L26.31 30.0406V10.5H13Z"/>
  </symbol>

  <symbol id="icon-play" viewBox="0 0 40 40" width="100%" height="100%" fill="none">
    <path d="M27 20L16.5 26.0622L16.5 13.9378L27 20Z"/>
  </symbol>

  <symbol id="icon-download" viewBox="0 0 40 40" width="100%" height="100%" fill="none">
    <path d="M24.3809 17.5L20.1904 20.5M15.9999 17.5L20.1904 20.5M20.1904 20.5L20.1904 11"/>
    <path d="M29.381 21L29.381 29L11 29L11 21"/>  
  </symbol>

  <symbol id="icon-close" viewBox="0 0 40 40" width="100%" height="100%" fill="none">
    <path d="M13.0709 27.0709L27.2131 12.9288"/>
    <path d="M13.071 12.9289L27.2132 27.0711"/>
  </symbol>

  <symbol id="icon-bottom" viewBox="0 0 40 40" width="100%" height="100%" fill="none">
    <path d="M13 18L20 23L27 18"/>
  </symbol>

  <symbol id="icon-top" viewBox="0 0 40 40" width="100%" height="100%" fill="none">
    <path d="M13 21L20 16L27 21"/>
  </symbol>

  <symbol id="icon-left" viewBox="0 0 40 40" width="100%" height="100%" fill="none">
    <path d="M22 13L17 20L22 27"/>
  </symbol>

  <symbol id="icon-right" viewBox="0 0 40 40" width="100%" height="100%" fill="none">
    <path d="M19 13L24 20L19 27"/>
  </symbol>

  <symbol id="icon-check" viewBox="0 0 40 40" width="100%" height="100%" fill="none">
    <path d="M11 20.5L16.5 26L28.5 14"/>
  </symbol>

  <symbol id="icon-jump-to" viewBox="0 0 40 40" width="100%" height="100%" fill="none">
    <path d="M30.4434 14.995L18.4027 14.995L24.423 7.68501L30.4434 14.995Z"/>
    <path d="M24.3905 15.3056V23C24.3905 27.9706 20.361 32 15.3905 32H8"/>
  </symbol>
  
  <symbol id="icon-scroll-to" viewBox="0 0 40 40" width="100%" height="100%" fill="none">
    <path d="M8.00001 24.69L20.0406 24.69L14.0203 32L8.00001 24.69Z"/>
    <path d="M14.0529 24.3794V16.685C14.0529 11.7144 18.0823 7.68501 23.0529 7.68501H30.4434"/>
  </symbol>

  <symbol id="icon-copy" viewBox="0 0 40 40" width="100%" height="100%" fill="none">
    <path d="M9 13V33H26V13H9Z"/>
    <path d="M15 12V7H32V27H27.0417"/>
  </symbol>

  <symbol id="icon-twitter" viewBox="0 0 40 40" width="100%" height="100%" fill="none">
    <path d="M25.3756 27.3312C20.0048 32.503 10.3773 30.6642 7 28.7097L12.0437 24.8315C12.0437 24.8315 4.54504 19.8321 7.87799 11.4997C11.2958 13.8935 15.0479 16.0567 17.9775 16.0568C17.652 14.9396 17.7138 11.3232 20.3298 9.78406C22.771 8.34773 25.8792 10.0377 27.0185 10.9952L30.523 9L29.8171 12.4315L32.8752 13.7046L28.9548 16.0568C28.9548 18.9988 29.7927 23.0779 25.3756 27.3312Z"/>
  </symbol>

  <symbol id="icon-trash" viewBox="0 0 40 40" width="100%" height="100%" fill="none">
    <path d="M11 11L11.905 29.0999C11.9582 30.1643 12.8368 31 13.9025 31H26.0975C27.1633 31 28.0418 30.1643 28.095 29.0999L29 11H11Z"/>
    <path d="M23.5 27L23.5 15"/>
    <path d="M20 27L20 15"/>
    <path d="M25.5 11L22.75 7.5L20 7.5L17.25 7.5L14.5 11"/>
    <path d="M16.5 27L16.5 15"/>
  </symbol>

  <symbol id="icon-article" viewBox="0 0 40 40" width="100%" height="100%" fill="none">
    <path d="M23.5 34H9.5V7H30.5V26M23.5 34V26H30.5M23.5 34L30.5 26"/>
    <path d="M13.5 12.5H26.5"/>
    <path d="M13.5 18H26.5"/>
  </symbol>

  <symbol id="icon-clip" viewBox="0 0 40 40" width="100%" height="100%" fill="none">
    <path d="M30.9137 12.4211L16.9895 20.1366L13.85 24.3692"/>
    <circle cx="11.8024" cy="25.803" r="3.16619" transform="rotate(-125 11.8024 25.803)"/>
    <path d="M30.9179 27.5839L16.9936 19.8684L13.8542 15.6358"/>
    <circle r="3.16619" transform="matrix(-0.573576 0.819152 0.819152 0.573576 11.8057 14.2024)"/>
  </symbol>

  <symbol id="icon-audio" viewBox="0 0 40 40" width="100%" height="100%" fill="none">
    <path d="M9.5 13.5V26.5H17L23.5 31V9L17 13.5H9.5Z"/>
    <path d="M27.5 15V15C29.8385 17.9232 29.8385 22.0768 27.5 25V25"/>
    <path d="M31.5 13V13C33.9786 17.3376 33.9786 22.6624 31.5 27V27"/>
  </symbol>

  <symbol id="icon-mute" viewBox="0 0 40 40" width="100%" height="100%" fill="none">
    <path d="M19 26.5L25.5 31V18.5"/>
    <path d="M25.5 14V9L19 13.5H11.5V26.5H14"/>
    <path d="M12 33L34 10"/>
  </symbol>

  <symbol id="icon-stop" viewBox="0 0 40 40" width="100%" height="100%" fill="none">
    <path  d="M12.5 12.5V27.5H27.5V12.5H12.5Z" />
  </symbol>

  <symbol id="icon-pause" viewBox="0 0 40 40" width="100%" height="100%" fill="none">
    <path d="M12.5 12V28H17.5V12H12.5Z"/>
    <path d="M22.5 12V28H27.5V12H22.5Z"/>  
  </symbol>

  <symbol id="icon-minus" viewBox="0 0 40 40" width="100%" height="100%" fill="none">
    <path d="M12 20H28" />
  </symbol>

  <symbol id="icon-plus" viewBox="0 0 40 40" width="100%" height="100%" fill="none">
    <path d="M11 19.9998H29"/>
    <path d="M20 11L20 29"/>
  </symbol>

  <symbol id="icon-copy" viewBox="0 0 40 40" width="100%" height="100%" fill="none">
    <path d="M9 13V33H26V13H9Z"/>
    <path d="M15 12V7H32V27H27.0417"/>
  </symbol>

  <symbol id="icon-edit" viewBox="0 0 40 40" width="100%" height="100%" fill="none">
    <path d="M18.8077 28.8405L29.7057 13.2766C30.9728 11.467 30.533 8.9728 28.7234 7.70569V7.70569C26.9138 6.43858 24.4196 6.87838 23.1525 8.688L12.2545 24.2519L10.7142 32.9396L18.8077 28.8405Z"/>
    <path d="M16.1048 25.727L21.8405 17.5355"/>
  </symbol>

  <symbol id="icon-research" viewBox="0 0 40 40" width="100%" height="100%" fill="none">
    <path d="M8 8V30.2907L20 32L32 30.2907V8L20 9.70932L8 8Z"/>
    <path d="M20.0001 9.70932L20.0001 31.9305"/>
    <path d="M29.0001 13.5553L23.0001 14.41"/>
    <path d="M29.0001 18.6833L23.0001 19.5379"/>
    <path d="M29.0001 23.8112L23.0001 24.6659"/>
  </symbol>

  <symbol id="icon-bulb" viewBox="0 0 40 40" width="100%" height="100%" fill="none">
    <path d="M20 8.00001C13.6396 8.00001 9.55811 14.7604 12.5205 20.3889L13.5 22.25L15 27H25L26.5 22.25L27.4795 20.3889C30.4419 14.7604 26.3604 8.00001 20 8.00001V8.00001Z"/>
    <path d="M24 16.5L22 15L20 16.5L18 15L16 16.5"/>
    <path d="M15 30L25 30"/>
    <path d="M16 33L24 33"/>
  </symbol>

  <symbol id="icon-new-tab" viewBox="0 0 40 40" width="100%" height="100%">
    <path d="M30 24V30L10 30L10 10L15.9583 10" fill="none"/>
    <path d="M21 10H30M30 19V10M30 10L21 19"/>
  </symbol>

  <symbol id="icon-dna" viewBox="0 0 40 40" width="100%" height="100%" >
    <path d="M17.1263 13.2929L26.3187 22.4853"/>
    <path d="M24.1973 6.22174L33.3897 15.4141"/>
    <path d="M13.5908 16.8284L22.7832 26.0208"/>
    <path d="M6.51965 23.8994L15.712 33.0918"/>
    <path d="M24.3492 13.7936L24.7735 12.8881L24.3492 13.7936ZM34.7703 13.2592C33.7681 14.2614 32.7912 14.8007 31.4008 14.8354C29.9264 14.8722 27.8829 14.3451 24.7735 12.8881L23.9249 14.6992C27.1119 16.1925 29.5008 16.8834 31.4507 16.8348C33.4844 16.784 34.9234 15.9345 36.1845 14.6734L34.7703 13.2592ZM24.7735 12.8881C20.9764 11.1089 17.4184 11.38 14.9461 13.2562C12.4806 15.1273 11.3335 18.4158 11.9831 22.1667L13.9538 21.8254C13.4043 18.6529 14.4029 16.1792 16.1551 14.8494C17.9005 13.5248 20.6324 13.1564 23.9249 14.6992L24.7735 12.8881Z" stroke="none"/>
    <path d="M25.5153 4.00422C23.3542 6.16534 22.7876 8.60471 25.3094 14.3021" fill="none"/>
    <path d="M13.9958 35.5153C16.1569 33.3542 16.7235 30.9148 14.2017 25.2175" fill="none"/>
    <path d="M15.1812 25.7066L14.7569 26.6121L15.1812 25.7066ZM4.76009 26.241C5.76229 25.2388 6.73915 24.6995 8.12962 24.6648C9.60395 24.628 11.6475 25.1551 14.7569 26.6121L15.6055 24.8011C12.4185 23.3077 10.0296 22.6168 8.07973 22.6654C6.04603 22.7162 4.60698 23.5657 3.34588 24.8268L4.76009 26.241ZM14.7569 26.6121C18.554 28.3913 22.112 28.1203 24.5843 26.244C27.0498 24.3729 28.1969 21.0844 27.5473 17.3335L25.5766 17.6748C26.1261 20.8473 25.1275 23.321 23.3753 24.6508C21.6299 25.9754 18.898 26.3438 15.6055 24.8011L14.7569 26.6121Z" stroke="none"/>
  </symbol>

  <symbol id="icon-hatnotes" viewBox="0 0 40 40" width="100%" height="100%" fill='none'>
    <path d="M3 20.1506L30.989 20.1506"/>
    <path d="M9.72729 20.1506L16.8342 11.6194L24.3811 11.6194"/>
    <circle cx="27.0533" cy="11.4213" r="2.70455"/>
    <circle cx="27.0533" cy="28.4213" r="2.70455"/>
    <circle cx="33.4625" cy="19.9213" r="2.70455"/>
    <path d="M9.72729 20.1194L16.8342 28.6506H24.3811"/>
  </symbol>

  <symbol id="icon-summary" viewBox="0 0 40 40" width="100%" height="100%" fill='none'>
    <path d="M23 6L20 9L17 6"/>
    <path d="M23 34L20 31L17 34"/>
    <path d="M32 15.5L8 15.5"/>
    <path d="M32 20.25L8 20.25"/>
    <path d="M24 25L8 25"/>
  </symbol>

  <symbol id="icon-close-summary" viewBox="0 0 40 40" width="100%" height="100%" fill='none'>
    <path d="M23 30L20 33L17 30"/>
    <path d="M23 10L20 7L17 10"/>
    <path d="M32 17L8 17"/>
    <path d="M26 23L8 23"/>
  </symbol>

  <symbol id="icon-home" viewBox="0 0 40 40" width="100%" height="100%" fill='none'>
    <path d="M9 16V30H31V16L20 9L9 16Z"/>
    <path d="M20 23C18.3431 23 17 24.3431 17 26V30H23V26C23 24.3431 21.6569 23 20 23V23Z"/>
  </symbol>

  <symbol id="icon-learn" viewBox="0 0 40 40" width="100%" height="100%" fill='none'>
    <path d="M29.75 17V24.4019C29.75 25.4094 29.5002 26.419 28.7586 27.1009C27.453 28.3014 24.689 30 19.5 30C14.311 30 11.5469 28.3014 10.2414 27.1009C9.49979 26.419 9.25 25.4094 9.25 24.4019V17"/>
    <path d="M34.5 15L19.5 9L4.5 15L19.5 21L34.5 15ZM34.5 15V24.5"/>
  </symbol>

  <symbol id="icon-print" viewBox="0 0 40 40" width="100%" height="100%" fill='none'>
    <path d="M10 10V24H30V10H10Z"/>
    <path d="M14 24V31H26V24H14Z"/>
    <path d="M24 15L16 15"/>
    <path d="M24 19H16"/>
  </symbol>

  <symbol id="icon-time" viewBox="0 0 40 40" width="100%" height="100%" fill='none'>
    <path d="M31.9998 19.9993C31.9998 26.6267 26.6272 31.9993 19.9998 31.9993C13.3723 31.9993 7.99976 26.6267 7.99976 19.9993C7.99976 13.3719 13.3723 7.99933 19.9998 7.99933C26.6272 7.99933 31.9998 13.3719 31.9998 19.9993Z"/>
    <path d="M26.4998 19.9993H19.9998V12.9993"/>
  </symbol>

  <symbol id="icon-chat" viewBox="0 0 40 40" width="100%" height="100%" fill='none'>
    <path d="M32 10V26H20.5L13.25 32V26H8V10H32Z"/>
    <path d="M12.5 15.5H22.5"/>
  </symbol>


  <symbol id="icon-rel" viewBox="0 0 40 40" width="100%" height="100%" fill='none'>
    <path d="M19.5001 19.9987L14 19.9987M19.5001 19.9987L24.7513 14.7486M19.5001 19.9987L24.7491 25.25"/>
    <circle cx="26.9996" cy="12.5" r="3.00001"/>
    <circle cx="26.9996" cy="27.5" r="3.00001"/>
    <circle cx="10.5" cy="19.9987" r="3.00001"/>
  </symbol>

  <symbol id="icon-tech" viewBox="0 0 40 40" width="100%" height="100%" fill='none'>
    <rect x="17" y="12" width="16" height="16"/>
    <path d="M17 26L12 26"/>
    <circle r="2" transform="matrix(1 0 0 -1 10.5 26)"/>
    <path d="M17 14L12 14"/>
    <circle r="2" transform="matrix(1 0 0 -1 10.5 14)"/>
    <path d="M17 20H8"/>
    <circle r="2" transform="matrix(1 0 0 -1 6 20)"/>
    <path d="M29.5 12V8"/>
    <path d="M29.5 32V27.5"/>
    <path d="M25 12V8"/>
    <path d="M20.5 12V8"/>
    <path d="M33 24.5L37 24.5"/>
    <path d="M33 20L37 20"/>
    <path d="M33 15.5L37 15.5"/>
    <path d="M25 32V27.5"/>
    <path d="M20.5 32V27.5"/>
  </symbol>



  <!-- fill icons: -->

  <symbol id="icon-plus-fill" viewBox="0 0 40 40" width="100%" height="100%">
    <path d="M20 34C27.732 34 34 27.732 34 20C34 12.268 27.732 6 20 6C12.268 6 6 12.268 6 20C6 27.732 12.268 34 20 34ZM18.75 27V21.2498H13V18.7498H18.75V13H21.25V18.7498H27V21.2498H21.25V27H18.75Z" stroke="none"/>
  </symbol>

  <symbol id="icon-minus-fill" viewBox="0 0 40 40" width="100%" height="100%">
    <path fill-rule="evenodd" d="M20 34C27.732 34 34 27.732 34 20C34 12.268 27.732 6 20 6C12.268 6 6 12.268 6 20C6 27.732 12.268 34 20 34ZM14 21.25H26V18.75H14V21.25Z" stroke="none"/>
  </symbol>

  <symbol id="icon-trash-fill" viewBox="0 0 40 40" width="100%" height="100%">
    <path d="M4.63809 5.25L7.28514 0.750008H14.715L17.3621 5.25H20.9349C21.512 5.25 21.9693 5.7371 21.9329 6.31303L20.6776 26.1891C20.5778 27.7694 19.267 29 17.6836 29H4.31658C2.73315 29 1.42235 27.7694 1.32255 26.1891L0.0672147 6.31303C0.03084 5.7371 0.488146 5.25 1.06523 5.25H4.63809ZM13.2851 3.25001L14.4616 5.25H7.53854L8.71501 3.25001H13.2851ZM7.75012 23L7.75013 12H5.25013L5.25012 23H7.75012ZM12.2501 23L12.2501 12H9.75013L9.75012 23H12.2501ZM16.7501 23L16.7501 12H14.2501L14.2501 23H16.7501Z" stroke="none"/>
  </symbol>
  
  <symbol id="icon-drag" viewBox="0 0 40 40" width="100%" height="100%">
    <path d="M14.75 14.625C13.7835 14.625 13 13.8415 13 12.875C13 11.9085 13.7835 11.125 14.75 11.125C15.7165 11.125 16.5 11.9085 16.5 12.875C16.5 13.8415 15.7165 14.625 14.75 14.625ZM14.75 21.625C13.7835 21.625 13 20.8415 13 19.875C13 18.9085 13.7835 18.125 14.75 18.125C15.7165 18.125 16.5 18.9085 16.5 19.875C16.5 20.8415 15.7165 21.625 14.75 21.625ZM13 26.875C13 27.8415 13.7835 28.625 14.75 28.625C15.7165 28.625 16.5 27.8415 16.5 26.875C16.5 25.9085 15.7165 25.125 14.75 25.125C13.7835 25.125 13 25.9085 13 26.875Z" stroke="none"/>
    <path d="M24.75 14.625C23.7835 14.625 23 13.8415 23 12.875C23 11.9085 23.7835 11.125 24.75 11.125C25.7165 11.125 26.5 11.9085 26.5 12.875C26.5 13.8415 25.7165 14.625 24.75 14.625ZM24.75 21.625C23.7835 21.625 23 20.8415 23 19.875C23 18.9085 23.7835 18.125 24.75 18.125C25.7165 18.125 26.5 18.9085 26.5 19.875C26.5 20.8415 25.7165 21.625 24.75 21.625ZM23 26.875C23 27.8415 23.7835 28.625 24.75 28.625C25.7165 28.625 26.5 27.8415 26.5 26.875C26.5 25.9085 25.7165 25.125 24.75 25.125C23.7835 25.125 23 25.9085 23 26.875Z" stroke="none"/>
  </symbol>

  <symbol id="icon-social-twitter-fill" viewBox="0 0 40 40" width="100%" height="100%">
    <path d="M27 8H13C10.239 8 8 10.239 8 13V27C8 29.761 10.239 32 13 32H27C29.762 32 32 29.761 32 27V13C32 10.239 29.762 8 27 8ZM26.861 17.237C27.07 21.854 23.627 27.002 17.531 27.002C15.677 27.002 13.952 26.459 12.499 25.527C14.241 25.732 15.979 25.249 17.359 24.168C15.922 24.141 14.71 23.192 14.293 21.888C14.808 21.986 15.314 21.957 15.775 21.832C14.196 21.515 13.107 20.093 13.142 18.572C13.584 18.818 14.091 18.966 14.628 18.983C13.167 18.006 12.753 16.076 13.612 14.6C15.231 16.586 17.65 17.893 20.378 18.03C19.899 15.977 21.458 14 23.577 14C24.52 14 25.374 14.398 25.972 15.037C26.72 14.89 27.423 14.617 28.058 14.241C27.812 15.008 27.292 15.651 26.615 16.057C27.279 15.977 27.912 15.801 28.5 15.54C28.061 16.196 27.504 16.774 26.861 17.237Z"  stroke='none'/>
  </symbol>

  <symbol id="icon-social-facebook-fill" viewBox="0 0 40 40" width="100%" height="100%">
    <path d="M27 8H13C10.239 8 8 10.239 8 13V27C8 29.761 10.239 32 13 32H27C29.762 32 32 29.761 32 27V13C32 10.239 29.762 8 27 8ZM24 15H22.076C21.461 15 21 15.252 21 15.889V17H24L23.762 20H21V28H18V20H16V17H18V15.077C18 13.055 19.064 12 21.461 12H24V15Z" stroke='none'/>
  </symbol>
  
  <symbol id="icon-social-linkedin-fill" viewBox="0 0 40 40" width="100%" height="100%">
    <path d="M27 8H13C10.239 8 8 10.239 8 13V27C8 29.761 10.239 32 13 32H27C29.762 32 32 29.761 32 27V13C32 10.239 29.762 8 27 8ZM16 27H13V16H16V27ZM14.5 14.732C13.534 14.732 12.75 13.942 12.75 12.968C12.75 11.994 13.534 11.204 14.5 11.204C15.466 11.204 16.25 11.994 16.25 12.968C16.25 13.942 15.467 14.732 14.5 14.732ZM28 27H25V21.396C25 18.028 21 18.283 21 21.396V27H18V16H21V17.765C22.396 15.179 28 14.988 28 20.241V27Z" stroke='none'/>
  </symbol>



  <!-- mixed stroke/fill icons: -->

  <symbol id="icon-list" viewBox="0 0 40 40" width="100%" height="100%">
    <circle cx="9.75" cy="11.75" r="1.75" stroke="none"/>
    <circle cx="9.75" cy="20.25" r="1.75" stroke="none"/>
    <circle cx="9.75" cy="28.75" r="1.75" stroke="none"/>
    <path d="M14.5 11.75H31.5" fill="none"/>
    <path d="M14.5 20.25H31.5" fill="none"/>
    <path d="M14.5 28.75H26.5" fill="none"/>
  </symbol>

  <symbol id="icon-more" viewBox="0 0 40 40" width="100%" height="100%">
    <path d="M14.75 19.875C14.75 20.8415 13.9665 21.625 13 21.625C12.0335 21.625 11.25 20.8415 11.25 19.875C11.25 18.9085 12.0335 18.125 13 18.125C13.9665 18.125 14.75 18.9085 14.75 19.875ZM21.75 19.875C21.75 20.8415 20.9665 21.625 20 21.625C19.0335 21.625 18.25 20.8415 18.25 19.875C18.25 18.9085 19.0335 18.125 20 18.125C20.9665 18.125 21.75 18.9085 21.75 19.875ZM27 21.625C27.9665 21.625 28.75 20.8415 28.75 19.875C28.75 18.9085 27.9665 18.125 27 18.125C26.0335 18.125 25.25 18.9085 25.25 19.875C25.25 20.8415 26.0335 21.625 27 21.625Z" stroke="none"/>
  </symbol>

  <symbol id="icon-star" viewBox="0 0 40 40" width="100%" height="100%">
    <path d="M20 7L24.2027 14.2155L32.3637 15.9828L26.8001 22.2095L27.6412 30.5172L20 27.15L12.3588 30.5172L13.1999 22.2095L7.63627 15.9828L15.7973 14.2155L20 7Z" stroke="none"/>
  </symbol>

  <symbol id="icon-random" viewBox="0 0 40 40" width="100%" height="100%">
    <path d="M9 9V31H31V9H9Z" fill="none"/>
    <circle cx="19.75" cy="19.75" r="1.75" stroke="none"/>
    <circle cx="15.75" cy="23.75" r="1.75" stroke="none"/>
    <circle cx="23.75" cy="15.75" r="1.75" stroke="none"/>
  </symbol>

  <symbol id="icon-issues" viewBox="0 0 40 40" width="100%" height="100%">
    <path d="M19.9998 13.5V20.5" fill="none"/>
    <path d="M31.9998 19.9993C31.9998 26.6267 26.6272 31.9993 19.9998 31.9993C13.3723 31.9993 7.99976 26.6267 7.99976 19.9993C7.99976 13.3719 13.3723 7.99933 19.9998 7.99933C26.6272 7.99933 31.9998 13.3719 31.9998 19.9993Z" fill="none"/>
    <circle cx="20" cy="24.5" r="1.5" stroke="none"/>
  </symbol>


</svg>



