<svg fill="none" xmlns="http://www.w3.org/2000/svg">

  <!-- ****************** light ****************** -->
  <symbol id="theme-light" viewBox="0 0 146 36" width="100%" height="100%" fill="none">    
    <g clip-path="url(#clip0_303_145)">
      <path d="M50.1954 14.9157H47.3958L45.0628 25.8298H44.9591L42.4964 14.9157H38.2969L35.8084 25.8298H35.7047L33.3976 14.9157H30.572L33.8383 28.2926H37.7007L40.3189 17.3526H40.4226L43.0149 28.2926H46.981L50.1954 14.9157Z" fill="black"/>
      <path d="M54.1276 12.764C55.0608 12.764 55.8385 12.0381 55.8385 11.0789C55.8385 10.1197 55.0608 9.39382 54.1276 9.39382C53.1684 9.39382 52.4167 10.1197 52.4167 11.0789C52.4167 12.0381 53.1684 12.764 54.1276 12.764ZM55.5274 28.2926V14.9157H52.7278V28.2926H55.5274Z" fill="black"/>
      <path d="M59.3603 28.2926H62.1599V22.7967C62.4969 22.8485 62.9376 22.8485 63.2746 22.8485C63.7153 22.8485 64.1041 22.8226 64.493 22.7707L67.6296 28.2926H70.7922L67.0852 21.993C69.2109 20.8523 70.0663 18.7006 70.0663 16.4452C70.0663 15.7971 70.0404 15.3823 69.9886 14.9157H67.2408C67.3185 15.5379 67.3185 15.9527 67.3185 16.3934C67.3185 18.9599 65.6595 20.4376 63.1709 20.4376C62.808 20.4376 62.471 20.4376 62.1599 20.3857V8.84941H59.3603V28.2926Z" fill="black"/>
      <path d="M74.7847 12.764C75.7179 12.764 76.4956 12.0381 76.4956 11.0789C76.4956 10.1197 75.7179 9.39382 74.7847 9.39382C73.8255 9.39382 73.0738 10.1197 73.0738 11.0789C73.0738 12.0381 73.8255 12.764 74.7847 12.764ZM76.1845 28.2926V14.9157H73.3848V28.2926H76.1845Z" fill="black"/>
      <path d="M98.3447 14.9157H95.545L93.212 25.8298H93.1083L90.6457 14.9157H86.4462L83.9576 25.8298H83.8539L81.5468 14.9157H78.7213L81.9875 28.2926H85.85L88.4682 17.3526H88.5719L91.1641 28.2926L95.1303 28.2926L98.3447 14.9157Z" fill="black"/>
      <path d="M99.7919 21.6041C99.7919 25.7261 102.488 28.7074 106.532 28.7074C108.865 28.7074 110.705 27.5667 111.405 25.9853H111.483C111.457 26.3483 111.431 26.7371 111.431 27.3334V28.2926H113.998V14.9157H111.431V15.6675C111.431 16.3674 111.457 16.7045 111.483 16.9896H111.405C110.757 15.6416 109.02 14.5009 106.635 14.5009C102.643 14.5009 99.7919 17.4822 99.7919 21.6041ZM106.972 26.1927C104.484 26.1927 102.617 24.2484 102.617 21.5782C102.617 18.8821 104.484 16.9637 106.972 16.9637C109.513 16.9637 111.327 18.8821 111.327 21.5782C111.327 24.2484 109.513 26.1927 106.972 26.1927Z" fill="black"/>
      <path d="M117.838 28.2926H120.638V19.7894C120.638 18.1303 121.804 16.9637 123.437 16.9637C125.045 16.9637 126.211 18.1303 126.211 19.7894V28.2926H129.011V19.8413C129.011 16.6526 127.21 14.5009 123.943 14.5009C122.647 14.5009 121.417 15.1505 120.406 16.1286C120.385 15.6395 120.354 14.9157 120.354 14.9157H117.838C117.838 19.3747 117.838 23.8336 117.838 28.2926Z" fill="black"/>
      <path d="M131.794 21.6041C131.794 25.752 134.49 28.7074 138.482 28.7074C140.66 28.7074 142.526 27.7741 143.408 26.089H143.486C143.46 26.4261 143.434 26.8408 143.434 27.4371V28.2926H146V8.84941H143.226V15.3823C143.226 16.1082 143.252 16.4193 143.304 16.7045H143.2C142.449 15.3305 140.556 14.5009 138.586 14.5009C134.568 14.5009 131.794 17.4563 131.794 21.6041ZM138.975 26.1927C136.486 26.1927 134.62 24.2484 134.62 21.5782C134.62 18.8821 136.486 16.9637 138.975 16.9637C141.515 16.9637 143.33 18.8821 143.33 21.5782C143.33 24.2484 141.515 26.1927 138.975 26.1927Z" fill="black"/>
      <path d="M0.0328717 19.616L2.06756 19.1343L4.37068 30.0275L2.11725 29.533L0.0328717 19.616Z" fill="#DBDBDB"/>
      <path d="M5.18795 15.2008L8.87713 14.4531L4.37166 30.0314L2.11481 29.5247L5.18795 15.2008Z" fill="#B3B3B3"/>
      <path d="M5.18501 15.1966L8.87829 14.4484L13.6131 31.3237L8.3884 30.0076L5.18501 15.1966Z" fill="#858585"/>
      <path d="M13.7303 8.3801L18.9523 9.69187L13.6097 31.3203L8.38762 30.0085L13.7303 8.3801Z" fill="black"/>
      <rect width="5.38427" height="7.88696" transform="matrix(0.969868 0.243631 -0.239813 0.970819 13.7303 8.3801)" fill="#161FFF"/>
      <rect width="5.38427" height="3.93849" transform="matrix(0.969868 0.243631 -0.239813 0.970819 13.7303 8.3801)" fill="#FF3389"/>
      <path d="M18.6245 -0.0197488L19.3281 2.41239L21.5979 3.53498L19.5021 4.95482L19.1364 7.45977L17.1375 5.90514L14.6417 6.3307L15.5021 3.95004L14.3253 1.7081L16.856 1.7914L18.6245 -0.0197488Z" fill="#FFA800"/>
    </g>
    <defs>
      <clipPath id="clip0_303_145">
       <rect width="146" height="35" fill="white"/>
      </clipPath>
    </defs>  
  </symbol>

  <!-- icon -->
  <symbol id="icon-theme-light" viewBox="0 0 35 35" width="100%" height="100%" fill="none">    
    <path d="M5.03287 20.5949L7.06743 20.1132L9.3704 31.0058L7.11711 30.5112L5.03287 20.5949Z" fill="#CCCCCC"/>
    <path d="M10.1879 16.18L13.8769 15.4323L9.37153 31.0096L7.11482 30.5029L10.1879 16.18Z" fill="#B3B3B3"/>
    <path d="M10.185 16.1758L13.8781 15.4277L18.6128 32.3019L13.3884 30.9858L10.185 16.1758Z" fill="#858585"/>
    <path d="M18.7303 9.3597L23.952 10.6713L18.6094 32.2983L13.3876 30.9867L18.7303 9.3597Z" fill="black"/>
    <rect width="5.38393" height="7.88646" transform="matrix(0.969872 0.243617 -0.239827 0.970816 18.7303 9.3597)" fill="#161FFF"/>
    <rect width="5.38393" height="3.93824" transform="matrix(0.969872 0.243617 -0.239827 0.970816 18.7303 9.3597)" fill="#FF3389"/>
    <path d="M23.6243 0.960329L24.3278 3.39229L26.5975 4.51477L24.5018 5.93454L24.136 8.43932L22.1373 6.88482L19.6416 7.31039L20.502 4.92988L19.3253 2.68812L21.8558 2.77138L23.6243 0.960329Z" fill="#FFA800"/>
  </symbol>




  <!-- ****************** dark ****************** -->
  <symbol id="theme-dark" viewBox="0 0 146 36" width="100%" height="100%" fill="none">    
    <g clip-path="url(#clip0_303_201)">
      <path d="M50.1954 14.9157H47.3958L45.0628 25.8298H44.9591L42.4964 14.9157H38.2969L35.8084 25.8298H35.7047L33.3976 14.9157H30.572L33.8383 28.2926H37.7007L40.3189 17.3526H40.4226L43.0149 28.2926H46.981L50.1954 14.9157Z" fill="white"/>
      <path d="M54.1276 12.764C55.0608 12.764 55.8385 12.0381 55.8385 11.0789C55.8385 10.1197 55.0608 9.39382 54.1276 9.39382C53.1684 9.39382 52.4167 10.1197 52.4167 11.0789C52.4167 12.0381 53.1684 12.764 54.1276 12.764ZM55.5274 28.2926V14.9157H52.7278V28.2926H55.5274Z" fill="white"/>
      <path d="M59.3603 28.2926H62.1599V22.7967C62.4969 22.8485 62.9376 22.8485 63.2746 22.8485C63.7153 22.8485 64.1041 22.8226 64.493 22.7707L67.6296 28.2926H70.7922L67.0852 21.993C69.2109 20.8523 70.0663 18.7006 70.0663 16.4452C70.0663 15.7971 70.0404 15.3823 69.9886 14.9157H67.2408C67.3185 15.5379 67.3185 15.9527 67.3185 16.3934C67.3185 18.9599 65.6595 20.4376 63.1709 20.4376C62.808 20.4376 62.471 20.4376 62.1599 20.3857V8.84941H59.3603V28.2926Z" fill="white"/>
      <path d="M74.7847 12.764C75.7179 12.764 76.4956 12.0381 76.4956 11.0789C76.4956 10.1197 75.7179 9.39382 74.7847 9.39382C73.8255 9.39382 73.0738 10.1197 73.0738 11.0789C73.0738 12.0381 73.8255 12.764 74.7847 12.764ZM76.1845 28.2926V14.9157H73.3848V28.2926H76.1845Z" fill="white"/>
      <path d="M98.3447 14.9157H95.545L93.212 25.8298H93.1083L90.6457 14.9157H86.4462L83.9576 25.8298H83.8539L81.5468 14.9157H78.7213L81.9875 28.2926H85.85L88.4682 17.3526H88.5719L91.1641 28.2926L95.1303 28.2926L98.3447 14.9157Z" fill="white"/>
      <path d="M99.7919 21.6041C99.7919 25.7261 102.488 28.7074 106.532 28.7074C108.865 28.7074 110.705 27.5667 111.405 25.9853H111.483C111.457 26.3483 111.431 26.7371 111.431 27.3334V28.2926H113.997V14.9157H111.431V15.6675C111.431 16.3674 111.457 16.7045 111.483 16.9896H111.405C110.757 15.6416 109.02 14.5009 106.635 14.5009C102.643 14.5009 99.7919 17.4822 99.7919 21.6041ZM106.972 26.1927C104.484 26.1927 102.617 24.2484 102.617 21.5782C102.617 18.8821 104.484 16.9637 106.972 16.9637C109.513 16.9637 111.327 18.8821 111.327 21.5782C111.327 24.2484 109.513 26.1927 106.972 26.1927Z" fill="white"/>
      <path d="M117.838 28.2926H120.638V19.7894C120.638 18.1303 121.804 16.9637 123.437 16.9637C125.045 16.9637 126.211 18.1303 126.211 19.7894V28.2926H129.011V19.8413C129.011 16.6526 127.21 14.5009 123.943 14.5009C122.647 14.5009 121.417 15.1505 120.406 16.1286C120.385 15.6395 120.354 14.9157 120.354 14.9157H117.838C117.838 19.3747 117.838 23.8336 117.838 28.2926Z" fill="white"/>
      <path d="M131.794 21.6041C131.794 25.752 134.49 28.7074 138.482 28.7074C140.66 28.7074 142.526 27.7741 143.408 26.089H143.486C143.46 26.4261 143.434 26.8408 143.434 27.4371V28.2926H146V8.84941H143.226V15.3823C143.226 16.1082 143.252 16.4193 143.304 16.7045H143.2C142.449 15.3305 140.556 14.5009 138.586 14.5009C134.568 14.5009 131.794 17.4563 131.794 21.6041ZM138.975 26.1927C136.486 26.1927 134.62 24.2484 134.62 21.5782C134.62 18.8821 136.486 16.9637 138.975 16.9637C141.515 16.9637 143.33 18.8821 143.33 21.5782C143.33 24.2484 141.515 26.1927 138.975 26.1927Z" fill="white"/>
      <path d="M0.0328717 19.616L2.06756 19.1343L4.37068 30.0275L2.11725 29.533L0.0328717 19.616Z" fill="#454545"/>
      <path d="M5.18795 15.2008L8.87713 14.4531L4.37166 30.0314L2.11481 29.5247L5.18795 15.2008Z" fill="#535353"/>
      <path d="M5.18501 15.1966L8.87829 14.4485L13.6131 31.3237L8.3884 30.0076L5.18501 15.1966Z" fill="#828282"/>
      <path d="M13.7303 8.3801L18.9523 9.69187L13.6097 31.3203L8.38762 30.0085L13.7303 8.3801Z" fill="white"/>
      <rect width="5.38427" height="7.88696" transform="matrix(0.969868 0.243631 -0.239813 0.970819 13.7303 8.3801)" fill="#252DFF"/>
      <rect width="5.38427" height="3.93849" transform="matrix(0.969868 0.243631 -0.239813 0.970819 13.7303 8.3801)" fill="#FF3389"/>
      <path d="M18.6245 -0.0197488L19.3281 2.41239L21.5979 3.53498L19.5021 4.95482L19.1364 7.45977L17.1375 5.90514L14.6417 6.3307L15.5021 3.95004L14.3253 1.7081L16.856 1.7914L18.6245 -0.0197488Z" fill="#FFBA33"/>
    </g>
    <defs>
      <clipPath id="clip0_303_201">
        <rect width="146" height="35" fill="white"/>
      </clipPath>
    </defs>
  </symbol>

  <!-- icon -->
  <symbol id="icon-theme-dark" viewBox="0 0 35 35" width="100%" height="100%" fill="none">    
    <path d="M5.03287 20.5949L7.06743 20.1132L9.3704 31.0058L7.11711 30.5112L5.03287 20.5949Z" fill="#454545"/>
    <path d="M10.1879 16.18L13.8769 15.4323L9.37153 31.0096L7.11482 30.5029L10.1879 16.18Z" fill="#535353"/>
    <path d="M10.185 16.1758L13.8781 15.4277L18.6128 32.3019L13.3884 30.9858L10.185 16.1758Z" fill="#828282"/>
    <path d="M18.7303 9.3597L23.952 10.6713L18.6094 32.2983L13.3876 30.9867L18.7303 9.3597Z" fill="white"/>
    <rect width="5.38393" height="7.88646" transform="matrix(0.969872 0.243617 -0.239827 0.970816 18.7303 9.3597)" fill="#252DFF"/>
    <rect width="5.38393" height="3.93824" transform="matrix(0.969872 0.243617 -0.239827 0.970816 18.7303 9.3597)" fill="#FF3389"/>
    <path d="M23.6243 0.960329L24.3278 3.39229L26.5975 4.51477L24.5018 5.93454L24.136 8.43932L22.1373 6.88482L19.6416 7.31039L20.502 4.92988L19.3253 2.68812L21.8558 2.77138L23.6243 0.960329Z" fill="#FFBA33"/>
  </symbol>



  <!-- ****************** neon ****************** -->
  <symbol id="theme-neon" viewBox="0 0 146 36" width="100%" height="100%" fill="none">    
    <g clip-path="url(#clip0_303_168)">
      <path d="M50.1954 14.9157H47.3958L45.0628 25.8298H44.9591L42.4964 14.9157H38.2969L35.8084 25.8298H35.7047L33.3976 14.9157H30.572L33.8383 28.2926H37.7007L40.3189 17.3526H40.4226L43.0149 28.2926H46.981L50.1954 14.9157Z" fill="white"/>
      <path d="M54.1276 12.764C55.0608 12.764 55.8385 12.0381 55.8385 11.0789C55.8385 10.1197 55.0608 9.39383 54.1276 9.39383C53.1684 9.39383 52.4167 10.1197 52.4167 11.0789C52.4167 12.0381 53.1684 12.764 54.1276 12.764ZM55.5274 28.2926V14.9157H52.7278V28.2926H55.5274Z" fill="white"/>
      <path d="M59.3603 28.2926H62.1599V22.7967C62.4969 22.8485 62.9376 22.8485 63.2746 22.8485C63.7153 22.8485 64.1041 22.8226 64.493 22.7707L67.6296 28.2926H70.7922L67.0852 21.993C69.2109 20.8523 70.0663 18.7006 70.0663 16.4452C70.0663 15.7971 70.0404 15.3823 69.9886 14.9157H67.2408C67.3185 15.5379 67.3185 15.9527 67.3185 16.3934C67.3185 18.9599 65.6595 20.4376 63.1709 20.4376C62.808 20.4376 62.471 20.4376 62.1599 20.3857V8.84941H59.3603V28.2926Z" fill="white"/>
      <path d="M74.7847 12.764C75.7179 12.764 76.4956 12.0381 76.4956 11.0789C76.4956 10.1197 75.7179 9.39383 74.7847 9.39383C73.8255 9.39383 73.0738 10.1197 73.0738 11.0789C73.0738 12.0381 73.8255 12.764 74.7847 12.764ZM76.1845 28.2926V14.9157H73.3848V28.2926H76.1845Z" fill="white"/>
      <path d="M98.3447 14.9157H95.545L93.212 25.8298H93.1083L90.6457 14.9157H86.4462L83.9576 25.8298H83.8539L81.5468 14.9157H78.7213L81.9875 28.2926H85.85L88.4682 17.3526H88.5719L91.1641 28.2926L95.1303 28.2926L98.3447 14.9157Z" fill="white"/>
      <path d="M99.7919 21.6041C99.7919 25.7261 102.488 28.7074 106.532 28.7074C108.865 28.7074 110.705 27.5667 111.405 25.9853H111.483C111.457 26.3483 111.431 26.7372 111.431 27.3334V28.2926H113.997V14.9157H111.431V15.6675C111.431 16.3674 111.457 16.7045 111.483 16.9896H111.405C110.757 15.6416 109.02 14.5009 106.635 14.5009C102.643 14.5009 99.7919 17.4822 99.7919 21.6041ZM106.972 26.1927C104.484 26.1927 102.617 24.2484 102.617 21.5782C102.617 18.8821 104.484 16.9637 106.972 16.9637C109.513 16.9637 111.327 18.8821 111.327 21.5782C111.327 24.2484 109.513 26.1927 106.972 26.1927Z" fill="white"/>
      <path d="M117.838 28.2926H120.638V19.7895C120.638 18.1303 121.804 16.9637 123.437 16.9637C125.045 16.9637 126.211 18.1303 126.211 19.7895V28.2926H129.011V19.8413C129.011 16.6526 127.21 14.5009 123.943 14.5009C122.647 14.5009 121.417 15.1505 120.406 16.1286C120.385 15.6395 120.354 14.9157 120.354 14.9157H117.838C117.838 19.3747 117.838 23.8336 117.838 28.2926Z" fill="white"/>
      <path d="M131.794 21.6041C131.794 25.752 134.49 28.7074 138.482 28.7074C140.66 28.7074 142.526 27.7741 143.408 26.089H143.486C143.46 26.4261 143.434 26.8408 143.434 27.4371V28.2926H146V8.84942H143.226V15.3823C143.226 16.1082 143.252 16.4193 143.304 16.7045H143.2C142.449 15.3305 140.556 14.5009 138.586 14.5009C134.568 14.5009 131.794 17.4563 131.794 21.6041ZM138.975 26.1927C136.486 26.1927 134.62 24.2484 134.62 21.5782C134.62 18.8821 136.486 16.9637 138.975 16.9637C141.515 16.9637 143.33 18.8821 143.33 21.5782C143.33 24.2484 141.515 26.1927 138.975 26.1927Z" fill="white"/>
      <path d="M0.0328717 19.616L2.06756 19.1343L4.37068 30.0275L2.11725 29.533L0.0328717 19.616Z" fill="#4349FF"/>
      <path d="M5.18795 15.2008L8.87713 14.4531L4.37166 30.0314L2.11481 29.5247L5.18795 15.2008Z" fill="#5A5FFF"/>
      <path d="M5.18501 15.1966L8.87829 14.4484L13.6131 31.3237L8.3884 30.0076L5.18501 15.1966Z" fill="#8B8FFF"/>
      <path d="M13.7303 8.38009L18.9523 9.69186L13.6097 31.3203L8.38762 30.0085L13.7303 8.38009Z" fill="white"/>
      <rect width="5.38427" height="7.88696" transform="matrix(0.969868 0.243631 -0.239813 0.970819 13.7303 8.38009)" fill="#252DFF"/>
      <rect width="5.38427" height="3.93849" transform="matrix(0.969868 0.243631 -0.239813 0.970819 13.7303 8.38009)" fill="#FF3389"/>
      <path d="M18.6245 -0.0197526L19.3281 2.41239L21.5979 3.53497L19.5021 4.95482L19.1364 7.45977L17.1375 5.90514L14.6417 6.3307L15.5021 3.95004L14.3253 1.7081L16.856 1.7914L18.6245 -0.0197526Z" fill="#FFBA33"/>
    </g>
    <defs>
      <clipPath id="clip0_303_168">
        <rect width="146" height="35" fill="white"/>
      </clipPath>
    </defs>
  </symbol>

  <!-- icon -->
  <symbol id="icon-theme-neon" viewBox="0 0 35 35" width="100%" height="100%" fill="none">    
    <path d="M5.03287 20.5949L7.06743 20.1132L9.3704 31.0058L7.11711 30.5112L5.03287 20.5949Z" fill="#4349FF"/>
    <path d="M10.1879 16.18L13.8769 15.4323L9.37153 31.0096L7.11482 30.5029L10.1879 16.18Z" fill="#5A5FFF"/>
    <path d="M10.185 16.1758L13.8781 15.4277L18.6128 32.3019L13.3884 30.9858L10.185 16.1758Z" fill="#8B8FFF"/>
    <path d="M18.7303 9.3597L23.952 10.6713L18.6094 32.2983L13.3876 30.9867L18.7303 9.3597Z" fill="white"/>
    <rect width="5.38393" height="7.88646" transform="matrix(0.969872 0.243617 -0.239827 0.970816 18.7303 9.3597)" fill="#252DFF"/>
    <rect width="5.38393" height="3.93824" transform="matrix(0.969872 0.243617 -0.239827 0.970816 18.7303 9.3597)" fill="#FF3389"/>
    <path d="M23.6243 0.960329L24.3278 3.39229L26.5975 4.51477L24.5018 5.93454L24.136 8.43932L22.1373 6.88482L19.6416 7.31039L20.502 4.92988L19.3253 2.68812L21.8558 2.77138L23.6243 0.960329Z" fill="#FFBA33"/>
  </symbol>


  <!-- ****************** warm ****************** -->
  <symbol id="theme-warm" viewBox="0 0 146 36" width="100%" height="100%" fill="none">    
    <g clip-path="url(#clip0_303_158)">
      <path d="M50.1954 14.9157H47.3958L45.0628 25.8298H44.9591L42.4964 14.9157H38.2969L35.8084 25.8298H35.7047L33.3976 14.9157H30.572L33.8383 28.2926H37.7007L40.3189 17.3526H40.4226L43.0149 28.2926H46.981L50.1954 14.9157Z" fill="black"/>
      <path d="M54.1276 12.764C55.0608 12.764 55.8385 12.0381 55.8385 11.0789C55.8385 10.1197 55.0608 9.39383 54.1276 9.39383C53.1684 9.39383 52.4167 10.1197 52.4167 11.0789C52.4167 12.0381 53.1684 12.764 54.1276 12.764ZM55.5274 28.2926V14.9157H52.7278V28.2926H55.5274Z" fill="black"/>
      <path d="M59.3603 28.2926H62.1599V22.7967C62.4969 22.8485 62.9376 22.8485 63.2746 22.8485C63.7153 22.8485 64.1041 22.8226 64.493 22.7707L67.6296 28.2926H70.7922L67.0852 21.993C69.2109 20.8523 70.0663 18.7006 70.0663 16.4452C70.0663 15.7971 70.0404 15.3823 69.9886 14.9157H67.2408C67.3185 15.5379 67.3185 15.9527 67.3185 16.3934C67.3185 18.9599 65.6595 20.4376 63.1709 20.4376C62.808 20.4376 62.471 20.4376 62.1599 20.3857V8.84942H59.3603V28.2926Z" fill="black"/>
      <path d="M74.7847 12.764C75.7179 12.764 76.4956 12.0381 76.4956 11.0789C76.4956 10.1197 75.7179 9.39383 74.7847 9.39383C73.8255 9.39383 73.0738 10.1197 73.0738 11.0789C73.0738 12.0381 73.8255 12.764 74.7847 12.764ZM76.1845 28.2926V14.9157H73.3848V28.2926H76.1845Z" fill="black"/>
      <path d="M98.3447 14.9157H95.545L93.212 25.8298H93.1083L90.6457 14.9157H86.4462L83.9576 25.8298H83.8539L81.5468 14.9157H78.7213L81.9875 28.2926H85.85L88.4682 17.3526H88.5719L91.1641 28.2926L95.1303 28.2926L98.3447 14.9157Z" fill="black"/>
      <path d="M99.7919 21.6042C99.7919 25.7261 102.488 28.7074 106.532 28.7074C108.865 28.7074 110.705 27.5667 111.405 25.9854H111.483C111.457 26.3483 111.431 26.7372 111.431 27.3334V28.2926H113.997V14.9157H111.431V15.6675C111.431 16.3675 111.457 16.7045 111.483 16.9896H111.405C110.757 15.6416 109.02 14.5009 106.635 14.5009C102.643 14.5009 99.7919 17.4822 99.7919 21.6042ZM106.972 26.1927C104.484 26.1927 102.617 24.2484 102.617 21.5782C102.617 18.8821 104.484 16.9637 106.972 16.9637C109.513 16.9637 111.327 18.8821 111.327 21.5782C111.327 24.2484 109.513 26.1927 106.972 26.1927Z" fill="black"/>
      <path d="M117.838 28.2926H120.638V19.7895C120.638 18.1303 121.804 16.9637 123.437 16.9637C125.045 16.9637 126.211 18.1303 126.211 19.7895V28.2926H129.011V19.8413C129.011 16.6526 127.21 14.5009 123.943 14.5009C122.647 14.5009 121.417 15.1505 120.406 16.1286C120.385 15.6395 120.354 14.9157 120.354 14.9157H117.838C117.838 19.3747 117.838 23.8336 117.838 28.2926Z" fill="black"/>
      <path d="M131.794 21.6042C131.794 25.752 134.49 28.7074 138.482 28.7074C140.66 28.7074 142.526 27.7741 143.408 26.089H143.486C143.46 26.4261 143.434 26.8409 143.434 27.4371V28.2926H146V8.84942H143.226V15.3823C143.226 16.1082 143.252 16.4193 143.304 16.7045H143.2C142.449 15.3305 140.556 14.5009 138.586 14.5009C134.568 14.5009 131.794 17.4563 131.794 21.6042ZM138.975 26.1927C136.486 26.1927 134.62 24.2484 134.62 21.5782C134.62 18.8821 136.486 16.9637 138.975 16.9637C141.515 16.9637 143.33 18.8821 143.33 21.5782C143.33 24.2484 141.515 26.1927 138.975 26.1927Z" fill="black"/>
      <path d="M0.0328717 19.616L2.06756 19.1343L4.37068 30.0275L2.11725 29.5329L0.0328717 19.616Z" fill="#D0CABF"/>
      <path d="M5.18795 15.2008L8.87713 14.4531L4.37166 30.0314L2.11481 29.5247L5.18795 15.2008Z" fill="#BAB5AE"/>
      <path d="M5.18501 15.1966L8.87829 14.4484L13.6131 31.3237L8.3884 30.0076L5.18501 15.1966Z" fill="#99948C"/>
      <path d="M13.7303 8.38008L18.9523 9.69186L13.6096 31.3203L8.38761 30.0085L13.7303 8.38008Z" fill="black"/>
      <rect width="5.38427" height="7.88696" transform="matrix(0.969868 0.243631 -0.239813 0.970819 13.7303 8.38008)" fill="#161FFF"/>
      <rect width="5.38427" height="3.93849" transform="matrix(0.969868 0.243631 -0.239813 0.970819 13.7303 8.38008)" fill="#FF3389"/>
      <path d="M18.6245 -0.0197565L19.3281 2.41239L21.5979 3.53497L19.5021 4.95481L19.1364 7.45976L17.1375 5.90513L14.6417 6.33069L15.5021 3.95003L14.3253 1.70809L16.856 1.7914L18.6245 -0.0197565Z" fill="#FFA800"/>
    </g>
    <defs>
      <clipPath id="clip0_303_158">
        <rect width="146" height="35" fill="white"/>
      </clipPath>
    </defs>
  </symbol>

  <!-- icon -->
  <symbol id="icon-theme-warm" viewBox="0 0 35 35" width="100%" height="100%" fill="none">    
    <path d="M5.03287 20.5949L7.06743 20.1132L9.3704 31.0058L7.11711 30.5112L5.03287 20.5949Z" fill="#D0CABF"/>
    <path d="M10.1879 16.18L13.8769 15.4323L9.37153 31.0096L7.11482 30.5029L10.1879 16.18Z" fill="#BAB5AE"/>
    <path d="M10.185 16.1758L13.8781 15.4277L18.6128 32.3019L13.3884 30.9858L10.185 16.1758Z" fill="#99948C"/>
    <path d="M18.7303 9.3597L23.952 10.6713L18.6094 32.2983L13.3876 30.9867L18.7303 9.3597Z" fill="black"/>
    <rect width="5.38393" height="7.88646" transform="matrix(0.969872 0.243617 -0.239827 0.970816 18.7303 9.3597)" fill="#161FFF"/>
    <rect width="5.38393" height="3.93824" transform="matrix(0.969872 0.243617 -0.239827 0.970816 18.7303 9.3597)" fill="#FF3389"/>
    <path d="M23.6243 0.960329L24.3278 3.39229L26.5975 4.51477L24.5018 5.93454L24.136 8.43932L22.1373 6.88482L19.6416 7.31039L20.502 4.92988L19.3253 2.68812L21.8558 2.77138L23.6243 0.960329Z" fill="#FFA800"/>
  </symbol>




  <!-- ****************** earth ****************** -->
  <symbol id="theme-earth" viewBox="0 0 146 36" width="100%" height="100%" fill="none">    
    <g clip-path="url(#clip0_303_178)">
      <path d="M50.1954 14.9157H47.3958L45.0628 25.8298H44.9591L42.4964 14.9157H38.2969L35.8084 25.8298H35.7047L33.3976 14.9157H30.572L33.8383 28.2926H37.7007L40.3189 17.3526H40.4226L43.0149 28.2926H46.981L50.1954 14.9157Z" fill="white"/>
      <path d="M54.1276 12.764C55.0608 12.764 55.8385 12.0381 55.8385 11.0789C55.8385 10.1197 55.0608 9.39383 54.1276 9.39383C53.1684 9.39383 52.4167 10.1197 52.4167 11.0789C52.4167 12.0381 53.1684 12.764 54.1276 12.764ZM55.5274 28.2926V14.9157H52.7278V28.2926H55.5274Z" fill="white"/>
      <path d="M59.3603 28.2926H62.1599V22.7967C62.4969 22.8485 62.9376 22.8485 63.2746 22.8485C63.7153 22.8485 64.1041 22.8226 64.493 22.7707L67.6296 28.2926H70.7922L67.0852 21.993C69.2109 20.8523 70.0663 18.7006 70.0663 16.4452C70.0663 15.7971 70.0404 15.3823 69.9886 14.9157H67.2408C67.3185 15.5379 67.3185 15.9527 67.3185 16.3934C67.3185 18.9599 65.6595 20.4376 63.1709 20.4376C62.808 20.4376 62.471 20.4376 62.1599 20.3857V8.84941H59.3603V28.2926Z" fill="white"/>
      <path d="M74.7847 12.764C75.7179 12.764 76.4956 12.0381 76.4956 11.0789C76.4956 10.1197 75.7179 9.39383 74.7847 9.39383C73.8255 9.39383 73.0738 10.1197 73.0738 11.0789C73.0738 12.0381 73.8255 12.764 74.7847 12.764ZM76.1845 28.2926V14.9157H73.3848V28.2926H76.1845Z" fill="white"/>
      <path d="M98.3447 14.9157H95.545L93.212 25.8298H93.1083L90.6457 14.9157H86.4462L83.9576 25.8298H83.8539L81.5468 14.9157H78.7213L81.9875 28.2926H85.85L88.4682 17.3526H88.5719L91.1641 28.2926L95.1303 28.2926L98.3447 14.9157Z" fill="white"/>
      <path d="M99.7919 21.6041C99.7919 25.7261 102.488 28.7074 106.532 28.7074C108.865 28.7074 110.705 27.5667 111.405 25.9853H111.483C111.457 26.3483 111.431 26.7371 111.431 27.3334V28.2926H113.997V14.9157H111.431V15.6675C111.431 16.3674 111.457 16.7045 111.483 16.9896H111.405C110.757 15.6416 109.02 14.5009 106.635 14.5009C102.643 14.5009 99.7919 17.4822 99.7919 21.6041ZM106.972 26.1927C104.484 26.1927 102.617 24.2484 102.617 21.5782C102.617 18.8821 104.484 16.9637 106.972 16.9637C109.513 16.9637 111.327 18.8821 111.327 21.5782C111.327 24.2484 109.513 26.1927 106.972 26.1927Z" fill="white"/>
      <path d="M117.838 28.2926H120.638V19.7895C120.638 18.1303 121.804 16.9637 123.437 16.9637C125.045 16.9637 126.211 18.1303 126.211 19.7895V28.2926H129.011V19.8413C129.011 16.6526 127.21 14.5009 123.943 14.5009C122.647 14.5009 121.417 15.1505 120.406 16.1286C120.385 15.6395 120.354 14.9157 120.354 14.9157H117.838C117.838 19.3747 117.838 23.8336 117.838 28.2926Z" fill="white"/>
      <path d="M131.794 21.6041C131.794 25.752 134.49 28.7074 138.482 28.7074C140.66 28.7074 142.526 27.7741 143.408 26.089H143.486C143.46 26.4261 143.434 26.8408 143.434 27.4371V28.2926H146V8.84942H143.226V15.3823C143.226 16.1082 143.252 16.4193 143.304 16.7045H143.2C142.449 15.3305 140.556 14.5009 138.586 14.5009C134.568 14.5009 131.794 17.4563 131.794 21.6041ZM138.975 26.1927C136.486 26.1927 134.62 24.2484 134.62 21.5782C134.62 18.8821 136.486 16.9637 138.975 16.9637C141.515 16.9637 143.33 18.8821 143.33 21.5782C143.33 24.2484 141.515 26.1927 138.975 26.1927Z" fill="white"/>
      <path d="M0.0328717 19.616L2.06756 19.1343L4.37068 30.0275L2.11725 29.533L0.0328717 19.616Z" fill="#544D49"/>
      <path d="M5.18795 15.2008L8.87713 14.4531L4.37166 30.0314L2.11481 29.5247L5.18795 15.2008Z" fill="#716762"/>
      <path d="M5.18501 15.1966L8.87829 14.4484L13.6131 31.3237L8.3884 30.0076L5.18501 15.1966Z" fill="#968C86"/>
      <path d="M13.7303 8.38009L18.9523 9.69186L13.6097 31.3203L8.38762 30.0085L13.7303 8.38009Z" fill="white"/>
      <rect width="5.38427" height="7.88696" transform="matrix(0.969868 0.243631 -0.239813 0.970819 13.7303 8.38009)" fill="#252DFF"/>
      <rect width="5.38427" height="3.93849" transform="matrix(0.969868 0.243631 -0.239813 0.970819 13.7303 8.38009)" fill="#FF3389"/>
      <path d="M18.6245 -0.0197526L19.3281 2.41239L21.5979 3.53497L19.5021 4.95482L19.1364 7.45977L17.1375 5.90514L14.6417 6.3307L15.5021 3.95004L14.3253 1.7081L16.856 1.7914L18.6245 -0.0197526Z" fill="#FFBA33"/>
    </g>
    <defs>
      <clipPath id="clip0_303_178">
        <rect width="146" height="35" fill="white"/>
      </clipPath>
    </defs>
  </symbol>

  <!-- icon -->
  <symbol id="icon-theme-earth" viewBox="0 0 35 35" width="100%" height="100%" fill="none">    
    <path d="M5.03287 20.5949L7.06743 20.1132L9.3704 31.0058L7.11711 30.5112L5.03287 20.5949Z" fill="#544D49"/>
    <path d="M10.1879 16.18L13.8769 15.4323L9.37153 31.0096L7.11482 30.5029L10.1879 16.18Z" fill="#716762"/>
    <path d="M10.185 16.1758L13.8781 15.4277L18.6128 32.3019L13.3884 30.9858L10.185 16.1758Z" fill="#968C86"/>
    <path d="M18.7303 9.3597L23.952 10.6713L18.6094 32.2983L13.3876 30.9867L18.7303 9.3597Z" fill="white"/>
    <rect width="5.38393" height="7.88646" transform="matrix(0.969872 0.243617 -0.239827 0.970816 18.7303 9.3597)" fill="#252DFF"/>
    <rect width="5.38393" height="3.93824" transform="matrix(0.969872 0.243617 -0.239827 0.970816 18.7303 9.3597)" fill="#FF3389"/>
    <path d="M23.6243 0.960329L24.3278 3.39229L26.5975 4.51477L24.5018 5.93454L24.136 8.43932L22.1373 6.88482L19.6416 7.31039L20.502 4.92988L19.3253 2.68812L21.8558 2.77138L23.6243 0.960329Z" fill="#FFBA33"/>
  </symbol>


  <!-- ****************** grey ****************** -->
  <symbol id="theme-grey" viewBox="0 0 146 36" width="100%" height="100%" fill="none">    
    <g clip-path="url(#clip0_1007_1638)">
      <path d="M50.1954 14.9157H47.3958L45.0628 25.8298H44.9591L42.4964 14.9157H38.2969L35.8084 25.8298H35.7047L33.3976 14.9157H30.572L33.8383 28.2926H37.7007L40.3189 17.3526H40.4226L43.0149 28.2926H46.981L50.1954 14.9157Z" fill="white"/>
      <path d="M54.1276 12.764C55.0608 12.764 55.8385 12.0381 55.8385 11.0789C55.8385 10.1197 55.0608 9.39382 54.1276 9.39382C53.1684 9.39382 52.4167 10.1197 52.4167 11.0789C52.4167 12.0381 53.1684 12.764 54.1276 12.764ZM55.5274 28.2926V14.9157H52.7278V28.2926H55.5274Z" fill="white"/>
      <path d="M59.3603 28.2926H62.1599V22.7967C62.4969 22.8485 62.9376 22.8485 63.2746 22.8485C63.7153 22.8485 64.1041 22.8226 64.493 22.7707L67.6296 28.2926H70.7922L67.0852 21.993C69.2109 20.8523 70.0663 18.7006 70.0663 16.4452C70.0663 15.7971 70.0404 15.3823 69.9886 14.9157H67.2408C67.3185 15.5379 67.3185 15.9527 67.3185 16.3934C67.3185 18.9599 65.6595 20.4376 63.1709 20.4376C62.808 20.4376 62.471 20.4376 62.1599 20.3857V8.84941H59.3603V28.2926Z" fill="white"/>
      <path d="M74.7847 12.764C75.7179 12.764 76.4956 12.0381 76.4956 11.0789C76.4956 10.1197 75.7179 9.39382 74.7847 9.39382C73.8255 9.39382 73.0738 10.1197 73.0738 11.0789C73.0738 12.0381 73.8255 12.764 74.7847 12.764ZM76.1845 28.2926V14.9157H73.3848V28.2926H76.1845Z" fill="white"/>
      <path d="M98.3447 14.9157H95.545L93.212 25.8298H93.1083L90.6457 14.9157H86.4462L83.9576 25.8298H83.8539L81.5468 14.9157H78.7213L81.9875 28.2926H85.85L88.4682 17.3526H88.5719L91.1641 28.2926L95.1303 28.2926L98.3447 14.9157Z" fill="white"/>
      <path d="M99.7919 21.6041C99.7919 25.7261 102.488 28.7074 106.532 28.7074C108.865 28.7074 110.705 27.5667 111.405 25.9853H111.483C111.457 26.3483 111.431 26.7371 111.431 27.3334V28.2926H113.998V14.9157H111.431V15.6675C111.431 16.3674 111.457 16.7045 111.483 16.9896H111.405C110.757 15.6416 109.02 14.5009 106.635 14.5009C102.643 14.5009 99.7919 17.4822 99.7919 21.6041ZM106.972 26.1927C104.484 26.1927 102.617 24.2484 102.617 21.5782C102.617 18.8821 104.484 16.9637 106.972 16.9637C109.513 16.9637 111.327 18.8821 111.327 21.5782C111.327 24.2484 109.513 26.1927 106.972 26.1927Z" fill="white"/>
      <path d="M117.838 28.2926H120.638V19.7894C120.638 18.1303 121.804 16.9637 123.437 16.9637C125.045 16.9637 126.211 18.1303 126.211 19.7894V28.2926H129.011V19.8413C129.011 16.6526 127.21 14.5009 123.943 14.5009C122.647 14.5009 121.417 15.1505 120.406 16.1286C120.385 15.6395 120.354 14.9157 120.354 14.9157H117.838C117.838 19.3747 117.838 23.8336 117.838 28.2926Z" fill="white"/>
      <path d="M131.794 21.6041C131.794 25.752 134.49 28.7074 138.482 28.7074C140.66 28.7074 142.526 27.7741 143.408 26.089H143.486C143.46 26.4261 143.434 26.8408 143.434 27.4371V28.2926H146V8.84941H143.226V15.3823C143.226 16.1082 143.252 16.4193 143.304 16.7045H143.2C142.449 15.3305 140.556 14.5009 138.586 14.5009C134.568 14.5009 131.794 17.4563 131.794 21.6041ZM138.975 26.1927C136.486 26.1927 134.62 24.2484 134.62 21.5782C134.62 18.8821 136.486 16.9637 138.975 16.9637C141.515 16.9637 143.33 18.8821 143.33 21.5782C143.33 24.2484 141.515 26.1927 138.975 26.1927Z" fill="white"/>
      <path d="M0.0328717 19.616L2.06756 19.1343L4.37068 30.0275L2.11725 29.533L0.0328717 19.616Z" fill="#515151"/>
      <path d="M5.18795 15.2008L8.87713 14.4531L4.37166 30.0314L2.11481 29.5247L5.18795 15.2008Z" fill="#606060"/>
      <path d="M5.18501 15.1966L8.87829 14.4485L13.6131 31.3237L8.3884 30.0076L5.18501 15.1966Z" fill="#919191"/>
      <path d="M13.7303 8.3801L18.9523 9.69187L13.6097 31.3203L8.38762 30.0085L13.7303 8.3801Z" fill="white"/>
      <rect width="5.38427" height="7.88696" transform="matrix(0.969868 0.243631 -0.239813 0.970819 13.7303 8.3801)" fill="#252DFF"/>
      <rect width="5.38427" height="3.93849" transform="matrix(0.969868 0.243631 -0.239813 0.970819 13.7303 8.3801)" fill="#FF3389"/>
      <path d="M18.6245 -0.0197488L19.3281 2.41239L21.5979 3.53498L19.5021 4.95482L19.1364 7.45977L17.1375 5.90514L14.6417 6.3307L15.5021 3.95004L14.3253 1.7081L16.856 1.7914L18.6245 -0.0197488Z" fill="#FFBA33"/>
    </g>
    <defs>
      <clipPath id="clip0_1007_1638">
      <rect width="146" height="35" fill="white"/>
      </clipPath>
    </defs>
  </symbol>

  <!-- icon -->
  <symbol id="icon-theme-grey" viewBox="0 0 35 35" width="100%" height="100%" fill="none">    
    <path d="M5.03287 20.5949L7.06743 20.1132L9.3704 31.0058L7.11711 30.5112L5.03287 20.5949Z" fill="#515151"/>
    <path d="M10.1879 16.18L13.8769 15.4323L9.37153 31.0096L7.11482 30.5029L10.1879 16.18Z" fill="#606060"/>
    <path d="M10.185 16.1758L13.8781 15.4277L18.6128 32.3019L13.3884 30.9858L10.185 16.1758Z" fill="#919191"/>
    <path d="M18.7303 9.3597L23.952 10.6713L18.6094 32.2983L13.3876 30.9867L18.7303 9.3597Z" fill="white"/>
    <rect width="5.38393" height="7.88646" transform="matrix(0.969872 0.243617 -0.239827 0.970816 18.7303 9.3597)" fill="#252DFF"/>
    <rect width="5.38393" height="3.93824" transform="matrix(0.969872 0.243617 -0.239827 0.970816 18.7303 9.3597)" fill="#FF3389"/>
    <path d="M23.6243 0.960329L24.3278 3.39229L26.5975 4.51477L24.5018 5.93454L24.136 8.43932L22.1373 6.88482L19.6416 7.31039L20.502 4.92988L19.3253 2.68812L21.8558 2.77138L23.6243 0.960329Z" fill="#FFBA33"/>
  </symbol>


  <!-- ****************** pirate ****************** -->
  <!-- <symbol id="theme-pirate" viewBox="0 0 146 36" width="100%" height="100%" fill="none">    
    <g clip-path="url(#clip0_303_188)">
      <path d="M50.1954 14.9157H47.3958L45.0628 25.8298H44.9591L42.4964 14.9157H38.2969L35.8084 25.8298H35.7047L33.3976 14.9157H30.572L33.8383 28.2926H37.7007L40.3189 17.3526H40.4226L43.0149 28.2926H46.981L50.1954 14.9157Z" fill="white"/>
      <path d="M54.1276 12.764C55.0608 12.764 55.8385 12.0381 55.8385 11.0789C55.8385 10.1197 55.0608 9.39383 54.1276 9.39383C53.1684 9.39383 52.4167 10.1197 52.4167 11.0789C52.4167 12.0381 53.1684 12.764 54.1276 12.764ZM55.5274 28.2926V14.9157H52.7278V28.2926H55.5274Z" fill="white"/>
      <path d="M59.3603 28.2926H62.1599V22.7967C62.4969 22.8485 62.9376 22.8485 63.2746 22.8485C63.7153 22.8485 64.1041 22.8226 64.493 22.7707L67.6296 28.2926H70.7922L67.0852 21.993C69.2109 20.8523 70.0663 18.7006 70.0663 16.4452C70.0663 15.7971 70.0404 15.3823 69.9886 14.9157H67.2408C67.3185 15.5379 67.3185 15.9527 67.3185 16.3934C67.3185 18.9599 65.6595 20.4376 63.1709 20.4376C62.808 20.4376 62.471 20.4376 62.1599 20.3857V8.84942H59.3603V28.2926Z" fill="white"/>
      <path d="M74.7847 12.764C75.7179 12.764 76.4956 12.0381 76.4956 11.0789C76.4956 10.1197 75.7179 9.39383 74.7847 9.39383C73.8255 9.39383 73.0738 10.1197 73.0738 11.0789C73.0738 12.0381 73.8255 12.764 74.7847 12.764ZM76.1845 28.2926V14.9157H73.3848V28.2926H76.1845Z" fill="white"/>
      <path d="M98.3447 14.9157H95.545L93.212 25.8298H93.1083L90.6457 14.9157H86.4462L83.9576 25.8298H83.8539L81.5468 14.9157H78.7213L81.9875 28.2926H85.85L88.4682 17.3526H88.5719L91.1641 28.2926L95.1303 28.2926L98.3447 14.9157Z" fill="white"/>
      <path d="M99.7919 21.6042C99.7919 25.7261 102.488 28.7074 106.532 28.7074C108.865 28.7074 110.705 27.5667 111.405 25.9854H111.483C111.457 26.3483 111.431 26.7372 111.431 27.3334V28.2926H113.997V14.9157H111.431V15.6675C111.431 16.3675 111.457 16.7045 111.483 16.9896H111.405C110.757 15.6416 109.02 14.5009 106.635 14.5009C102.643 14.5009 99.7919 17.4822 99.7919 21.6042ZM106.972 26.1927C104.484 26.1927 102.617 24.2484 102.617 21.5782C102.617 18.8821 104.484 16.9637 106.972 16.9637C109.513 16.9637 111.327 18.8821 111.327 21.5782C111.327 24.2484 109.513 26.1927 106.972 26.1927Z" fill="white"/>
      <path d="M117.838 28.2926H120.638V19.7895C120.638 18.1303 121.804 16.9637 123.437 16.9637C125.045 16.9637 126.211 18.1303 126.211 19.7895V28.2926H129.011V19.8413C129.011 16.6526 127.21 14.5009 123.943 14.5009C122.647 14.5009 121.417 15.1505 120.406 16.1286C120.385 15.6395 120.354 14.9157 120.354 14.9157H117.838C117.838 19.3747 117.838 23.8336 117.838 28.2926Z" fill="white"/>
      <path d="M131.794 21.6042C131.794 25.752 134.49 28.7074 138.482 28.7074C140.66 28.7074 142.526 27.7741 143.408 26.089H143.486C143.46 26.4261 143.434 26.8409 143.434 27.4371V28.2926H146V8.84942H143.226V15.3823C143.226 16.1082 143.252 16.4193 143.304 16.7045H143.2C142.449 15.3305 140.556 14.5009 138.586 14.5009C134.568 14.5009 131.794 17.4563 131.794 21.6042ZM138.975 26.1927C136.486 26.1927 134.62 24.2484 134.62 21.5782C134.62 18.8821 136.486 16.9637 138.975 16.9637C141.515 16.9637 143.33 18.8821 143.33 21.5782C143.33 24.2484 141.515 26.1927 138.975 26.1927Z" fill="white"/>
      <path d="M0.0328717 19.616L2.06756 19.1343L4.37068 30.0275L2.11725 29.5329L0.0328717 19.616Z" fill="#695D5B"/>
      <path d="M5.18795 15.2008L8.87713 14.4531L4.37166 30.0314L2.11481 29.5247L5.18795 15.2008Z" fill="#80706F"/>
      <path d="M5.18501 15.1966L8.87829 14.4484L13.6131 31.3237L8.3884 30.0076L5.18501 15.1966Z" fill="#A59592"/>
      <path d="M13.7303 8.38008L18.9523 9.69186L13.6096 31.3203L8.38761 30.0085L13.7303 8.38008Z" fill="white"/>
      <rect width="5.38427" height="7.88696" transform="matrix(0.969868 0.243631 -0.239813 0.970819 13.7303 8.38008)" fill="#252DFF"/>
      <rect width="5.38427" height="3.93849" transform="matrix(0.969868 0.243631 -0.239813 0.970819 13.7303 8.38008)" fill="#FF3389"/>
      <path d="M18.6245 -0.0197565L19.3281 2.41239L21.5979 3.53497L19.5021 4.95481L19.1364 7.45976L17.1375 5.90513L14.6417 6.33069L15.5021 3.95003L14.3253 1.70809L16.856 1.7914L18.6245 -0.0197565Z" fill="#FFBA33"/>
    </g>
    <defs>
      <clipPath id="clip0_303_188">
        <rect width="146" height="35" fill="white"/>
      </clipPath>
    </defs>
  </symbol> -->

  <!-- icon -->
  <!-- <symbol id="icon-theme-pirate" viewBox="0 0 35 35" width="100%" height="100%" fill="none">    
    <path d="M5.03287 20.5949L7.06743 20.1132L9.3704 31.0058L7.11711 30.5112L5.03287 20.5949Z" fill="#695D5B"/>
    <path d="M10.1879 16.18L13.8769 15.4323L9.37153 31.0096L7.11482 30.5029L10.1879 16.18Z" fill="#80706F"/>
    <path d="M10.185 16.1758L13.8781 15.4277L18.6128 32.3019L13.3884 30.9858L10.185 16.1758Z" fill="#A59592"/>
    <path d="M18.7303 9.3597L23.952 10.6713L18.6094 32.2983L13.3876 30.9867L18.7303 9.3597Z" fill="white"/>
    <rect width="5.38393" height="7.88646" transform="matrix(0.969872 0.243617 -0.239827 0.970816 18.7303 9.3597)" fill="#252DFF"/>
    <rect width="5.38393" height="3.93824" transform="matrix(0.969872 0.243617 -0.239827 0.970816 18.7303 9.3597)" fill="#FF3389"/>
    <path d="M23.6243 0.960329L24.3278 3.39229L26.5975 4.51477L24.5018 5.93454L24.136 8.43932L22.1373 6.88482L19.6416 7.31039L20.502 4.92988L19.3253 2.68812L21.8558 2.77138L23.6243 0.960329Z" fill="#FFBA33"/>
  </symbol> -->

</svg>





